<svg id="Grupo_41" data-name="Grupo 41" xmlns="http://www.w3.org/2000/svg" xmlns:xlink="http://www.w3.org/1999/xlink" width="68.168" height="69.977" viewBox="0 0 68.168 69.977">
  <defs>
    <clipPath id="clip-path">
      <rect id="Rectángulo_13" data-name="Rectángulo 13" width="68.168" height="69.977" fill="none"/>
    </clipPath>
    <clipPath id="clip-path-2">
      <rect id="Rectángulo_12" data-name="Rectángulo 12" width="68.168" height="69.977" transform="translate(0 0)" fill="none"/>
    </clipPath>
    <clipPath id="clip-path-3">
      <rect id="Rectángulo_11" data-name="Rectángulo 11" width="65.655" height="69.977" transform="translate(2.194 0)" fill="none"/>
    </clipPath>
  </defs>
  <g id="Grupo_36" data-name="Grupo 36" clip-path="url(#clip-path)">
    <g id="Grupo_35" data-name="Grupo 35">
      <g id="Grupo_34" data-name="Grupo 34" clip-path="url(#clip-path-2)">
        <g id="Grupo_33" data-name="Grupo 33" opacity="0.35">
          <g id="Grupo_32" data-name="Grupo 32">
            <g id="Grupo_31" data-name="Grupo 31" clip-path="url(#clip-path-3)">
              <path id="Trazado_89" data-name="Trazado 89" d="M5.322,6.819C11.578.007,23.826,3.3,29.195,10.827S35,28.218,35.244,37.464c-.43-9.675-.691-20.03,4.453-28.235S57.616-3.015,64.349,3.946C79.226,19.329,35.156,69.264,35.156,69.264S-9.248,22.682,5.322,6.819" fill="#f9d4ef"/>
              <path id="Trazado_90" data-name="Trazado 90" d="M5.426,6.915a10.629,10.629,0,0,0-2.254,4.242,14.979,14.979,0,0,0-.463,3.306,24.529,24.529,0,0,0,1.183,7.894,51.745,51.745,0,0,0,2.963,7.5,108.2,108.2,0,0,0,8.218,13.933c3.054,4.457,6.323,8.768,9.732,12.965q2.56,3.146,5.22,6.209L32.711,66l1.364,1.5,1.07,1.152,2.388-2.824,2.627-3.218q2.6-3.239,5.1-6.558c3.329-4.427,6.524-8.956,9.5-13.623a118.521,118.521,0,0,0,8.022-14.5,58,58,0,0,0,2.914-7.72,27.8,27.8,0,0,0,1.238-8.058A11.451,11.451,0,0,0,64.4,4.737a12.448,12.448,0,0,0-1.437-1.373,16.476,16.476,0,0,0-1.65-1.112,12.251,12.251,0,0,0-3.792-1.208,15.951,15.951,0,0,0-7.94.942,20.066,20.066,0,0,0-6.833,4.292,19.471,19.471,0,0,0-4.467,6.729,33.308,33.308,0,0,0-2.172,7.9,86.524,86.524,0,0,0-.4,16.54l-.942.033c-.176-6.246-.381-12.565-2.182-18.524a28.886,28.886,0,0,0-1.68-4.319,22.376,22.376,0,0,0-2.394-3.946,18,18,0,0,0-3.231-3.249,20.007,20.007,0,0,0-3.964-2.333,18.63,18.63,0,0,0-5.627-1.5,13.919,13.919,0,0,0-5.276.477A12,12,0,0,0,6.836,5.792a10.776,10.776,0,0,1-1.411,1.1,6.07,6.07,0,0,1,.54-.6l.54-.549c.211-.195.478-.364.743-.567A11.626,11.626,0,0,1,11.085,3.35c.389-.074.986-.228,1.654-.306a14.815,14.815,0,0,1,2.052-.074,16.883,16.883,0,0,1,5.5,1.065,19.281,19.281,0,0,1,4.966,2.61,18.538,18.538,0,0,1,4.011,3.933,26.963,26.963,0,0,1,2.774,4.882A39.488,39.488,0,0,1,34.819,26.3c.473,3.707.606,7.439.717,11.157l-.584.021a87.307,87.307,0,0,1,.349-16.66,34.119,34.119,0,0,1,2.193-8.088c.244-.659.594-1.272.887-1.911.325-.622.687-1.226,1.042-1.833.418-.571.788-1.181,1.248-1.718a17.823,17.823,0,0,1,1.435-1.56,20.9,20.9,0,0,1,7.1-4.513A16.793,16.793,0,0,1,57.572.149a12.884,12.884,0,0,1,4.085,1.272,17.231,17.231,0,0,1,1.8,1.177,14.26,14.26,0,0,1,1.57,1.48,12.3,12.3,0,0,1,2.814,7.96,28.212,28.212,0,0,1-1.237,8.339,58.316,58.316,0,0,1-2.943,7.854,118.617,118.617,0,0,1-8.082,14.635c-3,4.7-6.212,9.253-9.565,13.7Q43.5,59.9,40.88,63.16l-2.649,3.234-1.346,1.6L35.17,69.977,33.356,68.03l-1.429-1.581-2.812-3.2q-2.782-3.231-5.455-6.556c-3.558-4.436-6.967-9-10.121-13.75A99.113,99.113,0,0,1,5.985,29.619c-2.07-4.6-3.763-9.458-3.791-14.364a12.827,12.827,0,0,1,.887-4.78,10.814,10.814,0,0,1,2.345-3.56" fill="#f9d4ef"/>
            </g>
          </g>
        </g>
        <path id="Trazado_91" data-name="Trazado 91" d="M42.932,30.351c-5.307-6.743-11.7-10.564-14.279-8.534a3.036,3.036,0,0,0-1.021,2.1l-.291.039L12.746,46.29l8.943,10.492,26.159-9.608-.421-.675a2.329,2.329,0,0,0,.444-.263c2.579-2.03.368-9.142-4.939-15.885" fill="#fff"/>
        <path id="Trazado_92" data-name="Trazado 92" d="M27.277,26.117a4.36,4.36,0,0,1-.139-2.447A3.989,3.989,0,0,1,29.364,21.2l.521-.232c.184-.047.371-.082.557-.122a6.482,6.482,0,0,1,4.227.867,26.343,26.343,0,0,1,6.352,5.3,32.994,32.994,0,0,1,8.512,14.011,7.975,7.975,0,0,1,.273,4.385A3.748,3.748,0,0,1,48.4,47.438a3.917,3.917,0,0,1-2.357.637A7.407,7.407,0,0,1,41.908,46.5a39.062,39.062,0,0,1-3.2-2.643A53.7,53.7,0,0,1,28.694,30.838a13.934,13.934,0,0,1-1.313-2.989c-.228-.787-.215-1.786-.079-1.732s.5,1.085.879,1.691c.11.187.283.594.432.908a28.419,28.419,0,0,0,1.788,3.13c.657,1.019,1.326,2.024,2.029,3.007a51.429,51.429,0,0,0,4.563,5.6,40.265,40.265,0,0,0,5.371,4.775,7.372,7.372,0,0,0,3.012,1.447,2.656,2.656,0,0,0,2.694-.783,4.046,4.046,0,0,0,.483-2.994,23.746,23.746,0,0,0-.962-3.384,29.237,29.237,0,0,0-3.26-6.322,43.742,43.742,0,0,0-4.543-5.572,26.022,26.022,0,0,0-5.355-4.664A6.59,6.59,0,0,0,30.84,21.81a3.5,3.5,0,0,0-2.924,1.89,6.607,6.607,0,0,0-.639,2.417" fill="#606060"/>
        <path id="Trazado_93" data-name="Trazado 93" d="M47.848,47.174c-1.414.657-2.077,1.02-2.826,1.305L23.516,56.631,0,65.464,12.354,46.12l11.3-17.53c.787-1.214,1.654-2.587,2.366-3.554.622-.844,1.454-1.793,1.509-1.652a13.95,13.95,0,0,1-1.031,2.33c-.128.266-.448.781-.7,1.185L3.391,62.73l.132-.061,2-.755L9.561,60.4l8.078-3.012,16.218-5.949c3.567-1.292,7.2-2.468,10.626-3.556a26.118,26.118,0,0,1,3.365-.709" fill="#606060"/>
        <path id="Trazado_94" data-name="Trazado 94" d="M25.123,55.385a7.7,7.7,0,0,1-.426-.708A37.256,37.256,0,0,1,22.586,31.94a8.813,8.813,0,0,1,.29-1.092c.1-.261.273-.556.326-.517s.029.429.026.687a2.414,2.414,0,0,1-.057.357,40.991,40.991,0,0,0,1.023,20.28c.275.944.555,1.9.819,2.809a4,4,0,0,1,.11.921" fill="#606060"/>
        <path id="Trazado_95" data-name="Trazado 95" d="M32.106,34.882a3.568,3.568,0,0,1,.055.565,34.956,34.956,0,0,0,2.088,15.3,5.786,5.786,0,0,1,.251.717c.039.185.037.427-.025.437s-.229-.205-.35-.342a1.062,1.062,0,0,1-.118-.219,29.126,29.126,0,0,1-2.568-13.882,11.074,11.074,0,0,1,.346-2,2.035,2.035,0,0,1,.321-.575" fill="#606060"/>
        <path id="Trazado_96" data-name="Trazado 96" d="M39.557,43.549c.068.1.125.14.131.19.224,1.846.6,3.65.994,5.46a.7.7,0,0,1,.034.271c-.016.074-.086.176-.146.187s-.154-.059-.229-.1c-.023-.013-.036-.05-.047-.079a15.3,15.3,0,0,1-1.1-4.96,2.336,2.336,0,0,1,.128-.734c.029-.094.154-.154.24-.232" fill="#606060"/>
        <path id="Trazado_97" data-name="Trazado 97" d="M14.389,59.357A2.017,2.017,0,0,1,14.166,59a38.022,38.022,0,0,1-1.733-11.31,2.762,2.762,0,0,1,.033-.559c.034-.138.127-.3.188-.289s.135.2.2.327a.563.563,0,0,1,.026.178,68.166,68.166,0,0,0,1.456,10.069,12.8,12.8,0,0,1,.184,1.448,1.346,1.346,0,0,1-.127.494" fill="#606060"/>
        <path id="Trazado_98" data-name="Trazado 98" d="M6.495,56.782c.066.082.123.12.128.164.192,1.588.469,3.148.7,4.726a.527.527,0,0,1,.009.236.272.272,0,0,1-.161.158c-.069.009-.148-.056-.218-.1-.021-.012-.031-.045-.04-.07a14.067,14.067,0,0,1-.808-4.29,1.845,1.845,0,0,1,.145-.63c.03-.08.157-.132.244-.2" fill="#606060"/>
        <path id="Trazado_99" data-name="Trazado 99" d="M42.385,10.341c.169.152.3.214.331.309a21.165,21.165,0,0,1,.8,10.884,1.3,1.3,0,0,1-.165.517.515.515,0,0,1-.42.2c-.134-.038-.23-.236-.33-.372a.289.289,0,0,1-.02-.173,45.156,45.156,0,0,0-.616-9.434,5.755,5.755,0,0,1,.041-1.4c.021-.184.244-.349.38-.537" fill="#606060"/>
        <path id="Trazado_100" data-name="Trazado 100" d="M58.739,15.9c.019.243.073.384.03.485a26.907,26.907,0,0,1-6.907,9.814,1.534,1.534,0,0,1-.482.346.524.524,0,0,1-.478-.073c-.083-.112-.026-.34-.013-.517a.329.329,0,0,1,.1-.162,62.193,62.193,0,0,0,6.081-8.54,6.758,6.758,0,0,1,1.01-1.159c.145-.142.426-.13.658-.194" fill="#606060"/>
        <path id="Trazado_101" data-name="Trazado 101" d="M64.147,43.921c-.205-.138-.347-.177-.4-.27a12.947,12.947,0,0,0-9.106-6.19,1.563,1.563,0,0,1-.545-.12c-.13-.079-.289-.28-.274-.4.018-.137.221-.251.363-.362a.361.361,0,0,1,.195-.036,11.132,11.132,0,0,1,9.529,5.18,2.819,2.819,0,0,1,.326.762,4.006,4.006,0,0,1,.163.8c.027.21-.156.423-.253.635" fill="#606060"/>
        <path id="Trazado_102" data-name="Trazado 102" d="M26.636,12.752a1.226,1.226,0,0,0,.119.688,3.243,3.243,0,0,0,.884,1.165,10.468,10.468,0,0,0,1.224.947c.433.288.88.56,1.337.815l.692.372.336.171.056.022.136-.436.225-.772c.143-.516.268-1.037.371-1.559a11.715,11.715,0,0,0,.207-1.565,3.533,3.533,0,0,0-.163-1.449.738.738,0,0,0-.893-.5,1.487,1.487,0,0,0-.946.824,2.205,2.205,0,0,0-.071,1.369,8.2,8.2,0,0,0,.522,1.467l-.651.278a6.713,6.713,0,0,0-.8-1.549,1.727,1.727,0,0,0-1.3-.77,1.555,1.555,0,0,0-.865.2c-.193.086-.383.3-.434.269s.051-.426.267-.624a.988.988,0,0,1,.338-.2,2.05,2.05,0,0,1,2.158.53,6.022,6.022,0,0,1,1.162,1.917l-.4.172a8.625,8.625,0,0,1-.594-1.562,2.79,2.79,0,0,1,.081-1.768A2.119,2.119,0,0,1,31.012,10a1.414,1.414,0,0,1,1.008.114,1.5,1.5,0,0,1,.671.761,4.081,4.081,0,0,1,.226,1.752A11.735,11.735,0,0,1,32.7,14.3c-.109.545-.241,1.082-.392,1.612l-.24.792-.136.41-.27.748-.737-.361-.373-.2c-.248-.134-.493-.272-.736-.416-.484-.288-.961-.593-1.42-.928a5.25,5.25,0,0,1-1.963-2.316.917.917,0,0,1,.2-.887" fill="#606060"/>
        <path id="Trazado_103" data-name="Trazado 103" d="M66.113,27.462a1.223,1.223,0,0,0-.7.013,3.242,3.242,0,0,0-1.286.695,10.537,10.537,0,0,0-1.123,1.066q-.527.576-1.009,1.2l-.473.627-.22.307-.031.051.41.2.729.34c.488.22.984.423,1.484.6a11.647,11.647,0,0,0,1.515.442,3.528,3.528,0,0,0,1.457.061.738.738,0,0,0,.626-.807,1.484,1.484,0,0,0-.67-1.061,2.207,2.207,0,0,0-1.341-.279,8.306,8.306,0,0,0-1.531.292l-.175-.685a6.746,6.746,0,0,0,1.654-.556,1.726,1.726,0,0,0,.958-1.163,1.558,1.558,0,0,0-.069-.886c-.055-.2-.241-.425-.2-.47s.414.115.576.359a.98.98,0,0,1,.142.364,2.049,2.049,0,0,1-.852,2.052,6,6,0,0,1-2.072.856l-.109-.425a8.609,8.609,0,0,1,1.635-.348,2.793,2.793,0,0,1,1.735.349,2.119,2.119,0,0,1,.986,1.547,1.421,1.421,0,0,1-.265.979,1.5,1.5,0,0,1-.855.546,4.082,4.082,0,0,1-1.766-.043,11.692,11.692,0,0,1-1.613-.469q-.781-.287-1.533-.634l-.746-.358L61,32.03l-.7-.38.469-.674.253-.339q.255-.336.523-.663c.359-.435.733-.86,1.134-1.262a5.257,5.257,0,0,1,2.588-1.587.917.917,0,0,1,.846.337" fill="#606060"/>
        <path id="Trazado_104" data-name="Trazado 104" d="M50.822,8.513a1.149,1.149,0,0,0-.337.54,5.182,5.182,0,0,0,.112,2.733c.113.466.246.928.4,1.385l.236.683.112.3.023.049.048-.03.291-.167.634-.381c.419-.26.828-.534,1.223-.823a10.693,10.693,0,0,0,1.114-.927,3.241,3.241,0,0,0,.788-1.072.651.651,0,0,0-.282-.859,1.339,1.339,0,0,0-1.13-.032,2.007,2.007,0,0,0-.889.869,7.565,7.565,0,0,0-.563,1.314l-.666-.237a6.2,6.2,0,0,0,.426-1.542,1.567,1.567,0,0,0-.388-1.31,1.434,1.434,0,0,0-.695-.4c-.178-.065-.441-.046-.457-.1s.3-.266.568-.269a.89.89,0,0,1,.354.077,1.9,1.9,0,0,1,1.139,1.715,5.56,5.56,0,0,1-.409,2.03l-.413-.148a7.96,7.96,0,0,1,.574-1.432A2.591,2.591,0,0,1,53.8,9.318a1.975,1.975,0,0,1,1.71.042,1.328,1.328,0,0,1,.623.719,1.406,1.406,0,0,1-.021.951,3.8,3.8,0,0,1-.947,1.338,10.93,10.93,0,0,1-1.191.994c-.414.3-.84.582-1.274.846l-.658.387-.369.2-.658.341-.274-.7-.14-.4-.237-.742c-.148-.5-.28-1-.38-1.518a4.808,4.808,0,0,1,.133-2.8.831.831,0,0,1,.707-.461" fill="#606060"/>
        <path id="Trazado_105" data-name="Trazado 105" d="M38.266,16.86c-.065-.1-.127-.123-.136-.165a.8.8,0,0,0-.848-.587.744.744,0,0,0-.667.674.719.719,0,0,0,.519.747.736.736,0,0,0,.851-.371.971.971,0,0,1,.094-.188.355.355,0,0,1,.2-.11c.068,0,.133.1.177.187a.161.161,0,0,1,0,.107,1.227,1.227,0,0,1-1.079,1,1.318,1.318,0,0,1-1.358-.817,1.367,1.367,0,0,1,2.108-1.592,1,1,0,0,1,.361.858c-.01.117-.136.192-.224.262" fill="#606060"/>
        <path id="Trazado_106" data-name="Trazado 106" d="M53.338,31.408c-.065-.1-.127-.123-.136-.165a.8.8,0,0,0-.848-.587.744.744,0,0,0-.667.674.719.719,0,0,0,.519.747.737.737,0,0,0,.851-.371.944.944,0,0,1,.094-.188.355.355,0,0,1,.2-.11c.068,0,.133.1.177.187a.161.161,0,0,1,0,.107,1.228,1.228,0,0,1-1.079.995,1.318,1.318,0,0,1-1.358-.817A1.367,1.367,0,0,1,53.2,30.288a1,1,0,0,1,.361.858c-.01.117-.136.192-.224.262" fill="#606060"/>
        <path id="Trazado_107" data-name="Trazado 107" d="M45.755,43.125a2.476,2.476,0,0,1-.092-.456,14.509,14.509,0,0,0-4.837-11.116,3.9,3.9,0,0,1-.451-.41c-.1-.119-.181-.307-.135-.348s.257.033.4.073a.748.748,0,0,1,.175.106,13.311,13.311,0,0,1,5.392,10.009,4.458,4.458,0,0,1-.035.849,5.386,5.386,0,0,1-.139.816,1.465,1.465,0,0,1-.283.477" fill="#606060"/>
        <path id="Trazado_108" data-name="Trazado 108" d="M22.763,25.409a4.228,4.228,0,0,1-.217.583c-2.9,4.958-5.844,9.9-8.925,14.758a6.351,6.351,0,0,1-.473.695c-.136.158-.345.318-.388.271s.046-.331.094-.523a1.289,1.289,0,0,1,.12-.244C15.535,36.474,18.1,32,20.892,27.63A21.948,21.948,0,0,1,22.2,25.847a2.419,2.419,0,0,1,.565-.438" fill="#606060"/>
        <path id="Trazado_109" data-name="Trazado 109" d="M31.449,58.58a8.279,8.279,0,0,1-.8.342c-7.789,2.237-15.5,4.714-23.193,7.312-.381.128-.8.283-1.13.357-.285.064-.643.09-.64.024s.362-.269.594-.415a2.611,2.611,0,0,1,.352-.15c6.809-2.567,13.714-4.918,20.793-6.81,1.018-.273,2.062-.478,3.046-.656a4.319,4.319,0,0,1,.977,0" fill="#606060"/>
      </g>
    </g>
  </g>
</svg>
