<?xml version="1.0" encoding="UTF-8"?>
<svg id="Capa_2" data-name="Capa 2" xmlns="http://www.w3.org/2000/svg" viewBox="0 0 22.61 22.61">
  <defs>
    <style>
      .cls-1 {
        fill: #fff;
      }
    </style>
  </defs>
  <g id="_Ñëîé_1" data-name="Ñëîé 1">
    <g>
      <rect class="cls-1" width="22.61" height="22.61"/>
      <g>
        <path d="M11.3,11.49c-.09-.3-.13-.52-.13-.65,0-.27.08-.5.26-.69.17-.19.38-.29.62-.29.22,0,.4.07.53.21.14.14.21.31.21.5,0,.16-.06.32-.17.48s-.26.29-.45.38l.51,1.23c.14-.19.22-.37.22-.52,0-.06-.03-.11-.1-.13-.04-.01-.05-.03-.05-.04v-.15c0-.07.03-.1.09-.1h.65c.05,0,.08.04.08.11v.14s-.02.06-.06.07c-.13.05-.27.24-.44.56-.09.17-.16.29-.22.38.07.21.16.31.26.31.05,0,.11-.02.16-.06.02-.02.04-.02.05-.02.01,0,.05.03.11.08.06.06.1.1.1.12,0,.02-.03.06-.08.1-.23.2-.42.39-.58.57-.12,0-.23-.02-.32-.07-.09-.05-.19-.15-.31-.3-.24.25-.49.37-.76.37-.34,0-.6-.14-.78-.43-.18-.29-.28-.6-.28-.94,0-.28.07-.52.21-.72.14-.2.36-.38.67-.53ZM12.04,13.41c-.2-.35-.4-.86-.6-1.53-.15.05-.22.15-.22.32s.07.42.21.75c.14.34.28.51.44.51.05,0,.11-.02.18-.06ZM12.05,11.08c.18-.1.27-.25.27-.45,0-.11-.02-.21-.07-.29-.05-.08-.11-.12-.18-.12-.05,0-.09.02-.13.07-.04.05-.05.1-.05.17,0,.15.06.36.17.62Z"/>
        <path d="M5.44,10.17V3.07c-.01-.08-.08-.14-.21-.18-.1-.03-.17-.08-.21-.14s-.05-.19-.05-.39c0-.14.03-.24.08-.29s.18-.07.39-.07h2.81c.8,0,1.46.37,1.99,1.11s.79,1.96.79,3.68c0,1.56-.25,2.73-.76,3.51s-1.18,1.16-2.02,1.16h-3.09c-.09,0-.15-.02-.18-.06s-.05-.13-.05-.27c0-.17,0-.27.02-.32s.07-.09.17-.15c.22-.11.33-.28.33-.5ZM7.62,2.71v8.12h.31c.22,0,.38-.09.48-.27s.15-.5.15-.97V3.6c0-.26-.06-.47-.19-.64s-.3-.25-.53-.25h-.22Z"/>
        <path d="M14.62,9.67h2.79c.11,0,.18.02.21.05s.05.12.05.26c0,.19-.01.31-.04.35s-.09.09-.2.12c-.12.04-.19.08-.21.12s-.04.15-.04.3v6.45c0,.9-.24,1.67-.73,2.31s-1.23.96-2.24.96c-.19,0-.31-.01-.35-.04s-.06-.09-.06-.19v-.22c0-.09,0-.15.03-.18s.07-.04.17-.05c.66-.06,1-.59,1-1.59v-7.17c0-.29-.03-.47-.08-.55s-.15-.14-.29-.18-.21-.14-.21-.28c0-.24,0-.38.03-.42s.08-.05.17-.05Z"/>
      </g>
    </g>
  </g>
</svg>