<?xml version="1.0" encoding="UTF-8"?>
<svg id="Capa_2" data-name="Capa 2" xmlns="http://www.w3.org/2000/svg" viewBox="0 0 595.28 589.21">
  <defs>
    <style>
      .cls-1 {
        fill: #fff;
      }
    </style>
  </defs>
  <g id="PRINT">
    <g>
      <g>
        <path class="cls-1" d="M293.29,28.08c-1.15,0-2.08.93-2.08,2.08s.93,2.08,2.08,2.08,2.08-.93,2.08-2.08-.93-2.08-2.08-2.08Z"/>
        <path class="cls-1" d="M230.48,96.1c-3.28-.52-3.21-4.65-3.19-5.11l2.85.08c-.03,1.07.33,2.45.84,2.52,1.01.17,2.71-.44,3.17-1.36.44-.83-.48-1.73-1.32-2.34-1.55-1.13-3.19-1.35-4.89-.63-2.42,1.03-3.27,3.82-2.67,5.81.35,1.18,1.48,3.07,5.07,2.79,1.92-.16,3.52-.54,4.84-1.13.17-.78.4-1.56.71-2.32-1.4,1.35-3.68,1.97-5.41,1.69Z"/>
        <path class="cls-1" d="M237.1,92.18c.26-.39.55-.77.87-1.16-.34,0-.65-.02-.96-.06.11.45.12.86.09,1.22Z"/>
        <path class="cls-1" d="M167.85,115.84c-1.59-1.59-9.38-2.98-9.23,2.83s10.32,3.71,10.32,3.71c1.85-2.52.5-4.95-1.09-6.54Z"/>
        <path class="cls-1" d="M364.8,96.1c-1.73.28-4.01-.35-5.41-1.69.31.76.55,1.55.71,2.32,1.31.59,2.92.97,4.84,1.13,3.59.28,4.72-1.61,5.07-2.79.61-1.99-.25-4.77-2.67-5.81-1.7-.72-3.34-.51-4.89.63-.84.61-1.76,1.51-1.32,2.34.46.91,2.16,1.52,3.17,1.36.51-.08.88-1.45.84-2.52l2.85-.08c.02.46.09,4.59-3.19,5.11Z"/>
        <path class="cls-1" d="M358.17,92.18c-.03-.36-.02-.77.09-1.22-.31.03-.62.06-.96.06.32.39.61.78.87,1.16Z"/>
        <path class="cls-1" d="M300.43,30.73c1.15,0,2.08-.93,2.08-2.08s-.93-2.08-2.08-2.08-2.08.93-2.08,2.08.93,2.08,2.08,2.08Z"/>
        <path class="cls-1" d="M436.65,118.68c.15-5.81-7.64-4.43-9.23-2.83-1.59,1.59-2.94,4.03-1.09,6.54,0,0,10.17,2.1,10.32-3.71Z"/>
        <path class="cls-1" d="M300.43,34.75c0-1.15-.93-2.08-2.08-2.08s-2.08.93-2.08,2.08.93,2.08,2.08,2.08,2.08-.93,2.08-2.08Z"/>
      </g>
      <g>
        <path class="cls-1" d="M510.58,116.88c-.05-6.03-3.55-11.2-9.68-14.06-4.96-2.32-10.26-2.42-14.5-.31-4.06,1.99-6.7,5.69-7.05,9.86-.23,2.55.44,5.07,1.9,7.32-1.75-1.17-3.54-2.78-5.36-4.81-3.86-4.3-6.1-8-7.9-10.95-4.03-6.65-7.51-12.4-20.31-15.66-.22-.06-.45-.1-.67-.13-4.2-1.76-9.19-2.71-14.89-2.85-17.18-.38-27.19,7.44-34.91,14.94.04-.41.07-.83.1-1.25.62-10.6-4.08-20.36-12.56-26.11-5.18-3.51-12.14-5.36-18.89-4.45,4.2-5.69,6.39-12.79,5.28-17.54-1.88-8.12-7.09-14.94-9.77-18.04-4.55-8.61-10.4-7.42-12.13-6.84-1.47.5-2.71,1.38-3.66,2.54-.5-.19-1.02-.36-1.58-.52-3.89-1.14-9.29.23-11.58,4.52-.61,1.15-1.99,4.52.28,8.45-.08.78-.05,1.57.1,2.38.18.98.59,2.23,1.49,3.52-3.43-.79-6.98-.81-10.45-.25.48-1.2.8-2.6.83-4.31l.02-.73c.02-.8.04-1.73-.08-2.71.59-.46,1.08-.95,1.52-1.44.06-.07.13-.15.24-.26,3.09-2.89,4.42-6.67,3.8-10.52,2.51-1.67,3.5-4.94,2.2-7.78-1.01-2.19-3.28-3.55-5.69-3.6-.36,0-.65-.02-.88-.04-.15-.22-.33-.46-.52-.69-1.64-2-3.42-3.88-7.04-4.95l-.72-.23c-1.07-.34-2.22-.71-3.48-.85-.4-.93-.89-1.59-1.21-2.03-.05-.07-.12-.15-.18-.25-2.5-4.14-6.77-6.42-11.74-6.26-1.32.04-2.35.27-3.1.43-.05.01-.09.02-.14.03-.04,0-.09-.02-.14-.03-.75-.16-1.78-.39-3.08-.43-4.97-.16-9.27,2.12-11.76,6.26-.06.1-.12.17-.18.24-.32.44-.81,1.1-1.21,2.03-1.26.14-2.4.51-3.48.85l-.64.2c-3.7,1.1-5.48,2.98-7.07,4.91-.22.26-.41.52-.58.76-.23.02-.52.03-.88.04-2.41.05-4.69,1.4-5.69,3.6-1.3,2.83-.32,6.1,2.19,7.77-.63,3.83.71,7.63,3.82,10.54.09.08.15.17.22.24.44.49.93.99,1.52,1.44-.12.98-.1,1.91-.08,2.71l.02.74c.03,1.7.35,3.09.83,4.29-3.46-.56-7.02-.54-10.44.25.9-1.3,1.31-2.55,1.49-3.52.15-.8.18-1.6.1-2.38,2.27-3.94.89-7.31.28-8.45-2.29-4.28-7.68-5.66-11.55-4.53-.56.16-1.09.34-1.6.53-.95-1.16-2.18-2.04-3.66-2.54-1.72-.59-7.58-1.78-12.13,6.84-2.68,3.09-7.89,9.91-9.76,18.02-1.12,4.77,1.07,11.87,5.27,17.56-6.75-.92-13.71.94-18.88,4.45-8.49,5.75-13.19,15.51-12.57,26.1.02.42.06.84.1,1.25-7.72-7.49-17.73-15.32-34.93-14.94-5.69.14-10.68,1.1-14.88,2.85-.23.03-.45.08-.68.13-12.8,3.26-16.28,9.01-20.3,15.65-1.8,2.97-4.05,6.66-7.92,10.97-1.81,2.03-3.6,3.64-5.35,4.8,1.46-2.25,2.14-4.76,1.91-7.29-.36-4.21-3-7.91-7.01-9.87-4.28-2.13-9.58-2.03-14.54.29-6.13,2.86-9.64,8.04-9.68,14.07h0C37.92,116.89,0,154.81,0,201.58v387.63h595.28V201.57c0-46.77-37.92-84.69-84.69-84.69h0ZM504.33,118.12c-.55,5-4.85,10.2-9.35,11.38l-.24.09c-8.54,3.21-17.66.04-25.71-8.97-4.38-4.89-6.86-8.98-8.86-12.27-2.52-4.11-4.24-6.97-8.1-9.12,3.27,3.94,4.45,8.78,4.66,13.22.29,6.09-3.11,11.5-9.31,14.79-2,1.07-4.16,1.83-6.33,2.3-.25,0-.57.05-.95.17-.44.08-.88.17-1.31.22.1.02.19.06.29.08-6.76,1.91-10.11-1.23-10.11-1.23-.26-.12-.52-.2-.76-.33-1.76-.95-3.14-2-4.17-3.17-1.17-.3-2.35-.62-3.53-.96-4.25-1.27-6.2-2.4-10.39-1.81-5.28.72-10.78,6.62-11.18,7.08-4.56,5.41-1.61,8.81-2.95,13.94l-2.34,2.1c-.57-1.16-7.76-7.33-1.12-18,2.63-4.23,7.58-6.87,14.72-7.85,4.87-.67,9.59.75,14.17,2.11.28.07.56.14.85.24-.03-.14-.11-.24-.14-.37-.15-.6-.22-1.18-.22-1.74,0-2.71,1.46-4.94,2.18-5.87,1.72-2.21,7.03-3.96,12.2-1.3,3.04,1.56,4.53,4.31,3.88,7.2-.75,3.28-4,5.78-8.11,6.22-.79.08-1.63,0-2.43-.03.02.01.03.02.06.03,4.03,2.17,10.86,1.66,16.26-1.22,3.09-1.63,8.25-5.45,7.91-12.49-.59-11.98-7.98-18.2-22-18.51-15.7-.34-23.66,7.68-31.36,15.43-2.52,2.53-4.9,4.93-7.52,7-5.19,4.15-23.93,17.25-46.88,12.26l.08-.25c-14.06-.88-27.12-8.23-37.87-21.74-6.22-7.83-8.77-14.98-9.17-21.26h-3.07c-.39,6.28-2.95,13.43-9.17,21.26-10.75,13.51-23.81,20.86-37.87,21.74l.08.25c-22.95,4.99-41.69-8.11-46.88-12.26-2.62-2.07-5-4.47-7.52-7-7.7-7.75-15.66-15.76-31.36-15.43-14.02.3-21.41,6.53-22,18.51-.34,7.03,4.82,10.85,7.91,12.49,5.4,2.88,12.23,3.39,16.26,1.22.02,0,.03-.02.06-.03-.81.03-1.64.11-2.43.03-4.1-.44-7.35-2.94-8.11-6.22-.65-2.88.84-5.64,3.88-7.2,5.17-2.66,10.48-.91,12.2,1.3.72.93,2.18,3.16,2.18,5.87,0,.56-.07,1.15-.22,1.74-.04.13-.12.23-.14.37.29-.1.57-.17.85-.24,4.57-1.36,9.29-2.78,14.17-2.11,7.14.97,12.09,3.62,14.72,7.85,6.64,10.68-.55,16.84-1.12,18l-2.34-2.1c-1.33-5.14,1.61-8.54-2.95-13.94-.4-.47-5.9-6.37-11.18-7.08-4.19-.59-6.14.54-10.39,1.81-1.18.35-2.36.66-3.53.96-1.03,1.18-2.41,2.23-4.17,3.17-.24.13-.5.21-.76.33,0,0-3.35,3.14-10.11,1.23.1-.02.19-.06.29-.08-.44-.05-.87-.14-1.31-.22-.38-.12-.7-.18-.95-.17-2.17-.47-4.33-1.23-6.33-2.3-6.2-3.28-9.6-8.7-9.31-14.79.22-4.44,1.39-9.28,4.66-13.22-3.86,2.15-5.58,5.01-8.1,9.12-2,3.29-4.48,7.38-8.86,12.27-8.05,9.01-17.17,12.18-25.71,8.97l-.23-.09c-4.49-1.17-8.8-6.38-9.35-11.38-.47-4.2,1.68-7.64,6.05-9.68,3.24-1.51,6.57-1.64,9.15-.36,2.09,1.02,3.43,2.83,3.6,4.85.27,3.05-2.57,5.33-3.59,6.05-.22.15-.48.22-.74.19l-.76-.08c-1.01-.11-1.32-1.42-.47-1.98.81-.49,2.88-2.19,2.73-3.97-.12-1.16-.9-2.22-2.14-2.83-1.75-.85-4.05-.72-6.45.4-4.19,1.96-4.77,4.98-4.53,7.18.47,4.26,4.27,8.37,7.33,9.18l.52.18c9.28,3.51,17.29-2.53,22.36-8.22,4.22-4.71,6.65-8.69,8.59-11.88,3.73-6.17,6.2-10.23,16.53-12.86l.08.25c3.51-1.77,8.09-2.9,14.09-3.05,17.03-.36,25.83,8.49,33.57,16.28,2.46,2.48,4.79,4.83,7.28,6.8,3.8,3,15.18,11.04,30.02,12.49-4.88-1.21-9.8-3.14-14.74-5.81-9.15-4.98-14.71-13.21-15.25-22.64-.49-8.39,3.2-16.1,9.85-20.61,6.98-4.74,18.16-5.6,25.1,2.11.17.17.79,1.28,1.43,2.86,2.1-.58,5.5-.93,12.22-1.68,1.84-.21,3.84-.16,5.88.12-5.96-4.21-11.91-5.45-19.27-11.28-2.14-1.72-3.23-3.29-3.84-3.99-4.27-4.94-6-11.09-5.35-13.87,1.79-7.74,7.52-14.39,8.9-15.92,3.78-7.8,7.71-4.48,6.45,1.55,3.16-2.02,4.89-3.17,7.49-3.93,2.63-.77,7.49,1.68,2.3,6.02,2.27,1.47,1.35,5.15-6.15,6.73,1.92.38,5.21,4.68-3.03,4.97-5.55.61-7.38,1.37-8.67,4.4-1.02,2.39-.29,5.24,1.46,8.22.49.84,1.22,3.28,3.58,5.02,4.59,3.42,12.32,6.6,20.03,11.28,5.01,3.05,11.06,7.44,12.47,12.94,1.57,6.19,1.03,15-2.34,20.36-3.43,5.45-12.25,10.83-20.47,6.96-2.96-1.4-3.92-4.66-2.18-7.25,1.62-2.37,4.87-2.63,7.81-1.24-.56.76-.5.73-.68,1.19-1.89-.89-4.21-.46-5.18.96-.96,1.42-.2,3.31,1.68,4.2,7.11,3.34,14.11-1.59,16.85-6.11,2.84-4.18,3.87-13.06,1.97-18.43-2.19-5.5-4.79-6.68-11.66-6.84-6.03,1.18-6.39,3.59-6.33,8.26.07,4.67-3.47,1.7-4.13,1.41-4.35,5.48-8.68,3.21-8.67,1.51-3.7,4.95-5.59,3.31-6.45,1.21-1.37.46-2.91.76-4.66.91-4.81.39-7.33-2.15-8.07-4.65-.94-3.06.38-7.19,4.2-8.8,2.11-.9,4.29-.87,6.28.02.56-1.38,2.24-2.75,4.83-3.47-.42-1.09-.84-1.88-1.01-2.15-5.73-6.33-15.16-5.55-21.09-1.55-5.89,3.99-9.15,10.88-8.72,18.42.5,8.56,5.56,16.08,13.88,20.6,23.41,12.69,46.63,7.67,63.7-13.82,5.8-7.28,8.21-13.93,8.59-19.76h-2.03c-.68,0-1.02-.31-1.02-.62,0-.45,1.05-.62,1.46-1.08v-2.01c-.41-.46-1.46-.63-1.46-1.08,0-.31.34-.6,1.02-.6h1.82c-1.86-13.03-13.18-20.83-13.36-20.96-4.75-3.19-15.67-7.32-22.96-.15-4.26,4.17-3.91,8.29-3.31,10.36.76,2.67,2.6,4.5,4.01,4.94,2.98.93,6.38.36,8.1-1.3,1.21-1.18,1.38-2.78.46-4.63-.77-1.55-1.68-2.44-2.71-2.65-1.46-.3-2.89.77-2.92.79l-1.86-1.93c.1-.08,2.52-1.92,5.38-1.35,1.98.39,3.57,1.78,4.72,4.11,1.37,2.76,1.01,5.46-.98,7.39-2.49,2.43-7.07,3.25-11.11,1.98-2.57-.78-4.94-3.48-5.86-6.71-.73-2.58-1.2-7.66,3.96-12.72,7.54-7.42,19.18-5.27,26.79-.17.19.13,12.68,8.73,14.58,23h.81v-30.52c-.17.44-.36.85-.61,1.19-.91,1.23-1.63,1.14-2.87,1.68-2.95,1.26-5.36.63-7.16-.63-1.25-.87-1.64-1.78-3.06-2.73-1.4-.96-3.27-1.09-4.32-2.41-1.27-1.59-1.86-2.52-1.89-4.41-.03-1.94-.18-2.97.53-3.8.96-1.15,3.17-1.98,5.25-2.68-.48-.15-1.27-.24-2.59-.24.87-.58,1.38-1.05,1.68-1.44-2.07.46-4.29.88-5.85.49-1.61-.39-1.72-1.03-2.68-1.92-2.25-2.11-2.32-4.36-1.54-6.3.54-1.31,1.4-1.93-3.06-4.85,5.62-.08,5.18-1.72,6.26-3,1.3-1.58,2.09-2.38,4.1-2.97,2.06-.64,3.11-1.08,4.21-.74,1.65.52,3.34,2.36,4.81,4.01.37-.13.75-.27,1.17-.54.19-.13.36-.26.53-.39-1.29-1.79-2.77-3.9-2.86-5.55-.08-1.47.56-1.78,1.21-2.86,1.55-2.57,3.95-3.33,6.24-3.26,1.3.04,2.16.41,3.42.55,1.26-.14,2.12-.51,3.42-.55,2.29-.08,4.69.68,6.24,3.26.65,1.08,1.29,1.39,1.21,2.86-.09,1.65-1.57,3.76-2.86,5.55.17.13.34.27.53.39.42.27.79.41,1.17.54,1.47-1.64,3.16-3.49,4.81-4.01,1.1-.34,2.15.1,4.21.74,2,.59,2.8,1.39,4.1,2.97,1.08,1.28.64,2.91,6.26,3-4.46,2.92-3.6,3.54-3.06,4.85.78,1.93.71,4.19-1.54,6.3-.96.89-1.07,1.53-2.68,1.92-1.56.38-3.78-.03-5.85-.49.3.38.81.85,1.68,1.44-1.32,0-2.11.09-2.59.24,2.07.7,4.28,1.53,5.25,2.68.7.83.55,1.86.53,3.8-.03,1.9-.62,2.82-1.89,4.41-1.05,1.32-2.92,1.45-4.32,2.41-1.42.96-1.82,1.87-3.06,2.73-1.8,1.26-4.21,1.9-7.16.63-1.24-.54-1.96-.45-2.87-1.68-.25-.34-.44-.75-.61-1.19v30.52h.81c1.9-14.27,14.39-22.87,14.58-23,7.61-5.1,19.26-7.24,26.79.17,5.16,5.06,4.69,10.14,3.96,12.72-.92,3.24-3.29,5.93-5.86,6.71-4.05,1.27-8.62.45-11.11-1.98-1.99-1.93-2.35-4.64-.98-7.39,1.16-2.33,2.75-3.72,4.72-4.11,2.86-.57,5.28,1.27,5.38,1.35l-1.86,1.93s-1.45-1.09-2.92-.79c-1.03.21-1.94,1.1-2.71,2.65-.92,1.85-.75,3.44.46,4.63,1.71,1.66,5.12,2.23,8.1,1.3,1.41-.44,3.25-2.27,4.01-4.94.6-2.07.95-6.19-3.31-10.36-7.29-7.18-18.21-3.04-22.96.15-.18.13-11.5,7.92-13.36,20.96h1.82c.68,0,1.02.29,1.02.6,0,.44-1.05.62-1.46,1.08v2.01c.41.46,1.46.63,1.46,1.08,0,.31-.34.62-1.02.62h-2.03c.39,5.83,2.8,12.49,8.59,19.76,17.08,21.49,40.29,26.51,63.7,13.82,8.32-4.52,13.37-12.04,13.88-20.6.43-7.54-2.83-14.43-8.72-18.42-5.93-4-15.36-4.78-21.09,1.55-.17.27-.58,1.07-1.01,2.15,2.59.72,4.27,2.09,4.83,3.47,1.99-.89,4.17-.91,6.28-.02,3.82,1.61,5.15,5.74,4.2,8.8-.74,2.49-3.26,5.03-8.07,4.65-1.75-.15-3.3-.45-4.66-.91-.86,2.1-2.76,3.74-6.45-1.21,0,1.7-4.32,3.98-8.67-1.51-.66.29-4.2,3.26-4.13-1.41.06-4.67-.3-7.08-6.33-8.26-6.87.17-9.47,1.34-11.66,6.84-1.89,5.37-.86,14.25,1.97,18.43,2.75,4.52,9.74,9.45,16.85,6.11,1.88-.89,2.63-2.78,1.68-4.2-.96-1.42-3.29-1.85-5.18-.96-.18-.46-.12-.43-.68-1.19,2.95-1.39,6.2-1.13,7.81,1.24,1.74,2.59.78,5.85-2.18,7.25-8.21,3.88-17.04-1.51-20.47-6.96-3.37-5.36-3.91-14.17-2.34-20.36,1.41-5.5,7.46-9.89,12.47-12.94,7.71-4.67,15.44-7.85,20.03-11.28,2.35-1.74,3.08-4.19,3.58-5.02,1.75-2.98,2.47-5.83,1.46-8.22-1.29-3.03-3.12-3.79-8.67-4.4-8.24-.29-4.94-4.6-3.03-4.97-7.5-1.58-8.42-5.26-6.15-6.73-5.19-4.34-.34-6.79,2.3-6.02,2.6.75,4.33,1.9,7.49,3.93-1.27-6.03,2.67-9.35,6.45-1.55,1.38,1.53,7.11,8.18,8.9,15.92.65,2.77-1.08,8.92-5.35,13.87-.61.7-1.69,2.27-3.84,3.99-7.35,5.83-13.31,7.07-19.27,11.28,2.04-.28,4.04-.33,5.88-.12,6.72.75,10.12,1.1,12.22,1.68.64-1.58,1.25-2.69,1.43-2.86,6.93-7.71,18.11-6.84,25.1-2.11,6.66,4.51,10.35,12.22,9.85,20.61-.54,9.43-6.1,17.66-15.25,22.64-4.94,2.67-9.86,4.6-14.74,5.81,14.84-1.45,26.22-9.49,30.02-12.49,2.49-1.98,4.81-4.32,7.28-6.8,7.75-7.79,16.54-16.65,33.57-16.28,6,.15,10.58,1.27,14.09,3.05l.08-.25c10.33,2.63,12.8,6.69,16.53,12.86,1.94,3.19,4.37,7.17,8.59,11.88,5.07,5.69,13.08,11.72,22.36,8.22l.52-.18c3.06-.81,6.86-4.91,7.33-9.18.24-2.21-.34-5.22-4.53-7.18-2.4-1.12-4.7-1.26-6.45-.4-1.24.62-2.02,1.67-2.14,2.83-.15,1.78,1.92,3.48,2.73,3.97.85.56.54,1.87-.47,1.98l-.76.08c-.26.03-.53-.04-.74-.19-1.02-.72-3.86-2.99-3.59-6.05.17-2.01,1.52-3.83,3.6-4.85,2.58-1.29,5.91-1.16,9.15.36,4.37,2.04,6.52,5.48,6.05,9.68Z"/>
        <path class="cls-1" d="M341.05,84.1c11.13,1.55,12.03,12.19,12.03,12.19-2.23-9.56-12.03-12.19-12.03-12.19Z"/>
        <path class="cls-1" d="M345.28,94.7c.4-7.49-6.21-9.88-6.21-9.88,7.89,1.83,6.21,9.88,6.21,9.88Z"/>
        <path class="cls-1" d="M254.36,83.8c-11.13,1.55-12.03,12.19-12.03,12.19,2.23-9.56,12.03-12.19,12.03-12.19Z"/>
        <path class="cls-1" d="M250.14,94.4c-.4-7.49,6.21-9.88,6.21-9.88-7.89,1.83-6.21,9.88-6.21,9.88Z"/>
      </g>
    </g>
  </g>
</svg>