<svg id="Grupo_5" data-name="Grupo 5" xmlns="http://www.w3.org/2000/svg" xmlns:xlink="http://www.w3.org/1999/xlink" width="83.408" height="72.422" viewBox="0 0 83.408 72.422">
  <defs>
    <clipPath id="clip-path">
      <rect id="Rectángulo_2" data-name="Rectángulo 2" width="83.408" height="72.421" fill="none"/>
    </clipPath>
  </defs>
  <g id="Grupo_4" data-name="Grupo 4">
    <g id="Grupo_3" data-name="Grupo 3" clip-path="url(#clip-path)">
      <path id="Trazado_16" data-name="Trazado 16" d="M44.741,58.934c-.132-1.881-.25-2.786-.257-3.756q-.107-18.8-.216-37.614Q37.237,13.481,30.2,9.393L16.213,17.609q-.043,16.726-.086,33.483c-.009,1.751,0,3.716-.084,5.168a7.982,7.982,0,0,1-.409,2.667,18.779,18.779,0,0,1-.414-3.047c-.039-.355-.046-1.089-.052-1.665q-.177-18.692-.353-37.407Q22.5,12.243,30.2,7.672l15.542,9.046q-.005,6.239-.012,12.484-.027,6.024-.057,12.058c-.032,4.591-.207,9.212-.391,13.555a35.743,35.743,0,0,1-.543,4.118" transform="translate(11.63 6.022)" fill="#606060"/>
      <path id="Trazado_17" data-name="Trazado 17" d="M31.866,21.767c-.148-.559-.314-.787-.362-1.057a5.333,5.333,0,0,0-1.994-3.054,5.136,5.136,0,0,0-3.44-1.023,5.052,5.052,0,0,0-3.24,1.426A5.063,5.063,0,0,0,24.988,26.6a5.1,5.1,0,0,0,5.969-2.767,12.139,12.139,0,0,0,.468-1.333c.134-.328.328-.764.468-.735s.278.58.328.971a1.389,1.389,0,0,1-.059.536,6.122,6.122,0,0,1-1.955,3.281,6.2,6.2,0,0,1-3.6,1.494,6.3,6.3,0,0,1-3.848-.951,6.4,6.4,0,0,1-2.549-3.113,6.452,6.452,0,0,1,9.9-7.474,5.536,5.536,0,0,1,2.144,3.925,2.48,2.48,0,0,1-.393,1.33" transform="translate(15.531 11.943)" fill="#606060"/>
      <path id="Trazado_18" data-name="Trazado 18" d="M23.492,27.225a1.686,1.686,0,0,1-.129-.369c-.123-3.479-.2-6.958-.1-10.444A2.194,2.194,0,0,1,23.3,15.9c.037-.123.139-.273.2-.262s.143.186.209.3a.442.442,0,0,1,.025.164c.166,3.12.33,6.242.22,9.382a7.622,7.622,0,0,1-.195,1.333c-.036.17-.175.268-.271.405" transform="translate(18.225 12.277)" fill="#606060"/>
      <path id="Trazado_19" data-name="Trazado 19" d="M31.775,19.17a1.686,1.686,0,0,1-.369.129c-3.479.123-6.958.2-10.444.1a2.194,2.194,0,0,1-.509-.041c-.123-.037-.273-.139-.262-.2s.186-.143.3-.209a.442.442,0,0,1,.164-.025c3.12-.166,6.242-.33,9.382-.22a7.622,7.622,0,0,1,1.333.195c.17.036.268.175.405.271" transform="translate(15.849 14.654)" fill="#606060"/>
      <path id="Trazado_20" data-name="Trazado 20" d="M20.865,44.613a9.049,9.049,0,0,1-.257-1.289l-.162-9.095-.014-1.142a8.237,8.237,0,0,1,.1-1.244,9.007,9.007,0,0,1,.73-2.347,7.825,7.825,0,0,1,1.392-2.072,4.827,4.827,0,0,1,2.258-1.392,3.72,3.72,0,0,1,2.742.366,6.009,6.009,0,0,1,1.926,1.735,8.761,8.761,0,0,1,1.674,4.645c.021,3.111-.027,6.092-.066,9.146A13.133,13.133,0,0,1,31.1,43.7c-.073.436-.277.953-.407.916-.148-.045-.286-.646-.414-1.046a2.783,2.783,0,0,1-.054-.571l-.237-8.159c-.025-.668-.023-1.392-.07-2.012a7.278,7.278,0,0,0-.409-1.833,6.576,6.576,0,0,0-2.08-3,2.425,2.425,0,0,0-2.97-.148,6.094,6.094,0,0,0-2.1,2.86,7.069,7.069,0,0,0-.446,1.787c-.068.566-.043,1.28-.055,1.96l-.057,4.1a45.862,45.862,0,0,1-.391,4.648,5.064,5.064,0,0,1-.543,1.412" transform="translate(16.039 20.343)" fill="#606060"/>
      <path id="Trazado_21" data-name="Trazado 21" d="M26.908,37.666a15.8,15.8,0,0,1-1.726.257l-11.315.154-5.658.059L.2,38.18,12.8,29.308q5.358-3.743,10.755-7.433a23.205,23.205,0,0,1,1.994-1.292c.519-.275,1.2-.505,1.237-.369.037.154-.544.728-.909,1.142a4.987,4.987,0,0,1-.6.482L14.17,29.983l-5.582,4.05-2.8,2.015-.7.5-.105.077-.009.009-.014.014a.127.127,0,0,0-.025.036l.073-.012L6.6,36.664l4.059,0q4.059.011,8.127.07c2.11.032,4.232.207,6.228.391a8.3,8.3,0,0,1,1.892.543" transform="translate(0.156 15.836)" fill="#606060"/>
      <path id="Trazado_22" data-name="Trazado 22" d="M4.23,41.484c-.132-.186-.25-.275-.257-.371a84.676,84.676,0,0,1-.209-10.491,1.145,1.145,0,0,1,.086-.511.568.568,0,0,1,.407-.264c.148.013.286.186.414.3a.27.27,0,0,1,.054.164,54.22,54.22,0,0,1,.439,9.425,4.276,4.276,0,0,1-.391,1.339c-.073.17-.35.27-.543.407" transform="translate(2.889 23.429)" fill="#606060"/>
      <path id="Trazado_23" data-name="Trazado 23" d="M31.765,37.056a15.808,15.808,0,0,1,1.726-.257l20.285-.257L53.7,36.5l-.025-.012-.659-.455-2.681-1.864-5.355-3.745q-5.344-3.757-10.66-7.568a23.679,23.679,0,0,1-1.9-1.432c-.434-.394-.885-.959-.769-1.037.132-.089.871.262,1.385.464a4.8,4.8,0,0,1,.655.394q5.725,3.832,11.454,7.663l5.712,3.863,2.851,1.942,4.8,3.324q-5.243.011-10.5.023-4.059-.011-8.127-.07c-2.11-.032-4.232-.207-6.228-.391a8.3,8.3,0,0,1-1.892-.543" transform="translate(24.833 15.992)" fill="#606060"/>
      <path id="Trazado_24" data-name="Trazado 24" d="M42.869,41.484c-.132-.186-.25-.275-.257-.371A84.673,84.673,0,0,1,42.4,30.622a1.145,1.145,0,0,1,.086-.511.568.568,0,0,1,.407-.264c.148.013.286.186.414.3a.27.27,0,0,1,.054.164,54.221,54.221,0,0,1,.439,9.425,4.276,4.276,0,0,1-.391,1.339c-.073.17-.35.27-.543.407" transform="translate(33.221 23.429)" fill="#606060"/>
      <path id="Trazado_25" data-name="Trazado 25" d="M82.9,42.02c-.125-2.385-.191-3.613-.253-4.832l-.109,0-81.052.273.007,3.793,34.583-.007,35.37.079c2.61.009,5.537,0,7.7.084a17.245,17.245,0,0,1,3.973.409,41.006,41.006,0,0,1-4.541.414c-.527.039-1.623.046-2.479.052L.02,42.731Q.009,39.355,0,35.978l31.389-.048q15.345.035,30.724.071c6.84.03,13.723.205,20.194.389l1.1.034c-.014.359-.03.7-.045,1.032-.018.245-.036.478-.054.709-.046.452-.089.878-.13,1.3-.093.835-.195,1.64-.28,2.558" transform="translate(0 28.205)" fill="#606060"/>
      <path id="Trazado_26" data-name="Trazado 26" d="M18.242,18.807a5.659,5.659,0,0,1-.728.739l-1.5.955L14.05,21.733l-2.661-3.788,5.146-3.17,4.584-2.786q4.6-2.763,9.259-5.428a8.139,8.139,0,0,1,1.232-.637c.33-.109.78-.143.823-.014.046.145-.287.5-.489.773a1.669,1.669,0,0,1-.355.273C28.477,8.979,25.364,11,22.226,12.991Q19.87,14.48,17.492,15.94L15.1,17.384l-1.2.714-.5.289-.014,0a.04.04,0,0,0,0,.016l.434.662.441.677.111.171c.045.07.014.027.027.048l.012.037.009.02h.041c.03-.007-.009.029.17-.064l.794-.375c.532-.239,1.066-.461,1.585-.671a3.461,3.461,0,0,1,1.225-.1" transform="translate(8.94 4.573)" fill="#606060"/>
      <path id="Trazado_27" data-name="Trazado 27" d="M38.513,18.25a5.445,5.445,0,0,1,.985.293l1.549.88.775.441.216.107.068-.2.257-.63.295-.71.039-.1.011-.034.018-.064-.109-.05-.571-.325L40.882,17.2l-2.324-1.341-4.634-2.711Q29.3,10.411,24.738,7.57A7.9,7.9,0,0,1,23.6,6.8c-.25-.236-.489-.614-.4-.712s.575.011.907.059a1.631,1.631,0,0,1,.405.18C27.78,8.1,31.043,9.875,34.284,11.7q2.431,1.363,4.845,2.767l2.406,1.417,2.972,1.79q-.892,1.963-1.789,3.931l-.095.209-1.412-.91-.707-.53c-.461-.359-.907-.728-1.337-1.091a3.419,3.419,0,0,1-.655-1.028" transform="translate(18.202 4.74)" fill="#606060"/>
      <path id="Trazado_28" data-name="Trazado 28" d="M23.971,11.769a9.45,9.45,0,0,1-.257-1.319l-.025-1.273-.012-.544-.011-.2-.157.009-.075.005-.212,0-.978.018L19.687,8.5,19.63,3.509l2.613-.027.978-.012.2,0,.023,0,.041-.005-.005-.039,0-.018a.492.492,0,0,1,0-.084l-.009-.85L23.455.025,28.7,0l.009,3.392,3.906,0-.021,5.257-2.706-.018-.976-.011-.2,0-.021,0-.045-.005-.009.046a.457.457,0,0,0,0,.066l0,.273a13.778,13.778,0,0,1-.086,1.815c-.073.444-.277.975-.407.937-.148-.045-.286-.662-.414-1.071a2.918,2.918,0,0,1-.054-.584L27.6,7.57l2.287-.057.976-.027.33-.014.2-.014-.012-.205-.012-.284-.025-.934L31.322,5.1a2.513,2.513,0,0,0-.012-.253L31.3,4.712l-.152.011-.07.007-.211.005-.978.023L27.3,4.8l-.034-2.335-.016-.851c0-.1,0-.075,0-.087l0-.023-.007-.039-.05.007c-.032,0,.036.005-.184.007l-.934.014-.934.011c-.221,0-.146,0-.168.007l-.014,0,0,.018,0,.005c0,.009,0-.025,0,.077l.007.85.009,2.476-3.913,0c-.005-.625-.018,2.794-.037,2.229a.362.362,0,0,0,.052.012l.784.014c.391.007.784.023,1.173.046l1.742.086c-.02.362-.037.723-.057,1.082l-.016.255-.014.157-.034.305c-.046.4-.091.8-.137,1.2a5.271,5.271,0,0,1-.543,1.446" transform="translate(15.41 -0.001)" fill="#606060"/>
      <path id="Trazado_29" data-name="Trazado 29" d="M16.178,28.794c-.089.066-.132.125-.177.129a38.033,38.033,0,0,1-5,.1.521.521,0,0,1-.243-.041.289.289,0,0,1-.125-.2c.005-.075.087-.143.143-.209a.115.115,0,0,1,.079-.025,24.412,24.412,0,0,1,4.493-.22,1.935,1.935,0,0,1,.637.195c.082.036.129.175.195.271" transform="translate(8.346 22.209)" fill="#606060"/>
      <path id="Trazado_30" data-name="Trazado 30" d="M12.724,27.21c.066.037.125.055.129.073a6.71,6.71,0,0,1,.1,2.092c0,.034,0,.073-.041.1a.433.433,0,0,1-.2.052.661.661,0,0,1-.207-.059.036.036,0,0,1-.027-.034,4.38,4.38,0,0,1-.22-1.878.567.567,0,0,1,.195-.268,1.089,1.089,0,0,1,.271-.08" transform="translate(9.594 21.36)" fill="#606060"/>
      <path id="Trazado_31" data-name="Trazado 31" d="M11.592,24.1c.061-.066.091-.125.121-.129a18.192,18.192,0,0,1,3.456-.1.263.263,0,0,1,.168.041.327.327,0,0,1,.087.2.5.5,0,0,1-.1.209.062.062,0,0,1-.054.025,11.726,11.726,0,0,1-3.1.22,1.048,1.048,0,0,1-.441-.195c-.055-.036-.087-.175-.134-.271" transform="translate(9.1 18.704)" fill="#606060"/>
      <path id="Trazado_32" data-name="Trazado 32" d="M12.547,26.366c-.066-.037-.125-.055-.129-.073a6.71,6.71,0,0,1-.1-2.092c0-.034,0-.073.041-.1a.433.433,0,0,1,.2-.052.685.685,0,0,1,.209.059.037.037,0,0,1,.025.034,4.38,4.38,0,0,1,.22,1.878.567.567,0,0,1-.195.268,1.089,1.089,0,0,1-.271.08" transform="translate(9.633 18.876)" fill="#606060"/>
      <path id="Trazado_33" data-name="Trazado 33" d="M9.738,28.992c-.061.066-.091.125-.121.129a18.192,18.192,0,0,1-3.456.1.263.263,0,0,1-.168-.041.327.327,0,0,1-.087-.2.486.486,0,0,1,.1-.207.059.059,0,0,1,.054-.027,11.727,11.727,0,0,1,3.1-.22,1.071,1.071,0,0,1,.441.195c.055.036.087.175.134.271" transform="translate(4.636 22.364)" fill="#606060"/>
      <path id="Trazado_34" data-name="Trazado 34" d="M7.44,27.86c.066.025.125.036.129.048a2.889,2.889,0,0,1,.1,1.364c0,.023,0,.048-.041.066a.694.694,0,0,1-.2.036,1.039,1.039,0,0,1-.207-.039c-.021-.005-.025-.014-.027-.021a1.947,1.947,0,0,1-.22-1.226c.014-.059.1-.118.195-.173a1.464,1.464,0,0,1,.271-.054" transform="translate(5.446 21.87)" fill="#606060"/>
      <path id="Trazado_35" data-name="Trazado 35" d="M36.1,28.992c-.061.066-.091.125-.121.129a18.192,18.192,0,0,1-3.456.1.263.263,0,0,1-.168-.041.327.327,0,0,1-.087-.2.486.486,0,0,1,.1-.207.061.061,0,0,1,.054-.027,11.727,11.727,0,0,1,3.1-.22,1.071,1.071,0,0,1,.441.195c.055.036.089.175.134.271" transform="translate(25.328 22.364)" fill="#606060"/>
      <path id="Trazado_36" data-name="Trazado 36" d="M33.8,27.86c.066.025.125.036.129.048a2.889,2.889,0,0,1,.1,1.364c0,.023,0,.048-.041.066a.694.694,0,0,1-.2.036,1.083,1.083,0,0,1-.209-.039c-.02-.005-.023-.014-.025-.021a1.947,1.947,0,0,1-.22-1.226c.014-.059.1-.118.195-.173a1.465,1.465,0,0,1,.271-.054" transform="translate(26.138 21.87)" fill="#606060"/>
      <path id="Trazado_37" data-name="Trazado 37" d="M32.441,23.454c.061-.066.091-.125.121-.129a18.192,18.192,0,0,1,3.456-.1.263.263,0,0,1,.168.041.327.327,0,0,1,.087.2.5.5,0,0,1-.1.209.062.062,0,0,1-.054.025,11.727,11.727,0,0,1-3.1.22,1.048,1.048,0,0,1-.441-.195c-.055-.036-.089-.175-.134-.271" transform="translate(25.467 18.195)" fill="#606060"/>
      <path id="Trazado_38" data-name="Trazado 38" d="M33.4,25.716c-.068-.037-.127-.055-.13-.073a6.656,6.656,0,0,1-.1-2.092.114.114,0,0,1,.039-.1.435.435,0,0,1,.205-.052.65.65,0,0,1,.205.059.036.036,0,0,1,.027.034,4.353,4.353,0,0,1,.22,1.878.555.555,0,0,1-.195.268,1.071,1.071,0,0,1-.27.08" transform="translate(26 18.366)" fill="#606060"/>
      <path id="Trazado_39" data-name="Trazado 39" d="M13.885,26.651c-.089.066-.132.125-.177.129a38.032,38.032,0,0,1-5,.1.521.521,0,0,1-.243-.041.289.289,0,0,1-.125-.2c.005-.075.087-.143.143-.207A.108.108,0,0,1,8.56,26.4a24.413,24.413,0,0,1,4.493-.22,1.934,1.934,0,0,1,.637.195c.082.036.129.175.195.271" transform="translate(6.546 20.527)" fill="#606060"/>
      <path id="Trazado_40" data-name="Trazado 40" d="M42.028,28.794c-.089.066-.132.125-.177.129a38.033,38.033,0,0,1-5,.1.521.521,0,0,1-.243-.041.283.283,0,0,1-.125-.2c.005-.075.087-.143.143-.209a.115.115,0,0,1,.079-.025,24.412,24.412,0,0,1,4.493-.22,1.935,1.935,0,0,1,.637.195c.082.036.129.175.195.271" transform="translate(28.639 22.209)" fill="#606060"/>
      <path id="Trazado_41" data-name="Trazado 41" d="M38.574,27.21c.066.037.125.055.129.073a6.71,6.71,0,0,1,.1,2.092c0,.034,0,.073-.041.1a.433.433,0,0,1-.2.052.686.686,0,0,1-.209-.059.037.037,0,0,1-.025-.034,4.38,4.38,0,0,1-.22-1.878.567.567,0,0,1,.195-.268,1.089,1.089,0,0,1,.271-.08" transform="translate(29.887 21.36)" fill="#606060"/>
      <path id="Trazado_42" data-name="Trazado 42" d="M38.677,26.651c-.089.066-.132.125-.177.129a38.032,38.032,0,0,1-5,.1.521.521,0,0,1-.243-.041.289.289,0,0,1-.125-.2c.005-.075.087-.143.143-.207a.108.108,0,0,1,.079-.027,24.412,24.412,0,0,1,4.493-.22,1.934,1.934,0,0,1,.637.195c.082.036.129.175.195.271" transform="translate(26.008 20.527)" fill="#606060"/>
      <path id="Trazado_43" data-name="Trazado 43" d="M16.619,36.04a4.777,4.777,0,0,1-.121-.684c-.062-6.421-.079-12.845.077-19.276a7.248,7.248,0,0,1,.052-.937c.039-.23.143-.5.207-.484s.139.345.2.557a1.58,1.58,0,0,1,.023.3c.111,5.76.221,11.524.055,17.318-.023.834-.118,1.671-.218,2.46a2.751,2.751,0,0,1-.278.744" transform="translate(12.916 11.507)" fill="#606060"/>
      <path id="Trazado_44" data-name="Trazado 44" d="M47.572,29.53a3.674,3.674,0,0,1-.543-.212c-4.489-2.9-8.955-5.846-13.332-8.934a5.3,5.3,0,0,1-.623-.473c-.137-.139-.27-.352-.22-.4s.316.043.5.087a1.069,1.069,0,0,1,.223.12c4.059,2.56,8.12,5.119,12.049,7.922a17.479,17.479,0,0,1,1.585,1.312,2.069,2.069,0,0,1,.362.575" transform="translate(25.783 15.307)" fill="#606060"/>
      <path id="Trazado_45" data-name="Trazado 45" d="M12.457,13.288a2,2,0,0,1,.295-.325c3.325-2.128,6.678-4.216,10.121-6.16a2.694,2.694,0,0,1,.518-.259c.139-.041.336-.039.359.023s-.107.228-.186.352a.576.576,0,0,1-.146.118c-2.956,1.955-5.912,3.911-9.027,5.641a9.71,9.71,0,0,1-1.4.609,1.377,1.377,0,0,1-.534,0" transform="translate(9.779 5.115)" fill="#606060"/>
      <path id="Trazado_46" data-name="Trazado 46" d="M29.678,37.657a8.234,8.234,0,0,1-.878.129c-8.266.123-16.538.2-24.821.1-.411,0-.869,0-1.208-.041-.3-.037-.65-.139-.625-.2s.441-.143.714-.207a2.162,2.162,0,0,1,.389-.027c7.417-.166,14.835-.33,22.3-.22,1.075.014,2.155.1,3.17.195a4.237,4.237,0,0,1,.962.271" transform="translate(1.683 29.166)" fill="#606060"/>
      <path id="Trazado_47" data-name="Trazado 47" d="M23.256,40.32a8.631,8.631,0,0,1,.907-.121c8.522-.062,17.045-.079,25.583.077.423.007.894.007,1.244.052.307.039.668.143.643.207s-.455.139-.737.2a2.778,2.778,0,0,1-.4.023c-7.645.111-15.292.221-22.984.055-1.1-.023-2.219-.118-3.265-.218a4.448,4.448,0,0,1-.989-.278" transform="translate(18.256 31.521)" fill="#606060"/>
      <path id="Trazado_48" data-name="Trazado 48" d="M25.233,25.536c.077-.107.1-.182.155-.209a9.963,9.963,0,0,0,4.307-4.4.885.885,0,0,1,.155-.266.3.3,0,0,1,.253-.073c.064.034.087.157.12.248a.18.18,0,0,1-.014.107,7.625,7.625,0,0,1-3.788,4.529,2.368,2.368,0,0,1-.853.209c-.112.009-.223-.093-.336-.148" transform="translate(19.808 16.157)" fill="#606060"/>
    </g>
  </g>
</svg>
