<svg id="Grupo_23" data-name="Grupo 23" xmlns="http://www.w3.org/2000/svg" xmlns:xlink="http://www.w3.org/1999/xlink" width="57.41" height="40.137" viewBox="0 0 57.41 40.137">
  <defs>
    <clipPath id="clip-path">
      <rect id="Rectángulo_9" data-name="Rectángulo 9" width="57.41" height="40.137" fill="#1c0b0b"/>
    </clipPath>
  </defs>
  <g id="Grupo_22" data-name="Grupo 22" clip-path="url(#clip-path)">
    <path id="Trazado_68" data-name="Trazado 68" d="M169.688,15.387c-.74,1.259-1.52,2.5-2.183,3.8a19,19,0,0,0-1.5,4.058,57.91,57.91,0,0,0-1.161,9.138,16.71,16.71,0,0,1-.77,4.412,19.7,19.7,0,0,1-2.037,3.707,17.235,17.235,0,0,1-1.295,1.8,4.544,4.544,0,0,1-1.112,1.088c-1.266.721-1.326-2.109-1.247-2.751.187-1.5,1.3-2.617,1.919-3.944a9.972,9.972,0,0,0,1.188-4.437c-.009-.246-.387-.055-.379.151a6.6,6.6,0,0,1-.426,2.384,14.6,14.6,0,0,1-.871,2.119,12.947,12.947,0,0,0-1.762,3.479,5.434,5.434,0,0,0-.024,1.867,2.34,2.34,0,0,0,.662,1.465c.814.641,1.8-.606,2.253-1.145a27.7,27.7,0,0,0,2.471-3.683,11.224,11.224,0,0,0,1.5-3.853,48.912,48.912,0,0,0,.477-4.881c.121-1.634.283-3.261.562-4.877a21.254,21.254,0,0,1,1.5-5.2A49.688,49.688,0,0,1,170,15.527c.142-.242-.183-.355-.309-.14" transform="translate(-112.623 -10.89)" fill="#1c0b0b"/>
    <path id="Trazado_69" data-name="Trazado 69" d="M139.12,78.329a13.64,13.64,0,0,1-2.022,1.082,7.485,7.485,0,0,0-1.8,1.24,14.917,14.917,0,0,0-3.042,3.571,18.4,18.4,0,0,0-1.745,4.271c-.4,1.512-.335,3.091-.734,4.606a5.189,5.189,0,0,1-1.03,2.1.953.953,0,0,1-.453.348c-.17.034-.233-.085-.319-.215a2.827,2.827,0,0,1-.383-.82c-.063-.245-.431-.052-.379.151.1.37.336,1.061.71,1.243.466.227.973-.351,1.215-.667a8.29,8.29,0,0,0,1.369-4.252c.04-.379.056-.761.1-1.141a9.1,9.1,0,0,1,.3-1.432,15.857,15.857,0,0,1,.838-2.371,17.294,17.294,0,0,1,1.2-2.3,11.877,11.877,0,0,1,1.642-1.922,9.843,9.843,0,0,1,2.361-1.947,18,18,0,0,0,2.327-1.238c.2-.144.079-.47-.15-.3" transform="translate(-90.704 -55.817)" fill="#1c0b0b"/>
    <path id="Trazado_70" data-name="Trazado 70" d="M124.777,90.476a10.024,10.024,0,0,1-.753,1.817,3.193,3.193,0,0,0-.308.671,2.626,2.626,0,0,0-.023.795c.037.668.037,1.338.073,2.007.04.744.082,1.489.052,2.234a21.535,21.535,0,0,1-.354,3.707,3.12,3.12,0,0,1-.476,1.218c-.245.322-.668.453-.906.057a3.736,3.736,0,0,1-.333-1.243A11.008,11.008,0,0,1,121.5,99.8c0-.269-.383-.159-.38.056a10.045,10.045,0,0,0,.231,1.917,8.367,8.367,0,0,0,.264,1.181c.125.345.349.67.75.668a1.2,1.2,0,0,0,.935-.559,6.114,6.114,0,0,0,.767-2.965,32.995,32.995,0,0,0,.066-4.761c-.023-.454-.027-.908-.04-1.362a2.552,2.552,0,0,1,.109-1.293,12.892,12.892,0,0,0,.934-2.164c.079-.269-.292-.262-.357-.042" transform="translate(-86.358 -64.394)" fill="#1c0b0b"/>
    <path id="Trazado_71" data-name="Trazado 71" d="M132.115,91.827a3.319,3.319,0,0,0-.424.792c-.141.329-.337.633-.5.954-.314.638-.525,1.325-.871,1.948-.136.245.188.358.31.139.333-.6.543-1.253.834-1.871.148-.315.333-.61.485-.923a4.124,4.124,0,0,1,.4-.809c.059-.073.112-.191.03-.27a.2.2,0,0,0-.269.04" transform="translate(-92.9 -65.418)" fill="#1c0b0b"/>
    <path id="Trazado_72" data-name="Trazado 72" d="M115.7,73.647c-.46,1.41-2.142,2.388-1.747,4.04a43.76,43.76,0,0,1,1.29,5.15,3.169,3.169,0,0,1-.1,1.7.435.435,0,0,1-.555.224c-.354-.125-.6-.761-.752-1.073-.25-.509-.435-1.047-.684-1.556-.239-.489-.519-.959-.721-1.465a10.735,10.735,0,0,1-.7-3.464,15.354,15.354,0,0,1,.364-4.089c.156-.654.367-1.293.56-1.936a6.248,6.248,0,0,1,.438-1.512c.148-.24-.179-.351-.309-.14a4.585,4.585,0,0,0-.4,1.308c-.159.605-.37,1.2-.536,1.8a16.069,16.069,0,0,0-.5,3.727,12.618,12.618,0,0,0,.485,3.757,26.36,26.36,0,0,0,1.414,3.271,7.279,7.279,0,0,0,.712,1.372.843.843,0,0,0,.8.4c.541-.057.788-.564.871-1.045a5.9,5.9,0,0,0-.07-1.892,21.593,21.593,0,0,0-.59-2.522c-.2-.709-.441-1.411-.625-2.125a1.939,1.939,0,0,1,.2-1.46,15.048,15.048,0,0,0,1.512-2.435c.087-.267-.286-.259-.357-.042" transform="translate(-79.385 -49.495)" fill="#1c0b0b"/>
    <path id="Trazado_73" data-name="Trazado 73" d="M108.661,69.456a5.708,5.708,0,0,1-1.6,1.019,9.113,9.113,0,0,1-1.392.806c-.213.081-.208.455.055.355a9.734,9.734,0,0,0,1.488-.857,5.991,5.991,0,0,0,1.689-1.093c.061-.073.11-.191.03-.27a.2.2,0,0,0-.269.04" transform="translate(-75.234 -49.467)" fill="#1c0b0b"/>
    <path id="Trazado_74" data-name="Trazado 74" d="M94.939,74.827a6.137,6.137,0,0,0-.03,3.79,2.7,2.7,0,0,0,.874,1.158c.311.234.738.463,1.067.135.191-.19-.048-.42-.238-.23-.152.151-.667-.319-.771-.421a2.546,2.546,0,0,1-.685-1.208A6.307,6.307,0,0,1,95.3,74.87c.077-.27-.294-.263-.357-.042" transform="translate(-67.465 -53.236)" fill="#1c0b0b"/>
    <path id="Trazado_75" data-name="Trazado 75" d="M101.905,20.648a5.969,5.969,0,0,0,.961-.765c.361-.327.748-.614,1.138-.906.755-.564,1.525-1.1,2.307-1.629,1.51-1.016,2.953-2.112,4.416-3.191a46.1,46.1,0,0,0,7.842-6.649,35.2,35.2,0,0,0,3.593-5.115c.143-.242-.183-.354-.309-.14a36.7,36.7,0,0,1-3.213,4.658A26.785,26.785,0,0,1,114.98,10.5c-1.314,1.086-2.69,2.093-4.062,3.1-1.433,1.054-2.837,2.144-4.311,3.141-.855.578-1.709,1.153-2.537,1.769-.394.293-.8.577-1.172.9a7.959,7.959,0,0,1-1.143.931c-.216.126-.092.446.15.3" transform="translate(-72.473 -1.526)" fill="#1c0b0b"/>
    <path id="Trazado_76" data-name="Trazado 76" d="M136.276,42.649a45.883,45.883,0,0,0,4.962-2.345,14.378,14.378,0,0,0,3.559-3.75c.17-.225-.162-.334-.309-.139a13.6,13.6,0,0,1-3.507,3.652,48.67,48.67,0,0,1-4.759,2.227c-.2.1-.2.476.055.355" transform="translate(-97.024 -25.892)" fill="#1c0b0b"/>
    <path id="Trazado_77" data-name="Trazado 77" d="M161.759,43.77a23.97,23.97,0,0,0-3.405,3.583,8.828,8.828,0,0,0-1.226,2.07c-.306.787-.481,1.618-.8,2.4-.105.261.272.252.357.042.293-.726.466-1.49.731-2.225a8.346,8.346,0,0,1,1.245-2.151A23.448,23.448,0,0,1,162,44c.2-.179-.039-.406-.238-.23" transform="translate(-111.452 -31.163)" fill="#1c0b0b"/>
    <path id="Trazado_78" data-name="Trazado 78" d="M32.971.361A19.19,19.19,0,0,1,34.413,2.4a11.428,11.428,0,0,0,1.222,1.92c1.17,1.37,2.378,2.712,3.594,4.041,1.2,1.306,2.443,2.592,3.735,3.8,1.172,1.1,2.69,1.729,3.9,2.787.3.265.616.523.908.8.311.294.59.62.909.906a5.819,5.819,0,0,0,1.89,1.022,4.385,4.385,0,0,1,1.86,1.117,4.6,4.6,0,0,1,.862,2.012c.179.779.348,1.557.55,2.33a13.541,13.541,0,0,1,.488,2.558c.022.356.124,1.755-.567,1.44-.455-.207-.7-.839-.861-1.277-.254-.705-.337-1.469-.528-2.193a5.678,5.678,0,0,0-1.027-2.215,9.5,9.5,0,0,0-1.911-1.449c-.193-.138-.409-.246-.614-.363-.149-.085-.622-.277-.675-.455-.071-.242-.438-.049-.379.151.114.386.756.621,1.071.8.245.139.459.3.691.463.343.234.7.442,1.031.7,1.37,1.079,1.446,2.9,1.879,4.457.181.648.854,2.305,1.806,1.712.485-.3.483-1.079.476-1.576a10.956,10.956,0,0,0-.4-2.512c-.211-.836-.42-1.668-.6-2.51a5.985,5.985,0,0,0-.74-2.053c-.927-1.4-2.709-1.367-3.908-2.39-.31-.265-.579-.572-.868-.858-.329-.327-.69-.623-1.039-.928A15.291,15.291,0,0,0,45.135,13.2,11.326,11.326,0,0,1,43.1,11.7q-1.051-1.041-2.1-2.089c-1.544-1.557-2.985-3.218-4.431-4.866-.312-.356-.635-.7-.926-1.078a8.061,8.061,0,0,1-.766-1.281A17.244,17.244,0,0,0,33.27.051c-.129-.171-.431.133-.3.31" transform="translate(-23.485 -0.001)" fill="#1c0b0b"/>
    <path id="Trazado_79" data-name="Trazado 79" d="M0,8.871a4.571,4.571,0,0,0,.827,1.991c.424.683.813,1.382,1.211,2.079A15.685,15.685,0,0,1,3.26,15.36c.3.838.5,1.71.728,2.569a25.8,25.8,0,0,1,.646,2.645,15.921,15.921,0,0,1,.142,2.811c-.016.914-.012,1.833-.056,2.746-.043.887-.206,1.787-.188,2.675a4.653,4.653,0,0,0,.729,2.1,20.536,20.536,0,0,1,1.062,2.214c.627,1.543,1.343,3.03,2.086,4.519a2.994,2.994,0,0,0,1.084,1.312c.29.182.7.48,1.056.311.669-.319.668-1.548.7-2.159a13.247,13.247,0,0,0-.257-3.583,20.675,20.675,0,0,0-.938-2.491A13.312,13.312,0,0,0,8.965,28.4c-.125-.2-.464.059-.352.237a9.927,9.927,0,0,1,.922,2.156c.251.738.628,1.42.876,2.156a10.761,10.761,0,0,1,.473,3.442,12.418,12.418,0,0,1-.059,1.311,2.313,2.313,0,0,1-.281,1.13c-.205.254-.7-.162-.9-.292A3.433,3.433,0,0,1,8.568,37c-.311-.672-.678-1.313-.994-1.982-.358-.758-.657-1.542-.976-2.318a20.516,20.516,0,0,0-1.015-2.082,4.016,4.016,0,0,1-.663-2.156c.054-.864.156-1.723.189-2.588.032-.845.032-1.694.047-2.54a18.284,18.284,0,0,0-.087-2.5A17.27,17.27,0,0,0,4.511,18.3c-.243-.882-.451-1.776-.723-2.65a12.378,12.378,0,0,0-1.1-2.42c-.439-.776-.859-1.566-1.333-2.321a5.067,5.067,0,0,1-.98-2.193C.361,8.472-.015,8.664,0,8.871" transform="translate(0 -6.134)" fill="#1c0b0b"/>
    <path id="Trazado_80" data-name="Trazado 80" d="M27.162,75.58q1.225.933,2.495,1.805c.809.553,1.661,1.043,2.466,1.6a13.342,13.342,0,0,1,1.087.87c.368.316.774.608,1.119.948a4.363,4.363,0,0,1,1.034,2.209,25.9,25.9,0,0,0,.913,2.83,19.139,19.139,0,0,1,.794,2.822,11.547,11.547,0,0,0,.695,2.573,10.142,10.142,0,0,0,.653,1.113c.138.224.246.473.4.689a.961.961,0,0,0,1.162.135,1.31,1.31,0,0,0,.526-1.738c-.1-.211-.441.045-.352.237a.947.947,0,0,1-.066,1,.787.787,0,0,1-.792.21c-.105-.039-.14-.1-.2-.2-.164-.276-.312-.558-.488-.827a6.806,6.806,0,0,1-.945-2.284c-.191-.845-.316-1.7-.558-2.537s-.554-1.628-.84-2.439-.463-1.659-.719-2.485a3.708,3.708,0,0,0-1.079-1.769c-.632-.542-1.266-1.11-1.942-1.6-.827-.6-1.726-1.1-2.568-1.673s-1.678-1.183-2.495-1.805c-.175-.134-.472.178-.3.31" transform="translate(-19.33 -53.645)" fill="#1c0b0b"/>
    <path id="Trazado_81" data-name="Trazado 81" d="M63.284,94.334c.525,2.554,1.048,5.112,1.778,7.617.174.6.372,1.183.522,1.785a7.328,7.328,0,0,0,.429,1.547c.374.732,1.135.289,1.5-.2a3.15,3.15,0,0,0,.532-1.289,2.989,2.989,0,0,0,.024-1.5c-.067-.216-.414.038-.352.238a3.014,3.014,0,0,1-.117,1.584c-.112.408-.351.989-.787,1.149-.532.195-.642-.82-.722-1.147-.155-.628-.329-1.243-.517-1.862-.8-2.651-1.359-5.368-1.916-8.079-.051-.247-.421-.054-.379.151" transform="translate(-45.12 -67.07)" fill="#1c0b0b"/>
    <path id="Trazado_82" data-name="Trazado 82" d="M73.365,76.58c.232.5.448,1,.656,1.511a11.265,11.265,0,0,1,.615,1.607,4.826,4.826,0,0,1-.031,1.644c-.059.545-.088,1.093-.194,1.632-.11.558-.273,1.116-.435,1.661a9.9,9.9,0,0,0-.419,1.141,1.839,1.839,0,0,0,.452,1.477c.49.453.987-.214,1.28-.56a6.832,6.832,0,0,0,1.2-1.91,26.932,26.932,0,0,0,.88-2.873,11.563,11.563,0,0,0,.476-3,6.368,6.368,0,0,0-.174-1.582,16.258,16.258,0,0,0-.589-1.665c-.195-.527-.349-1.06-.594-1.568a9.389,9.389,0,0,1-.719-1.794c-.061-.245-.429-.052-.379.151.229.917.731,1.709,1.046,2.592a17.748,17.748,0,0,1,.936,2.81,12.445,12.445,0,0,1-.8,5.575,7.689,7.689,0,0,1-.987,2.354c-.206.287-.433.559-.664.826-.191.221-.417.585-.683.258a1.654,1.654,0,0,1-.284-.677,1.555,1.555,0,0,1,.181-1.01,10.232,10.232,0,0,0,.721-2.672c.076-.542.108-1.09.176-1.634a3.675,3.675,0,0,0-.053-1.457,13.716,13.716,0,0,0-.558-1.441c-.223-.552-.455-1.1-.707-1.638-.1-.211-.441.045-.352.237" transform="translate(-52.3 -51.473)" fill="#1c0b0b"/>
    <path id="Trazado_83" data-name="Trazado 83" d="M71.308,89.522c.305.849.656,1.69.988,2.529a11.335,11.335,0,0,1,.335,1.433,6,6,0,0,1,.307,1.348c0,.245.382.054.379-.151A6.409,6.409,0,0,0,73,93.291a13.632,13.632,0,0,0-.317-1.386c-.315-.882-.706-1.738-1.023-2.62-.077-.215-.423.039-.352.237" transform="translate(-50.837 -63.602)" fill="#1c0b0b"/>
    <path id="Trazado_84" data-name="Trazado 84" d="M69.171,85.55a5.127,5.127,0,0,1-1.8,1.766.229.229,0,0,0-.1.271c.05.1.173.083.251.033A5.619,5.619,0,0,0,69.48,85.69c.046-.081.058-.2-.042-.25a.229.229,0,0,0-.267.11" transform="translate(-47.951 -60.91)" fill="#1c0b0b"/>
    <path id="Trazado_85" data-name="Trazado 85" d="M81.71,66.778c-.09.113-.173.23-.257.348-.045.064-.09.128-.136.191l-.055.075-.029.039c-.027.037.031-.038,0,0-.133.169-.258.344-.379.522-.055.081-.107.164-.166.243a.741.741,0,0,0-.146.25c-.024.092,0,.2.109.213a.251.251,0,0,0,.247-.17.155.155,0,0,1,.039-.075c.024-.033.05-.064.074-.1.056-.077.106-.158.16-.236.107-.158.217-.314.335-.464.083-.106.16-.216.237-.325l.123-.174.056-.077c.01-.013.07-.09.025-.034.058-.073.113-.191.03-.27a.2.2,0,0,0-.268.04" transform="translate(-57.422 -47.558)" fill="#1c0b0b"/>
    <path id="Trazado_86" data-name="Trazado 86" d="M114.173,76.416a10.851,10.851,0,0,1,.585.963c.2.325.457.618.676.933a3.737,3.737,0,0,0,.757.907,6.616,6.616,0,0,0,.92.455c.186.1.433-.25.225-.36a4.92,4.92,0,0,1-.9-.451,4.488,4.488,0,0,1-.742-.928c-.207-.3-.447-.571-.633-.882a9.141,9.141,0,0,0-.584-.946c-.132-.17-.434.135-.3.31" transform="translate(-81.383 -54.229)" fill="#1c0b0b"/>
    <path id="Trazado_87" data-name="Trazado 87" d="M112.95,80.517a6.8,6.8,0,0,0,1.317,2.1,2.665,2.665,0,0,0,.688.659,1.034,1.034,0,0,0,.91.136.254.254,0,0,0,.162-.253.15.15,0,0,0-.217-.1c-.232.1-.537-.07-.724-.2a3.293,3.293,0,0,1-.611-.659A6.282,6.282,0,0,1,113.3,80.28c-.035-.1-.183-.078-.251-.034a.233.233,0,0,0-.1.271" transform="translate(-80.526 -57.189)" fill="#1c0b0b"/>
  </g>
</svg>
