<?xml version="1.0" encoding="UTF-8"?>
<svg id="Capa_2" data-name="Capa 2" xmlns="http://www.w3.org/2000/svg" xmlns:xlink="http://www.w3.org/1999/xlink" viewBox="0 0 1342.86 992.79">
  <defs>
    <style>
      .cls-1 {
        fill: none;
      }

      .cls-2 {
        clip-path: url(#clippath-1);
      }

      .cls-3 {
        isolation: isolate;
      }

      .cls-4 {
        fill: #f9d4ef;
      }

      .cls-5 {
        clip-path: url(#clippath-2);
      }

      .cls-6 {
        clip-path: url(#clippath);
      }

      .cls-7 {
        fill: #707070;
      }

      .cls-8 {
        opacity: .35;
      }
    </style>
    <clipPath id="clippath">
      <rect class="cls-1" x="175.55" width="931.48" height="992.79"/>
    </clipPath>
    <clipPath id="clippath-1">
      <rect class="cls-1" x="175.55" y="0" width="931.47" height="992.79"/>
    </clipPath>
    <clipPath id="clippath-2">
      <rect class="cls-1" x="175.55" y="0" width="931.48" height="992.79"/>
    </clipPath>
  </defs>
  <g id="Capa_1-2" data-name="Capa 1">
    <g id="Grupo_15" data-name="Grupo 15">
      <g id="Grupo_14" data-name="Grupo 14">
        <g class="cls-6">
          <g id="Grupo_13" data-name="Grupo 13">
            <g id="Grupo_12" data-name="Grupo 12">
              <g class="cls-2">
                <g id="Grupo_11" data-name="Grupo 11">
                  <g id="Grupo_10" data-name="Grupo 10" class="cls-8">
                    <g id="Grupo_9" data-name="Grupo 9">
                      <g class="cls-5">
                        <g id="Grupo_8" data-name="Grupo 8">
                          <path id="Trazado_66" data-name="Trazado 66" class="cls-4" d="M219.93,96.73C308.69.09,482.45,46.74,558.63,153.59c76.18,106.86,82.39,246.74,85.8,377.92-6.1-137.26-9.81-284.18,63.18-400.58,72.99-116.4,254.25-173.71,349.76-74.95,211.06,218.24-414.17,926.69-414.17,926.69,0,0-629.96-660.88-423.27-885.94"/>
                          <path id="Trazado_67" data-name="Trazado 67" class="cls-4" d="M221.4,98.1c-15.11,17.36-26.05,37.95-31.97,60.19-3.93,15.34-6.14,31.07-6.57,46.9-.56,38,5.11,75.83,16.79,112,11.22,36.51,25.28,72.08,42.04,106.4,33.88,68.72,72.85,134.81,116.59,197.71,43.33,63.14,89.71,124.33,138.06,183.88,24.2,29.75,48.89,59.11,74.06,88.09l38.11,43.11,19.33,21.28,15.2,16.34,33.86-40.07,37.32-45.66c24.6-30.63,48.72-61.65,72.36-93.04,47.23-62.81,92.56-127.04,134.78-193.28,42.68-65.83,80.72-134.56,113.81-205.69,16.36-35.48,30.18-72.08,41.34-109.53,11.44-37.04,17.36-75.57,17.56-114.34-.47-38.18-11.12-76.71-35.88-105.23-6.27-7.03-13.09-13.54-20.39-19.48-7.48-5.73-15.29-10.99-23.41-15.78-16.88-8.61-35.05-14.39-53.8-17.13-38.09-5.18-76.87-.57-112.68,13.4-36.11,13.53-69.09,34.24-96.96,60.89-27.56,27.05-49.14,59.57-63.36,95.46-14.85,35.93-25.2,73.56-30.82,112.03-11.63,77.22-9,156.1-5.62,234.63l-13.38.47c-2.49-88.61-5.39-178.26-30.97-262.82-6.28-21.03-14.25-41.52-23.82-61.27-9.37-19.76-20.76-38.5-33.99-55.91-13.26-17.26-28.67-32.75-45.85-46.09-17.4-13.16-36.27-24.27-56.22-33.1-25.32-11.27-52.26-18.48-79.83-21.37-25.16-2.56-50.57-.26-74.87,6.76-18.17,5.23-35.35,13.45-50.82,24.32-6.23,5.77-12.93,10.99-20.03,15.63,2.37-3,4.94-5.84,7.68-8.5l7.65-7.79c3.01-2.76,6.8-5.16,10.55-8.04,16.4-11.92,34.85-20.72,54.44-25.95,5.56-1.05,13.99-3.23,23.46-4.34,9.67-1.02,19.4-1.37,29.12-1.05,26.68.64,53.07,5.74,78.08,15.09,25.16,8.84,48.9,21.32,70.45,37.03,21.69,15.61,40.88,34.42,56.9,55.81,15.49,21.65,28.69,44.87,39.36,69.26,20.34,49.14,33.59,100.91,39.36,153.78,6.71,52.6,8.6,105.54,10.17,158.29l-8.28.3c-3.59-78.46-6.55-157.78,4.95-236.36,5.62-39.38,16.06-77.92,31.11-114.75,3.46-9.35,8.42-18.05,12.59-27.12,4.61-8.82,9.75-17.4,14.78-26,5.93-8.1,11.18-16.75,17.69-24.38,6.35-7.76,13.15-15.14,20.37-22.1,28.9-27.97,63.18-49.76,100.77-64.05,37.65-14.95,78.48-20.05,118.65-14.82,20.19,2.74,39.78,8.84,57.96,18.05,8.87,5.02,17.41,10.59,25.59,16.67,7.93,6.43,15.36,13.44,22.23,20.99,27.51,30.97,39.22,72.91,39.94,112.93.11,40.09-5.81,79.97-17.55,118.31-11.22,38.1-25.18,75.34-41.77,111.43-33.28,71.83-71.6,141.21-114.66,207.63-42.5,66.7-88.14,131.27-135.69,194.4-23.82,31.55-48.12,62.73-72.9,93.53l-37.58,45.89-19.1,22.7-24.33,28.13-25.73-27.62-20.27-22.43-39.9-45.43c-26.32-30.56-52.12-61.56-77.41-93.01-50.43-62.93-98.81-127.73-143.56-195.08-40.55-60.13-76.39-123.31-107.19-188.98-29.35-65.31-53.37-134.2-53.76-203.8-.16-23.2,4.1-46.22,12.57-67.82,7.64-18.87,18.95-36.04,33.29-50.51"/>
                        </g>
                      </g>
                    </g>
                  </g>
                </g>
              </g>
            </g>
          </g>
        </g>
      </g>
      <g id="Diana_Quesada_Johan_Lopez" data-name="Diana Quesada Johan Lopez" class="cls-3">
        <g class="cls-3">
          <path class="cls-7" d="M149.61,408.2c-12.58,0-26.12-2.09-40.61-6.29-5.07-1.57-10.05-3.32-14.93-5.24-4.89-1.92-9.79-3.93-14.67-6.02-6.29,4.71-13.98,8.65-23.06,11.79-9.09,3.14-17.73,4.71-25.94,4.71-10.66,0-18.39-2.36-23.19-7.07-4.81-4.72-7.21-9.96-7.21-15.73s2.36-11.44,7.08-16.51c4.71-5.06,11.18-7.6,19.39-7.6,6.64,0,13.45,1.67,20.44,4.98,6.98,3.32,13.53,6.38,19.65,9.17,1.74.88,3.58,1.74,5.51,2.62,1.92.88,3.84,1.74,5.76,2.62,5.77-5.06,11.96-11.79,18.61-20.18,6.64-8.39,13.53-17.64,20.7-27.77,7.16-10.13,14.45-20.44,21.88-30.92,7.42-10.48,14.89-20.52,22.41-30.13,7.51-9.6,15.02-17.99,22.53-25.15-5.24-2.09-10.83-3.71-16.77-4.85-5.94-1.13-12.32-1.7-19.13-1.7-18.34,0-34.2,1.79-47.56,5.37-13.36,3.58-24.54,8.26-33.54,14.02-9,5.77-16.07,11.93-21.23,18.47-5.15,6.55-8.69,12.71-10.61,18.48-.7,2.27-1.22,4.32-1.57,6.16-.35,1.83-.52,3.63-.52,5.37,0,5.94,1.83,10.39,5.5,13.36s8.39,4.45,14.15,4.45,12.58-1.65,19.92-4.98c7.34-3.31,14.85-8.51,22.53-15.59,7.68-7.08,14.76-16.38,21.22-27.91.87-1.57,2.18-2.36,3.93-2.36,1.4,0,2.57.4,3.54,1.18s1.44,1.88,1.44,3.27c0,.88-.26,1.75-.79,2.62-6.99,12.23-14.72,22.28-23.19,30.13-8.48,7.86-16.95,13.67-25.41,17.42-8.48,3.76-16.38,5.64-23.72,5.64-8.21,0-15.02-2.31-20.44-6.94-5.42-4.63-8.12-11.23-8.12-19.79,0-4.71.87-9.69,2.62-14.93,2.27-7.16,6.33-14.41,12.19-21.75,5.85-7.34,13.71-14.1,23.58-20.31,9.87-6.2,21.92-11.22,36.16-15.07,14.24-3.84,30.87-5.76,49.92-5.76,8.39,0,16.2.78,23.45,2.36,7.25,1.57,13.93,3.76,20.04,6.55,5.24-4.54,10.44-8.13,15.59-10.75,5.15-2.61,10.09-3.92,14.81-3.92,1.57,0,2.71.48,3.4,1.43.7.97,1.05,2.05,1.05,3.28s-.35,2.32-1.05,3.27c-.7.96-1.83,1.44-3.4,1.44-5.59,0-12.76,3.32-21.49,9.96,13.79,8.39,24.15,19.56,31.05,33.54,6.9,13.97,10.35,28.39,10.35,43.23,0,13.8-2.8,26.82-8.39,39.04-6.46,14.5-17.03,26.33-31.7,35.51-14.67,9.17-32.06,13.76-52.15,13.76ZM9.43,384.09c0,3.32,1.61,6.42,4.85,9.3s8.52,4.32,15.85,4.32c6.29,0,13.01-1.05,20.18-3.14,7.16-2.09,13.53-4.89,19.13-8.38-4.19-1.92-8.39-3.85-12.58-5.77-4.19-1.92-8.48-3.84-12.84-5.76-2.62-1.23-4.89-2.23-6.81-3.02-1.92-.78-3.58-1.26-4.98-1.44-.88-.35-1.75-.52-2.62-.52h-2.62c-5.42,0-9.69,1.53-12.84,4.58s-4.72,6.34-4.72,9.82ZM111.88,393c13.1,3.84,25.59,5.77,37.47,5.77,18.69,0,34.54-4.16,47.56-12.45,13.01-8.3,22.41-18.83,28.17-31.57,5.06-11.01,7.6-22.63,7.6-34.85,0-13.79-3.32-27.12-9.96-39.96-6.64-12.84-16.6-22.93-29.87-30.26-5.42,4.71-10.88,10.31-16.38,16.77-5.5,6.46-10.88,13.45-16.12,20.96-3.84,5.59-8.73,12.62-14.67,21.09-5.94,8.48-12.32,17.47-19.13,26.99s-13.67,18.56-20.57,27.12c-6.9,8.56-13.15,15.64-18.74,21.22,4.02,1.75,8.08,3.41,12.19,4.99,4.1,1.57,8.25,2.97,12.45,4.19Z"/>
          <path class="cls-7" d="M273.29,390.38c-2.27,0-4.11-.65-5.5-1.96-1.4-1.31-2.1-3.45-2.1-6.42,0-3.67.87-8.16,2.62-13.49,1.74-5.33,4.02-10.83,6.81-16.51,2.79-5.68,5.8-10.92,9.04-15.73,3.23-4.8,6.33-8.6,9.3-11.4,1.22-1.22,2.71-1.83,4.45-1.83,1.4,0,2.62.35,3.67,1.05s1.57,1.57,1.57,2.62c0,.88-.44,1.74-1.31,2.62-1.22,1.23-2.75,3.19-4.58,5.89-1.83,2.71-3.63,5.51-5.37,8.38-1.75,2.88-3.06,5.29-3.93,7.21-1.57,3.32-3.32,7.07-5.24,11.27-1.92,4.19-3.32,7.6-4.19,10.22-.53,1.74-.79,3.06-.79,3.93,0,1.92.69,2.88,2.09,2.88,1.22,0,2.62-.57,4.19-1.7,1.57-1.14,2.97-2.14,4.19-3.02,4.37-3.49,8.42-7.2,12.19-11.13,3.75-3.93,7.2-7.64,10.35-11.13.7-.88,1.57-1.31,2.62-1.31.87,0,1.7.48,2.49,1.44s1.18,2.14,1.18,3.54c0,1.57-.44,2.88-1.31,3.93-2.62,3.67-6.25,7.72-10.87,12.18-4.63,4.45-8.69,7.99-12.19,10.62-2.27,1.74-5.28,3.49-9.04,5.23-3.76,1.75-7.2,2.62-10.35,2.62ZM312.07,311.78c-2.09,0-3.97-.74-5.63-2.23-1.66-1.48-2.49-3.36-2.49-5.63,0-2.44.79-4.46,2.36-6.02,1.57-1.57,3.49-2.36,5.77-2.36,2.45,0,4.45.78,6.03,2.36,1.57,1.57,2.36,3.58,2.36,6.02,0,2.27-.83,4.15-2.49,5.63-1.66,1.49-3.63,2.23-5.9,2.23Z"/>
          <path class="cls-7" d="M315.21,394.58c-4.89,0-8.51-1.44-10.88-4.33-2.36-2.88-3.54-6.51-3.54-10.87,0-4.89,1.44-10.62,4.32-17.16,2.88-6.55,6.68-13.32,11.4-20.31,4.72-6.99,9.91-13.5,15.59-19.52,5.68-6.02,11.4-10.91,17.16-14.67,5.77-3.75,11.09-5.64,15.98-5.64,3.31,0,6.55.49,9.69,1.44,3.14.96,5.72,2.85,7.73,5.64s3.01,6.9,3.01,12.31c0,1.92-.52,3.32-1.57,4.19-1.05.88-2.01,1.31-2.88,1.31-1.92,0-2.88-.7-2.88-2.1-.88-5.58-2.66-9.26-5.37-11s-5.28-2.62-7.73-2.62c-3.5,0-7.6,1.75-12.32,5.24-4.71,3.5-9.52,7.95-14.41,13.36-4.89,5.42-9.48,11.23-13.76,17.43-4.28,6.2-7.73,12.14-10.35,17.81-2.62,5.68-3.93,10.35-3.93,14.02,0,1.75.3,3.32.91,4.71.61,1.4,1.61,2.1,3.01,2.1,2.62,0,6.03-1.4,10.22-4.19,4.19-2.79,8.69-6.42,13.5-10.87,4.8-4.46,9.56-9.13,14.28-14.02,4.72-4.89,8.99-9.52,12.84-13.89,3.84-4.37,6.81-7.86,8.91-10.48,1.05-1.57,2.36-2.36,3.93-2.36,1.22,0,2.36.44,3.41,1.31,1.05.88,1.57,2.01,1.57,3.4,0,.71-.26,1.49-.78,2.36-1.23,1.92-2.67,4.63-4.32,8.12-1.66,3.5-3.32,7.25-4.98,11.27-1.66,4.02-3.06,7.73-4.19,11.13-1.14,3.41-1.7,5.99-1.7,7.73s.61,2.62,1.83,2.62c.87,0,1.97-.43,3.28-1.31,1.31-.87,2.49-1.66,3.54-2.36,4.19-3.49,8.21-7.2,12.05-11.13,3.84-3.93,7.34-7.64,10.48-11.13.7-.88,1.57-1.31,2.62-1.31.87,0,1.7.48,2.49,1.44s1.18,2.14,1.18,3.54c0,1.57-.44,2.88-1.31,3.93-2.8,3.67-6.46,7.72-11,12.18-4.54,4.45-8.56,7.99-12.05,10.62-2.27,1.57-4.94,3.1-7.99,4.58-3.06,1.49-5.99,2.23-8.78,2.23-2.1,0-3.85-.65-5.24-1.96-1.4-1.31-2.1-3.63-2.1-6.95,0-2.62.43-5.59,1.31-8.91.87-3.31,1.92-6.72,3.14-10.22-4.89,5.24-10.13,10.4-15.72,15.46-5.59,5.07-10.96,9.3-16.11,12.71-5.16,3.4-9.65,5.11-13.5,5.11Z"/>
          <path class="cls-7" d="M394.08,399.29c-1.23,0-2.36-.43-3.41-1.31-1.05-.88-1.57-1.92-1.57-3.14,0-.36.17-1.05.52-2.1,3.49-7.51,6.94-14.36,10.35-20.56,3.4-6.2,6.94-12.27,10.61-18.21,1.57-2.44,3.36-5.63,5.37-9.56s3.97-8.21,5.9-12.84c1.92-4.63,3.54-9.04,4.85-13.24,1.31-4.19,1.97-7.59,1.97-10.21,0-1.4-.09-2.36-.26-2.88-.17-.17-.26-.53-.26-1.05,0-1.4.66-2.57,1.97-3.54s2.57-1.44,3.8-1.44c1.4,0,2.71.65,3.93,1.96s1.84,3.54,1.84,6.68c0,2.62-.57,6.07-1.71,10.35s-3.01,9.39-5.63,15.32c-1.4,2.98-2.71,5.73-3.93,8.26-1.22,2.54-2.45,4.94-3.67,7.2,6.81-7.16,13.8-13.58,20.96-19.26,7.16-5.67,13.53-10.17,19.13-13.49,5.59-3.32,9.34-4.98,11.27-4.98,2.09,0,3.58.61,4.45,1.84.87,1.23,1.31,2.62,1.31,4.19,0,2.27-.66,4.85-1.97,7.73s-2.67,5.47-4.06,7.73c-1.4,2.27-2.36,3.85-2.88,4.71-1.93,2.98-4.54,7.43-7.86,13.37-3.32,5.94-6.11,11.7-8.38,17.29-.7,1.92-1.36,3.89-1.97,5.89-.62,2.02-.92,3.71-.92,5.11,0,2.27.96,3.41,2.88,3.41,1.74,0,4.28-.88,7.6-2.62,4.19-2.27,8.08-5.2,11.66-8.78,3.58-3.58,6.68-6.68,9.3-9.3.17-.17,1-1.05,2.49-2.62s3.71-3.93,6.68-7.07c.69-.88,1.57-1.31,2.62-1.31.87,0,1.71.48,2.49,1.44.78.96,1.18,2.14,1.18,3.54,0,1.57-.44,2.88-1.31,3.93-2.62,3.67-6.2,7.68-10.74,12.05-4.54,4.37-8.56,7.95-12.05,10.75-3.67,2.79-7.38,5.02-11.13,6.68-3.76,1.67-7.47,2.49-11.14,2.49-3.14,0-5.77-.6-7.86-1.83-2.1-1.23-3.14-4.46-3.14-9.7,0-6.63,1.7-13.18,5.11-19.65,3.4-6.46,7.25-12.84,11.53-19.13s7.82-12.22,10.61-17.82c-4.37,2.62-10.18,6.65-17.42,12.06-7.25,5.41-14.85,11.75-22.8,19s-15.16,15.15-21.61,23.71c-1.23,2.27-2.54,4.71-3.93,7.34-1.4,2.62-2.8,5.51-4.19,8.65-1.57,3.32-3.76,4.98-6.55,4.98Z"/>
          <path class="cls-7" d="M499.15,394.58c-4.89,0-8.51-1.44-10.88-4.33-2.36-2.88-3.54-6.51-3.54-10.87,0-4.89,1.44-10.62,4.32-17.16,2.88-6.55,6.68-13.32,11.4-20.31,4.72-6.99,9.91-13.5,15.59-19.52,5.68-6.02,11.4-10.91,17.16-14.67,5.77-3.75,11.09-5.64,15.98-5.64,3.31,0,6.55.49,9.69,1.44,3.14.96,5.72,2.85,7.73,5.64s3.01,6.9,3.01,12.31c0,1.92-.52,3.32-1.57,4.19-1.05.88-2.01,1.31-2.88,1.31-1.92,0-2.88-.7-2.88-2.1-.88-5.58-2.66-9.26-5.37-11s-5.28-2.62-7.73-2.62c-3.5,0-7.6,1.75-12.32,5.24-4.71,3.5-9.52,7.95-14.41,13.36-4.89,5.42-9.48,11.23-13.76,17.43-4.28,6.2-7.73,12.14-10.35,17.81-2.62,5.68-3.93,10.35-3.93,14.02,0,1.75.3,3.32.91,4.71.61,1.4,1.61,2.1,3.01,2.1,2.62,0,6.03-1.4,10.22-4.19,4.19-2.79,8.69-6.42,13.5-10.87,4.8-4.46,9.56-9.13,14.28-14.02,4.72-4.89,8.99-9.52,12.84-13.89,3.84-4.37,6.81-7.86,8.91-10.48,1.05-1.57,2.36-2.36,3.93-2.36,1.22,0,2.36.44,3.41,1.31,1.05.88,1.57,2.01,1.57,3.4,0,.71-.26,1.49-.78,2.36-1.23,1.92-2.67,4.63-4.32,8.12-1.66,3.5-3.32,7.25-4.98,11.27-1.66,4.02-3.06,7.73-4.19,11.13-1.14,3.41-1.7,5.99-1.7,7.73s.61,2.62,1.83,2.62c.87,0,1.97-.43,3.28-1.31,1.31-.87,2.49-1.66,3.54-2.36,4.19-3.49,8.21-7.2,12.05-11.13,3.84-3.93,7.34-7.64,10.48-11.13.7-.88,1.57-1.31,2.62-1.31.87,0,1.7.48,2.49,1.44s1.18,2.14,1.18,3.54c0,1.57-.44,2.88-1.31,3.93-2.8,3.67-6.46,7.72-11,12.18-4.54,4.45-8.56,7.99-12.05,10.62-2.27,1.57-4.94,3.1-7.99,4.58-3.06,1.49-5.99,2.23-8.78,2.23-2.1,0-3.85-.65-5.24-1.96-1.4-1.31-2.1-3.63-2.1-6.95,0-2.62.43-5.59,1.31-8.91.87-3.31,1.92-6.72,3.14-10.22-4.89,5.24-10.13,10.4-15.72,15.46-5.59,5.07-10.96,9.3-16.11,12.71-5.16,3.4-9.65,5.11-13.5,5.11Z"/>
          <path class="cls-7" d="M680.21,423.93c-11.53,0-20.48-3.11-26.86-9.3-6.38-6.2-10.18-14.63-11.4-25.29-2.27,1.23-4.02,3.76-5.24,7.6-.7,2.27-2.19,3.4-4.45,3.4-1.57,0-2.93-.61-4.06-1.83-1.14-1.23-1.44-2.8-.91-4.71,1.57-4.37,3.58-7.73,6.02-10.09,2.45-2.36,5.24-3.88,8.39-4.59.17-1.92.35-3.88.52-5.89s.43-4.06.79-6.16c1.92-11.35,5.68-22.28,11.27-32.75,5.59-10.48,11.88-20,18.87-28.57,6.99-8.55,13.67-15.76,20.04-21.61s11.4-9.92,15.07-12.19c9.26-5.41,18.78-8.12,28.56-8.12,4.02,0,7.6.61,10.74,1.83,3.14,1.23,5.5,3.15,7.08,5.77.69,1.23,1.05,2.27,1.05,3.14,0,2.45-1.31,3.67-3.93,3.67-1.22,0-2.62-.52-4.19-1.57-1.05-.88-2.49-1.53-4.32-1.97-1.83-.43-3.89-.65-6.16-.65-3.85,0-7.91.52-12.19,1.57-4.28,1.05-8.17,2.54-11.66,4.46-3.32,2.09-7.99,5.89-14.02,11.4-6.03,5.5-12.27,12.23-18.74,20.18s-12.27,16.73-17.42,26.33-8.61,19.56-10.35,29.87c-.35,2.1-.62,4.11-.79,6.02-.18,1.93-.35,3.76-.52,5.51,5.41,1.05,11.18,3.23,17.29,6.55s12.14,7.2,18.08,11.66c5.94,4.45,11.44,8.68,16.5,12.7,11.18-3.84,21.35-10.09,30.53-18.73,9.17-8.65,17.12-18.69,23.84-30.13,6.72-11.44,12.09-23.1,16.11-34.98,1.57-5.06,2.8-10.04,3.67-14.93.87-4.89,1.31-9.61,1.31-14.15,0-10.48-2.23-19.95-6.68-28.43s-11.4-15.2-20.83-20.18c-9.43-4.98-21.75-7.47-36.94-7.47-11.18,0-21.22,2.01-30.13,6.02s-15.9,9.43-20.96,16.24c-5.07,6.82-7.6,14.59-7.6,23.32,0,4.89.87,9.7,2.62,14.41.87,1.92.57,3.58-.92,4.98-1.48,1.4-3.01,2.09-4.58,2.09-2.1,0-3.41-.87-3.93-2.62-1.23-3.49-2.14-6.85-2.75-10.09-.61-3.23-.91-6.33-.91-9.3,0-8.73,2.09-16.51,6.29-23.32,4.19-6.81,9.87-12.53,17.03-17.16,7.16-4.63,15.15-8.16,23.98-10.62,8.82-2.44,17.86-3.67,27.12-3.67,8.73,0,17.24,1.27,25.55,3.8,8.29,2.54,15.76,6.38,22.4,11.53,6.64,5.16,11.92,11.71,15.85,19.66,3.93,7.95,5.9,17.34,5.9,28.16s-2.19,22.8-6.55,35.9c-7.16,20.96-17.07,38.96-29.74,53.98s-26.51,25.77-41.53,32.23c2.1,1.74,4.02,3.32,5.77,4.72,1.74,1.4,3.23,2.53,4.45,3.4,5.59,3.84,11.75,7.47,18.47,10.87,6.72,3.4,14.19,6.16,22.4,8.26,1.92.52,3.8.87,5.63,1.05,1.83.17,3.54.26,5.11.26,6.64,0,11.7-1.54,15.2-4.59,3.49-3.06,5.24-6.77,5.24-11.13,0-5.24-2.8-10.65-8.39-16.24-5.59-5.59-14.41-9.69-26.46-12.31-2.27-.53-3.4-1.67-3.4-3.41,0-1.22.56-2.27,1.7-3.14,1.13-.88,2.57-1.14,4.32-.78,15.02,3.31,25.98,8.51,32.88,15.59,6.9,7.08,10.35,14.19,10.35,21.35,0,6.46-2.71,12.14-8.12,17.04-5.42,4.89-13.1,7.34-23.06,7.34-7.34,0-15.85-1.71-25.55-5.11-9.69-3.4-20.3-9.13-31.83-17.16-2.45-1.75-4.98-3.63-7.6-5.64s-5.24-4.06-7.86-6.16c-6.81,1.92-13.62,2.88-20.44,2.88ZM653.75,389.6c-.7-.17-1.31-.35-1.83-.53,1.05,8.56,4.1,14.9,9.17,19s11.62,6.16,19.65,6.16c3.49,0,6.99-.26,10.48-.78-6.11-4.89-12.36-9.56-18.73-14.02-6.38-4.45-12.62-7.73-18.73-9.82Z"/>
          <path class="cls-7" d="M803.1,393.79c-2.8,0-4.89-.96-6.29-2.88s-2.09-4.28-2.09-7.08c0-4.54,1.22-9.25,3.67-14.14,2.44-5.06,5.41-10.13,8.91-15.2,3.49-5.06,7.34-10.31,11.53-15.73.87-1.05,2.14-2.88,3.8-5.5s3.19-5.33,4.59-8.13,2.01-4.98,1.83-6.55c-.17-2.97.43-5.2,1.83-6.68,1.4-1.49,2.97-2.23,4.72-2.23s3.06.71,3.93,2.1c1.05,1.57,1.57,3.5,1.57,5.76,0,2.45-.83,5.46-2.49,9.04-1.66,3.58-4.5,8.08-8.51,13.49-3.14,4.19-6.6,8.69-10.35,13.5-3.76,4.8-6.94,9.48-9.56,14.01-2.62,4.54-3.93,8.39-3.93,11.53,0,2.27.96,3.41,2.88,3.41,1.22,0,2.97-.53,5.24-1.57,2.79-1.4,6.68-4.1,11.66-8.13,4.98-4.02,10.22-8.6,15.72-13.76,5.5-5.15,10.57-10.17,15.2-15.07,4.63-4.89,7.99-8.73,10.09-11.53,1.05-1.57,2.36-2.36,3.93-2.36,1.22,0,2.36.44,3.4,1.31,1.05.88,1.57,2.01,1.57,3.4,0,.71-.26,1.49-.79,2.36-1.05,1.92-2.45,4.63-4.19,8.12s-3.45,7.25-5.11,11.27c-1.66,4.02-3.06,7.73-4.19,11.13-1.14,3.41-1.7,5.99-1.7,7.73,0,1.92.61,2.88,1.83,2.88.87,0,1.97-.48,3.28-1.44s2.49-1.79,3.54-2.49c4.37-3.49,8.43-7.2,12.19-11.13,3.75-3.93,7.21-7.64,10.35-11.13.69-.88,1.57-1.31,2.62-1.31.87,0,1.7.48,2.49,1.44.78.96,1.18,2.14,1.18,3.54,0,1.57-.44,2.88-1.31,3.93-2.8,3.67-6.47,7.72-11.01,12.18-4.54,4.45-8.56,7.99-12.05,10.62-2.27,1.57-4.94,3.1-7.99,4.58-3.06,1.49-5.9,2.23-8.51,2.23-2.27,0-4.06-.65-5.37-1.96s-1.97-3.63-1.97-6.95c0-2.79.48-6.02,1.44-9.69.96-3.67,2.14-7.42,3.54-11.27-5.94,5.94-12.62,11.88-20.04,17.82s-14.19,10.39-20.31,13.36c-4.37,2.09-7.95,3.15-10.74,3.15Z"/>
          <path class="cls-7" d="M905.29,397.2c-5.42,0-10-1.66-13.76-4.98-3.76-3.32-5.63-9.08-5.63-17.29,0-5.59,1.44-12.14,4.32-19.66,2.88-7.51,6.77-14.8,11.66-21.87,4.89-7.08,10.31-12.93,16.24-17.56,5.94-4.62,11.96-6.94,18.08-6.94,4.02,0,7.03,1.44,9.04,4.33,2.01,2.88,3.02,6.33,3.02,10.34,0,5.94-1.93,11.71-5.77,17.3-3.85,5.59-8.69,10.13-14.54,13.62-5.85,3.5-11.66,5.24-17.42,5.24-4.72,0-8.3-1.49-10.74-4.46-1.4,3.5-2.54,6.9-3.41,10.22-.88,3.32-1.31,6.47-1.31,9.44,0,5.06,1.09,8.6,3.28,10.61,2.18,2.01,4.93,3.02,8.25,3.02,4.02,0,8.51-1.05,13.49-3.15,4.98-2.09,9.65-4.58,14.02-7.47,4.37-2.88,7.6-5.28,9.7-7.2,3.49-2.97,6.85-6.24,10.09-9.82,3.23-3.58,6.07-6.95,8.51-10.09.87-1.05,1.83-1.57,2.88-1.57s1.96.48,2.75,1.44,1.18,2.14,1.18,3.54c0,1.23-.44,2.45-1.31,3.67-2.8,3.5-6.25,7.47-10.35,11.93-4.11,4.45-8.69,8.6-13.76,12.45-2.8,2.27-6.38,4.54-10.74,6.81-4.37,2.27-8.96,4.19-13.76,5.77-4.81,1.57-9.48,2.36-14.02,2.36ZM910,351.34c3.49,0,7.29-1.13,11.4-3.4,4.1-2.27,7.77-5.28,11.01-9.04,3.23-3.75,5.37-7.82,6.42-12.18.17-.35.26-.79.26-1.31v-1.31c0-3.15-1.14-4.71-3.4-4.71-3.67,0-7.51,1.35-11.53,4.06-4.02,2.71-7.82,6.29-11.4,10.75-3.58,4.45-6.77,9.3-9.56,14.54.7.53,1.4,1.01,2.1,1.44.69.44,1.4.74,2.1.91.35.18.78.26,1.31.26h1.31Z"/>
          <path class="cls-7" d="M975.77,401.91c-6.46,0-11.36-1.71-14.67-5.11-3.32-3.4-4.98-6.59-4.98-9.56,0-3.84,1.92-5.77,5.77-5.77.87,0,1.74.09,2.62.26.87.18,1.83.53,2.88,1.05,3.67,1.75,7.64,3.02,11.92,3.8,4.28.79,8.42,1.27,12.45,1.44,1.57-.35,3.06-2.62,4.45-6.81,1.4-4.19,2.44-8.21,3.14-12.06.52-3.67.79-7.42.79-11.27,0-5.59-.44-11.27-1.31-17.03-.88-5.77-1.66-11.53-2.36-17.3-4.71,6.29-9.69,12.62-14.93,19-5.24,6.38-10.13,12.19-14.67,17.42-4.54,5.24-8.38,9.27-11.53,12.06-.7.7-1.57,1.05-2.62,1.05-1.23,0-2.27-.48-3.14-1.44-.88-.95-1.31-2.05-1.31-3.27,0-1.57.61-2.88,1.83-3.93,1.57-1.57,4.1-4.28,7.6-8.13,3.49-3.84,7.47-8.42,11.92-13.76,4.45-5.33,8.95-10.91,13.5-16.76,4.54-5.85,8.73-11.4,12.58-16.64.17-1.74.35-3.45.52-5.11.17-1.66.43-3.28.79-4.85,1.22-5.41,3.54-9.57,6.94-12.45,3.4-2.88,6.42-4.33,9.04-4.33,3.14,0,4.72,1.66,4.72,4.98,0,2.45-1.31,6.02-3.93,10.75-1.23,1.92-2.54,3.97-3.93,6.16-1.4,2.19-2.97,4.5-4.71,6.94,0,6.65.61,13.49,1.83,20.57,1.22,7.07,1.92,12.36,2.09,15.85.17,1.75.31,3.5.4,5.24.09,1.74.13,3.58.13,5.51,0,4.89-.4,9.79-1.18,14.67-.78,4.89-2.31,9.34-4.58,13.36,4.71-1.74,9.6-4.06,14.67-6.94s9.43-5.98,13.1-9.3c3.49-2.96,6.72-6.11,9.69-9.43s5.77-6.37,8.39-9.17c.69-.87,1.57-1.31,2.62-1.31.87,0,1.7.48,2.49,1.44s1.18,2.14,1.18,3.54c0,1.57-.44,2.88-1.31,3.93-2.62,3.67-6.25,7.73-10.88,12.18-4.63,4.46-8.69,7.99-12.18,10.62-4.55,3.32-10.13,6.29-16.77,8.91-6.64,2.62-13.45,4.54-20.44,5.76-3.5,2.1-7.6,3.67-12.32,4.72-1.22.17-2.36.3-3.4.39-1.05.09-2.01.13-2.88.13Z"/>
          <path class="cls-7" d="M1054.11,394.58c-4.89,0-8.51-1.44-10.88-4.33-2.36-2.88-3.54-6.51-3.54-10.87,0-4.89,1.44-10.62,4.32-17.16,2.88-6.55,6.68-13.32,11.4-20.31,4.72-6.99,9.91-13.5,15.59-19.52,5.68-6.02,11.4-10.91,17.16-14.67,5.77-3.75,11.09-5.64,15.98-5.64,3.31,0,6.55.49,9.69,1.44,3.14.96,5.72,2.85,7.73,5.64s3.01,6.9,3.01,12.31c0,1.92-.52,3.32-1.57,4.19-1.05.88-2.01,1.31-2.88,1.31-1.92,0-2.88-.7-2.88-2.1-.88-5.58-2.66-9.26-5.37-11s-5.28-2.62-7.73-2.62c-3.5,0-7.6,1.75-12.32,5.24-4.71,3.5-9.52,7.95-14.41,13.36-4.89,5.42-9.48,11.23-13.76,17.43-4.28,6.2-7.73,12.14-10.35,17.81-2.62,5.68-3.93,10.35-3.93,14.02,0,1.75.3,3.32.91,4.71.61,1.4,1.61,2.1,3.01,2.1,2.62,0,6.03-1.4,10.22-4.19,4.19-2.79,8.69-6.42,13.5-10.87,4.8-4.46,9.56-9.13,14.28-14.02,4.72-4.89,8.99-9.52,12.84-13.89,3.84-4.37,6.81-7.86,8.91-10.48,1.05-1.57,2.36-2.36,3.93-2.36,1.22,0,2.36.44,3.41,1.31,1.05.88,1.57,2.01,1.57,3.4,0,.71-.26,1.49-.78,2.36-1.23,1.92-2.67,4.63-4.32,8.12-1.66,3.5-3.32,7.25-4.98,11.27-1.66,4.02-3.06,7.73-4.19,11.13-1.14,3.41-1.7,5.99-1.7,7.73s.61,2.62,1.83,2.62c.87,0,1.97-.43,3.28-1.31,1.31-.87,2.49-1.66,3.54-2.36,4.19-3.49,8.21-7.2,12.05-11.13,3.84-3.93,7.34-7.64,10.48-11.13.7-.88,1.57-1.31,2.62-1.31.87,0,1.7.48,2.49,1.44s1.18,2.14,1.18,3.54c0,1.57-.44,2.88-1.31,3.93-2.8,3.67-6.46,7.72-11,12.18-4.54,4.45-8.56,7.99-12.05,10.62-2.27,1.57-4.94,3.1-7.99,4.58-3.06,1.49-5.99,2.23-8.78,2.23-2.1,0-3.85-.65-5.24-1.96-1.4-1.31-2.1-3.63-2.1-6.95,0-2.62.43-5.59,1.31-8.91.87-3.31,1.92-6.72,3.14-10.22-4.89,5.24-10.13,10.4-15.72,15.46-5.59,5.07-10.96,9.3-16.11,12.71-5.16,3.4-9.65,5.11-13.5,5.11Z"/>
          <path class="cls-7" d="M1141.63,394.58c-4.89,0-8.51-1.44-10.88-4.33-2.36-2.88-3.54-6.51-3.54-10.87,0-4.89,1.44-10.62,4.32-17.16,2.88-6.55,6.68-13.32,11.4-20.31,4.72-6.99,9.91-13.5,15.59-19.52,5.68-6.02,11.4-10.91,17.16-14.67,5.77-3.75,11.09-5.64,15.98-5.64,3.49,0,6.94.57,10.35,1.71,3.41,1.14,5.98,3.45,7.73,6.95,4.37-10.13,9.6-20.22,15.72-30.26,6.11-10.05,12.45-19.08,19-27.12,6.55-8.03,12.79-14.06,18.73-18.08,4.37-2.96,8.3-4.45,11.79-4.45,2.8,0,5.02.91,6.68,2.75,1.66,1.83,2.49,4.58,2.49,8.25,0,6.99-1.88,14.41-5.63,22.28-3.76,7.85-8.69,15.72-14.81,23.58s-12.7,15.5-19.78,22.93c-7.08,7.42-13.93,14.32-20.57,20.7-6.64,6.38-12.4,11.93-17.29,16.64-2.8,4.71-5.46,10.18-7.99,16.38-2.54,6.2-3.8,11.4-3.8,15.59,0,4.71,1.83,7.07,5.5,7.07,2.97,0,7.47-1.44,13.49-4.33,6.03-2.88,11.93-6.85,17.69-11.92,3.49-2.97,6.72-6.11,9.7-9.44,2.97-3.31,5.77-6.37,8.39-9.17.69-.88,1.57-1.31,2.62-1.31.87,0,1.7.48,2.49,1.44.78.96,1.18,2.14,1.18,3.54,0,1.57-.44,2.88-1.31,3.93-2.62,3.67-6.25,7.72-10.88,12.18-4.63,4.45-8.69,7.99-12.19,10.62-6.64,4.89-13.8,8.56-21.49,11-4.71,1.57-8.91,2.36-12.58,2.36-9.61,0-14.41-4.8-14.41-14.41,0-4.02.87-8.55,2.62-13.62,0-.17.09-.35.26-.52-5.42,4.54-10.96,8.91-16.64,13.1-5.68,4.19-10.96,7.6-15.85,10.22-4.89,2.62-8.65,3.93-11.27,3.93ZM1140.84,385.93c2.45,0,5.64-1.13,9.56-3.4,3.93-2.27,8.16-5.16,12.71-8.65,4.54-3.49,9.04-7.16,13.5-11,4.45-3.84,8.42-7.42,11.92-10.74,3.49-3.32,6.11-5.85,7.86-7.6l7.86-22.28c-1.23-4.54-3.06-7.51-5.5-8.91-2.45-1.4-4.81-2.09-7.08-2.09-3.5,0-7.6,1.75-12.32,5.24-4.71,3.5-9.52,7.95-14.41,13.36-4.89,5.42-9.48,11.23-13.76,17.43-4.28,6.2-7.73,12.14-10.35,17.81-2.62,5.68-3.93,10.35-3.93,14.02,0,1.75.3,3.32.91,4.71.61,1.4,1.61,2.1,3.01,2.1ZM1210.28,330.12c1.74-1.4,4.8-4.19,9.17-8.38,4.36-4.19,9.39-9.21,15.07-15.07,5.67-5.85,11.31-12.19,16.9-19,5.59-6.82,10.48-13.62,14.67-20.44,4.19-6.82,7.07-13.19,8.65-19.13.17-.7.26-1.57.26-2.62,0-2.62-1.05-3.93-3.14-3.93-2.62,0-5.68,1.75-9.17,5.24-6.81,6.65-13.41,14.63-19.78,23.98-6.38,9.35-12.31,19.13-17.81,29.35-5.51,10.22-10.44,20.22-14.81,30Z"/>
          <path class="cls-7" d="M1253.51,394.58c-4.89,0-8.51-1.44-10.88-4.33-2.36-2.88-3.54-6.51-3.54-10.87,0-4.89,1.44-10.62,4.32-17.16,2.88-6.55,6.68-13.32,11.4-20.31,4.72-6.99,9.91-13.5,15.59-19.52,5.68-6.02,11.4-10.91,17.16-14.67,5.77-3.75,11.09-5.64,15.98-5.64,3.31,0,6.55.49,9.69,1.44,3.14.96,5.72,2.85,7.73,5.64s3.01,6.9,3.01,12.31c0,1.92-.52,3.32-1.57,4.19-1.05.88-2.01,1.31-2.88,1.31-1.92,0-2.88-.7-2.88-2.1-.88-5.58-2.66-9.26-5.37-11s-5.28-2.62-7.73-2.62c-3.5,0-7.6,1.75-12.32,5.24-4.71,3.5-9.52,7.95-14.41,13.36-4.89,5.42-9.48,11.23-13.76,17.43-4.28,6.2-7.73,12.14-10.35,17.81-2.62,5.68-3.93,10.35-3.93,14.02,0,1.75.3,3.32.91,4.71.61,1.4,1.61,2.1,3.01,2.1,2.62,0,6.03-1.4,10.22-4.19,4.19-2.79,8.69-6.42,13.5-10.87,4.8-4.46,9.56-9.13,14.28-14.02,4.72-4.89,8.99-9.52,12.84-13.89,3.84-4.37,6.81-7.86,8.91-10.48,1.05-1.57,2.36-2.36,3.93-2.36,1.22,0,2.36.44,3.41,1.31,1.05.88,1.57,2.01,1.57,3.4,0,.71-.26,1.49-.78,2.36-1.23,1.92-2.67,4.63-4.32,8.12-1.66,3.5-3.32,7.25-4.98,11.27-1.66,4.02-3.06,7.73-4.19,11.13-1.14,3.41-1.7,5.99-1.7,7.73s.61,2.62,1.83,2.62c.87,0,1.97-.43,3.28-1.31,1.31-.87,2.49-1.66,3.54-2.36,4.19-3.49,8.21-7.2,12.05-11.13,3.84-3.93,7.34-7.64,10.48-11.13.7-.88,1.57-1.31,2.62-1.31.87,0,1.7.48,2.49,1.44s1.18,2.14,1.18,3.54c0,1.57-.44,2.88-1.31,3.93-2.8,3.67-6.46,7.72-11,12.18-4.54,4.45-8.56,7.99-12.05,10.62-2.27,1.57-4.94,3.1-7.99,4.58-3.06,1.49-5.99,2.23-8.78,2.23-2.1,0-3.85-.65-5.24-1.96-1.4-1.31-2.1-3.63-2.1-6.95,0-2.62.43-5.59,1.31-8.91.87-3.31,1.92-6.72,3.14-10.22-4.89,5.24-10.13,10.4-15.72,15.46-5.59,5.07-10.96,9.3-16.11,12.71-5.16,3.4-9.65,5.11-13.5,5.11Z"/>
        </g>
        <g class="cls-3">
          <path class="cls-7" d="M37.73,599.87c-9.26,0-16.77-1.83-22.53-5.5-3.85-2.44-6.38-5.28-7.6-8.51-1.23-3.23-1.83-6.34-1.83-9.3,0-5.24,1.53-10.57,4.59-15.98,3.05-5.41,6.98-10.57,11.79-15.46,4.8-4.89,9.87-9.21,15.2-12.97,5.33-3.75,10.35-6.51,15.07-8.25,1.74-.7,3.54-1.35,5.37-1.97,1.83-.6,3.63-1.18,5.37-1.7-1.23-1.23-2.36-2.66-3.41-4.33-1.05-1.66-1.92-3.44-2.62-5.37-.88-2.62-1.31-4.98-1.31-7.07,0-5.76,2.1-11,6.29-15.72,4.19-4.72,9.39-8.82,15.59-12.32,6.2-3.49,12.45-6.16,18.73-7.99,6.29-1.84,11.53-2.75,15.72-2.75,6.29,0,10.91,1.53,13.89,4.58,2.97,3.06,4.45,6.68,4.45,10.88,0,3.49-.88,6.72-2.62,9.69-1.75,2.97-3.54,5.28-5.37,6.94-1.84,1.67-3.37,2.49-4.59,2.49-1.4,0-2.1-.87-2.1-2.62,0-1.92,1.14-4.89,3.41-8.9,1.4-2.45,2.09-4.72,2.09-6.82,0-2.44-1-4.46-3.01-6.02-2.01-1.57-5.2-2.1-9.56-1.57-2.97.18-6.85,1.14-11.66,2.88-4.81,1.74-9.65,3.97-14.54,6.68-4.89,2.71-9,5.82-12.31,9.3-3.32,3.5-4.98,7.16-4.98,11,0,2.27.61,4.37,1.83,6.29,1.92,3.32,4.98,5.77,9.17,7.34h.26c3.49-.69,6.33-1.13,8.51-1.31,2.18-.17,3.63-.34,4.32-.52.52,0,1-.04,1.44-.13.43-.09.83-.13,1.18-.13,2.79,0,4.85.53,6.16,1.57s1.97,2.27,1.97,3.67-.74,2.71-2.23,3.93c-1.49,1.23-3.71,1.83-6.68,1.83-2.62,0-5.11.05-7.47.13-2.36.09-4.5.05-6.42-.13-2.97.71-6.29,1.62-9.96,2.75-3.67,1.14-7.34,2.49-11,4.06-3.5,1.4-7.56,3.63-12.19,6.68-4.63,3.06-9.17,6.64-13.62,10.74-4.45,4.11-8.13,8.3-11.01,12.58s-4.32,8.43-4.32,12.45c0,3.15.66,5.72,1.97,7.73s3.01,3.71,5.11,5.11c.69.53,1.44.96,2.23,1.31s1.53.7,2.23,1.05c3.49,1.05,7.25,1.57,11.27,1.57,7.16,0,14.8-1.4,22.92-4.19,8.12-2.79,15.42-6.2,21.88-10.22,4.54-2.79,9.12-6.64,13.76-11.52,4.63-4.89,7.55-10.75,8.78-17.56-2.27,0-4.63-.04-7.08-.12-2.45-.09-4.81-.05-7.08.12-2.27,0-4.5.13-6.68.4-2.19.26-4.15.74-5.9,1.44-3.5,1.05-5.24,2.97-5.24,5.76,0,.53.13,1.05.39,1.57.26.53.48,1.05.66,1.57.52.7.79,1.31.79,1.83,0,1.05-.48,1.88-1.44,2.49-.96.62-2.05.92-3.28.92-1.57,0-2.88-.53-3.93-1.57-2.8-2.79-4.19-5.68-4.19-8.65,0-5.77,4.1-10.13,12.31-13.1,2.1-.69,4.33-1.18,6.68-1.44,2.36-.26,4.85-.47,7.47-.65,1.4-.17,2.75-.26,4.06-.26h8.25c1.4,0,2.71.09,3.93.26,4.19,0,8.6-.13,13.23-.4,4.63-.26,9.08-1.09,13.36-2.49,4.28-1.4,7.82-3.75,10.61-7.07.7-.88,1.48-1.31,2.36-1.31,1.57,0,2.36,1.05,2.36,3.14,0,1.75-.62,3.58-1.83,5.51-.7,1.57-2.1,3.23-4.19,4.98-2.09,1.75-3.76,2.88-4.98,3.4-2.97,1.57-6.38,2.62-10.22,3.15-3.84.52-7.77.78-11.79.78-.52,7.51-3.76,14.9-9.7,22.15s-13.19,13.14-21.75,17.69c-6.64,3.5-13.98,6.29-22.01,8.38-8.04,2.09-15.64,3.14-22.8,3.14Z"/>
          <path class="cls-7" d="M219.57,672.72c-8.74,0-16.86-1.44-24.37-4.33-7.51-2.88-13.5-7.07-17.95-12.58s-6.68-12.1-6.68-19.78c0-8.39,2.36-15.64,7.07-21.75,4.72-6.11,10.83-11.27,18.34-15.46,7.51-4.19,15.68-7.6,24.5-10.22,8.82-2.61,17.43-4.62,25.81-6.02,8.39-1.4,15.63-2.26,21.75-2.62,1.05,0,2.57-.04,4.59-.13,2-.09,4.41-.13,7.2-.13,5.94,0,13.06.18,21.35.53s16.2,1.05,23.72,2.09c5.76-11.17,10.87-22.53,15.33-34.06,4.45-11.52,8.99-22.92,13.63-34.19,4.63-11.27,10.17-22.05,16.64-32.37-8.21.71-16.42,1.54-24.63,2.49-8.21.96-16.16,3.11-23.84,6.42-15.9,6.82-27.6,14.76-35.11,23.84-7.51,9.09-11.7,17.21-12.58,24.37-.17.88-.26,1.71-.26,2.49v2.23c0,5.42,1.27,9.39,3.8,11.93s5.72,3.8,9.56,3.8c4.54,0,9.3-1.48,14.28-4.46,4.98-2.97,9.39-7.03,13.23-12.18,3.84-5.15,6.03-10.87,6.55-17.16v-2.36c0-1.74-.13-2.92-.39-3.54-.26-.6-.57-1-.92-1.18-1.92-1.22-2.88-2.53-2.88-3.93,0-1.22.61-2.26,1.83-3.14,1.22-.88,2.53-1.31,3.93-1.31,1.92,0,3.75.91,5.5,2.75,1.74,1.83,2.62,5.02,2.62,9.56,0,9.09-2.36,17.12-7.08,24.11-4.72,6.99-10.53,12.41-17.42,16.24-6.9,3.85-13.59,5.76-20.05,5.76-6.11,0-11.36-1.96-15.72-5.89s-6.55-10.17-6.55-18.73c0-1.05.04-2.09.13-3.15.09-1.05.21-2.09.39-3.14,1.22-9.26,6.2-19.08,14.93-29.48,8.73-10.39,21.57-19.08,38.52-26.07,9.43-4.02,19.26-6.46,29.48-7.34,10.22-.88,20.39-1.92,30.53-3.15,2.62-2.44,5.45-4.45,8.51-6.02,3.06-1.57,6.16-2.36,9.3-2.36,2.45,0,4.37.61,5.77,1.84,1.4,1.22,2.1,2.71,2.1,4.45,0,2.09-1.36,4.19-4.06,6.29-2.71,2.09-7.38,3.58-14.02,4.46-1.23.17-2.45.35-3.67.52-3.14,4.19-6.47,9.57-9.96,16.11-3.49,6.55-6.73,13.15-9.69,19.79-5.59,12.58-10.39,24.36-14.41,35.37-4.02,11-8.56,21.66-13.63,31.96,4.19,1.05,7.82,2.23,10.88,3.54,3.06,1.31,5.11,2.85,6.16,4.59.7,1.23,1.05,2.44,1.05,3.67,0,2.27-1.05,3.4-3.14,3.4-1.75,0-3.41-.7-4.98-2.09-.52-.35-2.05-.92-4.58-1.71-2.54-.78-5.81-1.61-9.83-2.49-5.77,10.48-12.31,20.52-19.65,30.13-7.34,9.61-15.51,18.17-24.5,25.68-9,7.51-18.99,13.4-30,17.69-11,4.28-23.15,6.42-36.42,6.42ZM180.01,636.03c0,7.51,3.54,13.93,10.61,19.25s16.73,7.99,28.95,7.99c15.89,0,30.09-3.37,42.58-10.09,12.49-6.72,23.54-15.55,33.15-26.46,9.6-10.92,17.9-22.84,24.89-35.76h-.26c-5.24-.7-10.66-1.23-16.25-1.57s-11.18-.53-16.77-.53c-12.75,0-25.55.96-38.39,2.88s-24.76,5.16-35.77,9.69c-9.61,3.85-17.47,8.61-23.58,14.28-6.12,5.68-9.17,12.45-9.17,20.31Z"/>
          <path class="cls-7" d="M395.13,620.04c-5.94,0-10.13-1.7-12.58-5.1-2.45-3.41-3.67-7.65-3.67-12.71,0-4.19.66-8.78,1.97-13.76,1.31-4.99,3.01-9.92,5.11-14.81.17-6.81,2.05-13.53,5.63-20.18,3.58-6.64,8.47-12.14,14.67-16.51,6.2-4.36,13.49-6.54,21.88-6.54s13.93,2.36,17.16,7.07c3.23,4.71,4.85,10.31,4.85,16.77,0,3.84-.44,7.73-1.31,11.65-.88,3.93-2.01,7.65-3.4,11.14-1.4,3.49-3.14,7.03-5.24,10.61-2.1,3.58-4.45,7.12-7.08,10.62,5.24-.88,9.82-2.57,13.76-5.11s7.9-6.07,11.92-10.62c4.02-4.54,8.73-10.31,14.15-17.29,1.05-1.22,2.18-1.84,3.4-1.84,1.4,0,2.58.44,3.54,1.31.96.88,1.44,2.02,1.44,3.41,0,1.05-.35,2.01-1.05,2.88-5.07,6.99-10.18,13.28-15.33,18.87-5.16,5.6-10.96,9.96-17.43,13.1-6.46,3.14-14.24,4.71-23.32,4.71-4.19,3.67-8.73,6.65-13.62,8.91-4.89,2.27-10.05,3.4-15.46,3.4ZM388.05,601.7c0,2.8.56,5.02,1.7,6.68,1.13,1.66,2.92,2.49,5.37,2.49,5.07,0,10.22-1.57,15.46-4.72-5.07-1.22-9.35-3.18-12.84-5.89-3.5-2.71-6.2-5.81-8.12-9.3-1.05,4.19-1.57,7.77-1.57,10.74ZM410.32,552.18c-2.09,1.57-4.63,4.72-7.6,9.44s-5.68,9.87-8.12,15.46c.35,5.41,2.57,10.26,6.68,14.54,4.1,4.28,10.43,6.68,18.99,7.2,6.29-6.11,11.36-13.31,15.2-21.62,3.84-8.29,5.77-15.76,5.77-22.4,0-4.54-1.05-8.2-3.14-11-2.09-2.79-5.42-4.19-9.96-4.19-3.14,0-6.2.53-9.17,1.57-2.97,1.05-5.68,2.45-8.13,4.19.87.88,1.31,1.92,1.31,3.14,0,1.4-.61,2.62-1.83,3.67Z"/>
          <path class="cls-7" d="M466.14,617.68c-1.23,0-2.36-.39-3.41-1.18-1.05-.78-1.48-1.96-1.31-3.54.7-8.73,3.19-18.95,7.47-30.66,4.28-11.7,9.56-23.58,15.85-35.63-2.1-.17-4.19-.43-6.29-.79-1.23-.35-2.19-.95-2.88-1.83-.7-.88-1.05-1.74-1.05-2.62s.3-1.71.92-2.49c.61-.79,1.53-1.18,2.75-1.18,1.05,0,2.23.13,3.54.39,1.31.26,2.75.4,4.32.4h2.88c6.11-11.7,12.58-22.75,19.39-33.15,6.81-10.39,13.1-19.08,18.87-26.07,3.49-4.19,7.16-8.2,11-12.05s7.82-7.03,11.92-9.57c4.1-2.53,8.08-3.8,11.92-3.8,5.07,0,8.6,1.36,10.61,4.06,2.01,2.71,3.02,6.07,3.02,10.09,0,5.77-1.57,11.62-4.72,17.56-2.62,4.89-6.55,10.53-11.79,16.9s-11.31,12.66-18.21,18.87c-6.9,6.2-14.33,11.57-22.27,16.11-7.95,4.54-16.03,7.43-24.24,8.65-3.67,6.99-6.94,13.89-9.83,20.7-2.88,6.81-5.37,13.27-7.47,19.39,1.4-1.74,2.79-3.49,4.19-5.24,4.54-5.58,9.08-10.87,13.63-15.85,4.54-4.98,10.31-9.99,17.29-15.07,6.99-5.06,13.23-9.13,18.74-12.18,5.5-3.06,9.12-4.5,10.87-4.33,3.67.53,5.51,2.54,5.51,6.02,0,2.27-.66,4.85-1.97,7.73s-2.67,5.47-4.06,7.73c-1.4,2.27-2.36,3.85-2.88,4.71-1.93,2.98-4.54,7.43-7.86,13.37s-6.11,11.7-8.38,17.29c-.7,1.92-1.36,3.89-1.97,5.89-.62,2.02-.92,3.71-.92,5.11,0,2.27.96,3.41,2.88,3.41,1.74,0,4.28-.88,7.6-2.62,4.19-2.27,8.08-5.2,11.66-8.78,3.58-3.58,6.68-6.68,9.3-9.3.17-.17,1-1.05,2.49-2.62,1.48-1.57,3.71-3.93,6.68-7.07.69-.88,1.57-1.31,2.62-1.31.87,0,1.71.48,2.49,1.44.78.96,1.18,2.14,1.18,3.54,0,1.57-.44,2.88-1.31,3.93-2.62,3.67-6.2,7.68-10.74,12.05-4.54,4.37-8.56,7.95-12.05,10.75-3.67,2.79-7.43,4.98-11.27,6.54-3.85,1.57-7.34,2.36-10.48,2.36-3.32,0-6.07-.95-8.25-2.88-2.19-1.92-3.28-4.98-3.28-9.17,0-3.84.87-8.13,2.62-12.84,2.44-7.16,6.07-14.24,10.87-21.22s8.78-13.71,11.92-20.18c-12.75,7.51-24.54,16.69-35.37,27.51-10.84,10.83-20.09,22.28-27.77,34.33-.18,1.4-.35,2.8-.53,4.19,0,1.4-.48,2.44-1.44,3.14-.96.7-1.97,1.05-3.01,1.05ZM561.78,463.09c-3.32,0-7.25,1.84-11.79,5.51s-9.22,8.43-14.02,14.28c-4.81,5.85-9.56,12.14-14.28,18.87-4.71,6.73-9,13.2-12.84,19.39-3.85,6.2-6.9,11.31-9.17,15.33,6.99-2.44,14.5-6.29,22.54-11.53,8.03-5.24,15.63-11.53,22.79-18.87,7.16-7.34,13.1-15.46,17.82-24.37,1.4-2.79,2.4-5.2,3.01-7.2s.92-3.71.92-5.11c0-2.44-.57-4.1-1.7-4.98-1.14-.87-2.23-1.31-3.28-1.31Z"/>
          <path class="cls-7" d="M564.65,616.9c-4.89,0-8.51-1.44-10.88-4.33-2.36-2.88-3.54-6.51-3.54-10.87,0-4.89,1.44-10.62,4.32-17.16,2.88-6.55,6.68-13.32,11.4-20.31,4.72-6.99,9.91-13.5,15.59-19.52s11.4-10.91,17.16-14.67c5.77-3.75,11.09-5.64,15.98-5.64,3.31,0,6.55.49,9.69,1.44,3.14.96,5.72,2.85,7.73,5.64s3.01,6.9,3.01,12.31c0,1.92-.52,3.32-1.57,4.19-1.05.88-2.01,1.31-2.88,1.31-1.92,0-2.88-.7-2.88-2.1-.88-5.58-2.66-9.26-5.37-11s-5.28-2.62-7.73-2.62c-3.5,0-7.6,1.75-12.32,5.24-4.71,3.5-9.52,7.95-14.41,13.36-4.89,5.42-9.48,11.23-13.76,17.43-4.28,6.2-7.73,12.14-10.35,17.81-2.62,5.68-3.93,10.35-3.93,14.02,0,1.75.3,3.32.91,4.71.61,1.4,1.61,2.1,3.01,2.1,2.62,0,6.03-1.4,10.22-4.19,4.19-2.79,8.69-6.42,13.5-10.87,4.8-4.46,9.56-9.13,14.28-14.02,4.72-4.89,8.99-9.52,12.84-13.89,3.84-4.37,6.81-7.86,8.91-10.48,1.05-1.57,2.36-2.36,3.93-2.36,1.22,0,2.36.44,3.41,1.31,1.05.88,1.57,2.01,1.57,3.4,0,.71-.26,1.49-.78,2.36-1.23,1.92-2.67,4.63-4.32,8.12-1.66,3.5-3.32,7.25-4.98,11.27-1.66,4.02-3.06,7.73-4.19,11.13-1.14,3.41-1.7,5.99-1.7,7.73s.61,2.62,1.83,2.62c.87,0,1.97-.43,3.28-1.31,1.31-.87,2.49-1.66,3.54-2.36,4.19-3.49,8.21-7.2,12.05-11.13,3.84-3.93,7.34-7.64,10.48-11.13.7-.88,1.57-1.31,2.62-1.31.87,0,1.7.48,2.49,1.44s1.18,2.14,1.18,3.54c0,1.57-.44,2.88-1.31,3.93-2.8,3.67-6.46,7.72-11,12.18-4.54,4.45-8.56,7.99-12.05,10.62-2.27,1.57-4.94,3.1-7.99,4.58-3.06,1.49-5.99,2.23-8.78,2.23-2.1,0-3.85-.65-5.24-1.96-1.4-1.31-2.1-3.63-2.1-6.95,0-2.62.43-5.59,1.31-8.91.87-3.31,1.92-6.72,3.14-10.22-4.89,5.24-10.13,10.4-15.72,15.46-5.59,5.07-10.96,9.3-16.11,12.71-5.16,3.4-9.65,5.11-13.5,5.11Z"/>
          <path class="cls-7" d="M643.52,621.62c-1.23,0-2.36-.43-3.41-1.31-1.05-.88-1.57-1.92-1.57-3.14,0-.36.17-1.05.52-2.1,3.49-7.51,6.94-14.36,10.35-20.56,3.4-6.2,6.94-12.27,10.61-18.21,1.57-2.44,3.36-5.63,5.37-9.56s3.97-8.21,5.9-12.84c1.92-4.63,3.54-9.04,4.85-13.24,1.31-4.19,1.97-7.59,1.97-10.21,0-1.4-.09-2.36-.26-2.88-.17-.17-.26-.53-.26-1.05,0-1.4.66-2.57,1.97-3.54s2.57-1.44,3.8-1.44c1.4,0,2.71.65,3.93,1.96s1.84,3.54,1.84,6.68c0,2.62-.57,6.07-1.71,10.35s-3.01,9.39-5.63,15.32c-1.4,2.98-2.71,5.73-3.93,8.26-1.22,2.54-2.45,4.94-3.67,7.2,6.81-7.16,13.8-13.58,20.96-19.26,7.16-5.67,13.53-10.17,19.13-13.49,5.59-3.32,9.34-4.98,11.27-4.98,2.09,0,3.58.61,4.45,1.84.87,1.23,1.31,2.62,1.31,4.19,0,2.27-.66,4.85-1.97,7.73s-2.67,5.47-4.06,7.73c-1.4,2.27-2.36,3.85-2.88,4.71-1.93,2.98-4.54,7.43-7.86,13.37-3.32,5.94-6.11,11.7-8.38,17.29-.7,1.92-1.36,3.89-1.97,5.89-.62,2.02-.92,3.71-.92,5.11,0,2.27.96,3.41,2.88,3.41,1.74,0,4.28-.88,7.6-2.62,4.19-2.27,8.08-5.2,11.66-8.78,3.58-3.58,6.68-6.68,9.3-9.3.17-.17,1-1.05,2.49-2.62s3.71-3.93,6.68-7.07c.69-.88,1.57-1.31,2.62-1.31.87,0,1.71.48,2.49,1.44.78.96,1.18,2.14,1.18,3.54,0,1.57-.44,2.88-1.31,3.93-2.62,3.67-6.2,7.68-10.74,12.05-4.54,4.37-8.56,7.95-12.05,10.75-3.67,2.79-7.38,5.02-11.13,6.68-3.76,1.67-7.47,2.49-11.14,2.49-3.14,0-5.77-.6-7.86-1.83-2.1-1.23-3.14-4.46-3.14-9.7,0-6.63,1.7-13.18,5.11-19.65,3.4-6.46,7.25-12.84,11.53-19.13s7.82-12.22,10.61-17.82c-4.37,2.62-10.18,6.65-17.42,12.06-7.25,5.41-14.85,11.75-22.8,19-7.95,7.25-15.16,15.15-21.61,23.71-1.23,2.27-2.54,4.71-3.93,7.34-1.4,2.62-2.8,5.51-4.19,8.65-1.57,3.32-3.76,4.98-6.55,4.98Z"/>
          <path class="cls-7" d="M1016.38,652.28c-8.56,0-18.21-1.54-28.95-4.58-10.74-3.06-21.84-6.86-33.28-11.4-11.44-4.55-22.49-9.22-33.14-14.02-10.66-4.81-20.18-8.96-28.56-12.45-7.86,8.55-16.95,15.67-27.25,21.35-10.31,5.67-22.1,8.51-35.37,8.51s-22.27-2.54-28.56-7.6c-6.29-5.07-9.43-10.83-9.43-17.29,0-4.54,1.61-8.96,4.85-13.24,3.23-4.28,8.08-7.82,14.54-10.61,6.46-2.8,14.5-4.19,24.11-4.19s19.39,1.18,28.3,3.54,17.64,5.2,26.2,8.51c4.54-5.58,8.82-11.75,12.84-18.47,4.02-6.72,7.86-13.58,11.53-20.57-5.77.53-11.62.79-17.56.79-12.23,0-24.81-1.31-37.73-3.93-10.65-2.27-18.73-6.33-24.24-12.19-5.5-5.85-8.25-12.18-8.25-18.99,0-8.03,3.75-15.76,11.27-23.19,7.51-7.42,18.95-12.53,34.32-15.33h1.05c1.4,0,2.57.48,3.54,1.44.96.96,1.44,2.05,1.44,3.27,0,2.27-1.31,3.67-3.93,4.19-13.45,2.45-23.1,6.34-28.95,11.66-5.85,5.33-8.78,10.79-8.78,16.38s2.23,10.35,6.68,14.8c4.45,4.46,10.44,7.38,17.95,8.78,12.4,2.62,24.45,3.93,36.16,3.93,7.51,0,14.76-.53,21.75-1.57,4.72-9.96,9.34-19.82,13.89-29.6,4.54-9.79,9.21-18.91,14.02-27.39,4.8-8.47,9.99-15.67,15.59-21.61,5.94-6.12,11.79-10.57,17.56-13.37,5.77-2.79,11.09-4.19,15.98-4.19,7.34,0,13.4,2.49,18.21,7.47,4.8,4.98,7.2,11.31,7.2,19,0,5.41-1.4,11.18-4.19,17.29-2.8,6.12-7.25,12.31-13.36,18.6-11.18,11.53-23.36,20.74-36.55,27.64-13.19,6.9-27.03,11.66-41.53,14.28-1.23,2.62-2.4,5.11-3.54,7.47-1.14,2.36-2.32,4.68-3.54,6.94-2.8,5.07-5.85,10.18-9.17,15.33-3.32,5.16-6.9,10.18-10.74,15.07,5.77,2.62,11.57,5.29,17.42,7.99,5.85,2.71,11.83,5.28,17.95,7.73,4.54,1.74,10.22,4.02,17.03,6.81s14.1,5.59,21.88,8.39c7.77,2.79,15.46,5.11,23.06,6.94,7.6,1.84,14.36,2.75,20.3,2.75,2.79,0,5.24-.26,7.34-.78.35,0,.61-.05.78-.13.17-.09.35-.13.53-.13,1.4,0,2.49.52,3.27,1.57.79,1.05,1.18,2.18,1.18,3.4,0,2.26-1.22,3.67-3.67,4.19-2.8.52-5.94.78-9.43.78ZM801.52,614.81c0,4.02,2.31,7.64,6.94,10.87s11.75,4.85,21.35,4.85c11.18,0,21.18-2.23,30-6.68,8.82-4.45,16.73-10.34,23.71-17.69h-.26c-7.69-2.96-15.55-5.45-23.58-7.47-8.04-2-16.16-3.01-24.37-3.01-11.01,0-19.39,2.01-25.15,6.02-5.77,4.02-8.65,8.38-8.65,13.1ZM969.48,477.51c-5.24,5.59-10.13,12.27-14.67,20.04-4.54,7.77-8.82,15.98-12.84,24.63-4.02,8.65-7.86,17.17-11.53,25.55,12.22-2.97,23.93-7.55,35.11-13.76,11.18-6.2,21.57-14.19,31.18-23.98,5.24-5.41,9-10.7,11.27-15.86,2.27-5.15,3.4-9.82,3.4-14.01,0-5.07-1.44-9.21-4.32-12.45-2.88-3.23-6.68-4.85-11.4-4.85-3.67,0-7.73,1.18-12.19,3.54-4.45,2.36-9.13,6.07-14.02,11.14Z"/>
          <path class="cls-7" d="M998.04,620.04c-5.94,0-10.13-1.7-12.58-5.1-2.45-3.41-3.67-7.65-3.67-12.71,0-4.19.66-8.78,1.97-13.76,1.31-4.99,3.01-9.92,5.11-14.81.17-6.81,2.05-13.53,5.63-20.18,3.58-6.64,8.47-12.14,14.67-16.51,6.2-4.36,13.49-6.54,21.88-6.54s13.93,2.36,17.16,7.07c3.23,4.71,4.85,10.31,4.85,16.77,0,3.84-.44,7.73-1.31,11.65-.88,3.93-2.01,7.65-3.4,11.14-1.4,3.49-3.14,7.03-5.24,10.61-2.1,3.58-4.45,7.12-7.08,10.62,5.24-.88,9.82-2.57,13.76-5.11s7.9-6.07,11.92-10.62c4.02-4.54,8.73-10.31,14.15-17.29,1.05-1.22,2.18-1.84,3.4-1.84,1.4,0,2.58.44,3.54,1.31.96.88,1.44,2.02,1.44,3.41,0,1.05-.35,2.01-1.05,2.88-5.07,6.99-10.18,13.28-15.33,18.87-5.16,5.6-10.96,9.96-17.43,13.1-6.46,3.14-14.24,4.71-23.32,4.71-4.19,3.67-8.73,6.65-13.62,8.91-4.89,2.27-10.05,3.4-15.46,3.4ZM990.97,601.7c0,2.8.56,5.02,1.7,6.68,1.13,1.66,2.92,2.49,5.37,2.49,5.07,0,10.22-1.57,15.46-4.72-5.07-1.22-9.35-3.18-12.84-5.89-3.5-2.71-6.2-5.81-8.12-9.3-1.05,4.19-1.57,7.77-1.57,10.74ZM1013.24,552.18c-2.09,1.57-4.63,4.72-7.6,9.44s-5.68,9.87-8.12,15.46c.35,5.41,2.57,10.26,6.68,14.54,4.1,4.28,10.43,6.68,18.99,7.2,6.29-6.11,11.36-13.31,15.2-21.62,3.84-8.29,5.77-15.76,5.77-22.4,0-4.54-1.05-8.2-3.14-11-2.09-2.79-5.42-4.19-9.96-4.19-3.14,0-6.2.53-9.17,1.57-2.97,1.05-5.68,2.45-8.13,4.19.87.88,1.31,1.92,1.31,3.14,0,1.4-.61,2.62-1.83,3.67Z"/>
          <path class="cls-7" d="M1177.78,573.15c.87,0,1.7.48,2.49,1.44s1.18,2.14,1.18,3.54c0,1.57-.44,2.88-1.31,3.93-2.62,3.67-6.25,7.72-10.88,12.18-4.63,4.45-8.69,7.99-12.18,10.62-6.64,4.89-13.8,8.56-21.49,11-3.85,1.22-8.04,2.09-12.58,2.62-4.54.52-9.08.78-13.63.78-3.84,1.92-7.56,3.45-11.13,4.58-3.58,1.14-7.12,1.71-10.61,1.71-3.14,0-6.07-.74-8.78-2.23-2.71-1.49-4.76-3.8-6.16-6.95-.18-.52-.35-1.05-.52-1.57-.18-.53-.35-1.05-.53-1.57-2.8,6.81-6.16,14.54-10.09,23.18-3.93,8.65-8.48,17.43-13.62,26.34-5.15,8.9-11,17.33-17.56,25.28s-13.84,14.72-21.88,20.31c-4.37,3.15-9.08,4.72-14.15,4.72-3.14,0-5.8-.84-7.99-2.49-2.18-1.67-3.28-4.24-3.28-7.73,0-6.82,2.01-13.93,6.02-21.35,4.02-7.43,9.26-14.85,15.72-22.28,6.47-7.42,13.41-14.63,20.83-21.61,7.43-6.99,14.54-13.5,21.35-19.52,6.82-6.02,12.49-11.31,17.03-15.85,1.22-2.1,2.88-5.33,4.98-9.7,2.09-4.37,4.32-9.3,6.68-14.8s4.54-11.13,6.55-16.9c2-5.76,3.54-11.09,4.58-15.98,1.05-4.89,1.31-8.82.79-11.79-.35-2.45.13-4.37,1.44-5.77,1.31-1.4,2.84-2.09,4.58-2.09,1.22,0,2.31.48,3.28,1.44.96.96,1.44,2.4,1.44,4.32,0,4.89-1.01,11.18-3.01,18.87-2.01,7.69-4.5,15.73-7.47,24.11,3.31-3.84,7.38-8.25,12.18-13.23s10.17-9.65,16.12-14.02c3.31-2.45,6.94-4.85,10.87-7.21,3.93-2.36,7.73-4.32,11.4-5.89s6.64-2.36,8.91-2.36c5.59,0,9.39,1.66,11.4,4.98s3.01,7.16,3.01,11.53c0,6.64-1.79,13.76-5.37,21.35-3.58,7.6-8.34,15.03-14.28,22.27-5.94,7.25-12.49,13.67-19.65,19.26,1.57-.17,3.01-.4,4.32-.66,1.31-.26,2.49-.47,3.54-.65,5.06-1.4,9.74-3.54,14.02-6.42,4.28-2.88,8.51-6.16,12.71-9.82,3.49-2.97,6.72-6.11,9.69-9.44,2.97-3.31,5.77-6.37,8.39-9.17.7-.88,1.57-1.31,2.62-1.31ZM1006.42,698.13c10.31-10.13,19.78-21.87,28.43-35.24,8.65-13.36,16.2-27.29,22.67-41.79-1.75,1.4-4.76,3.97-9.04,7.72-4.28,3.76-9.17,8.26-14.67,13.5-5.5,5.24-11,10.96-16.5,17.16-5.51,6.2-10.31,12.49-14.41,18.87s-6.94,12.53-8.52,18.48c-.17.69-.26,1.57-.26,2.61,0,2.62,1.05,3.93,3.14,3.93,2.62,0,5.68-1.74,9.17-5.24ZM1147.65,539.87c-2.62,0-6.42,1.49-11.4,4.46s-10.61,6.94-16.9,11.92-12.76,10.48-19.39,16.51-12.84,12.1-18.6,18.21c-.88,2.27-1.83,4.54-2.88,6.81-1.05,2.27-2.01,4.46-2.88,6.55-.17.35-.35.74-.52,1.18-.17.44-.35.91-.52,1.44.87-.53,1.66-.79,2.36-.79.87,0,1.92.44,3.14,1.31,1.22.88,2.18,1.49,2.88,1.84,3.49,1.74,6.99,2.75,10.48,3.02,3.49.26,7.34.04,11.53-.66,6.11-3.14,11.96-7.55,17.56-13.23,5.59-5.68,10.61-11.75,15.07-18.21,4.45-6.46,7.99-12.66,10.61-18.6,2.62-5.94,3.93-10.83,3.93-14.68,0-1.92-.18-3.57-.52-4.98-.35-1.4-1.66-2.09-3.93-2.09Z"/>
          <path class="cls-7" d="M1189.05,619.52c-5.42,0-10-1.66-13.76-4.98-3.76-3.32-5.63-9.08-5.63-17.29,0-5.59,1.44-12.14,4.32-19.66,2.88-7.51,6.77-14.8,11.66-21.87,4.89-7.08,10.31-12.93,16.24-17.56,5.94-4.62,11.96-6.94,18.08-6.94,4.02,0,7.03,1.44,9.04,4.33,2.01,2.88,3.02,6.33,3.02,10.34,0,5.94-1.93,11.71-5.77,17.3-3.85,5.59-8.69,10.13-14.54,13.62-5.85,3.5-11.66,5.24-17.42,5.24-4.72,0-8.3-1.49-10.74-4.46-1.4,3.5-2.54,6.9-3.41,10.22-.88,3.32-1.31,6.47-1.31,9.44,0,5.06,1.09,8.6,3.28,10.61,2.18,2.01,4.93,3.02,8.25,3.02,4.02,0,8.51-1.05,13.49-3.15,4.98-2.09,9.65-4.58,14.02-7.47,4.37-2.88,7.6-5.28,9.7-7.2,3.49-2.97,6.85-6.24,10.09-9.82,3.23-3.58,6.07-6.95,8.51-10.09.87-1.05,1.83-1.57,2.88-1.57s1.96.48,2.75,1.44,1.18,2.14,1.18,3.54c0,1.23-.44,2.45-1.31,3.67-2.8,3.5-6.25,7.47-10.35,11.93-4.11,4.45-8.69,8.6-13.76,12.45-2.8,2.27-6.38,4.54-10.74,6.81-4.37,2.27-8.96,4.19-13.76,5.77-4.81,1.57-9.48,2.36-14.02,2.36ZM1193.76,573.67c3.49,0,7.29-1.13,11.4-3.4,4.1-2.27,7.77-5.28,11.01-9.04,3.23-3.75,5.37-7.82,6.42-12.18.17-.35.26-.79.26-1.31v-1.31c0-3.15-1.14-4.71-3.4-4.71-3.67,0-7.51,1.35-11.53,4.06-4.02,2.71-7.82,6.29-11.4,10.75-3.58,4.45-6.77,9.3-9.56,14.54.7.53,1.4,1.01,2.1,1.44.69.44,1.4.74,2.1.91.35.18.78.26,1.31.26h1.31Z"/>
          <path class="cls-7" d="M1217.86,715.16c-6.81,0-12.18-1.71-16.11-5.11s-5.9-7.82-5.9-13.23,1.53-11.49,4.59-18.21c3.06-6.73,7.12-13.32,12.19-19.78,5.94-7.69,13.45-14.76,22.53-21.22,9.08-6.47,19-11.76,29.74-15.86s21.79-6.68,33.14-7.73c.7-3.31,1.05-6.46,1.05-9.43,0-2.44-.31-4.63-.91-6.55-.62-1.92-1.7-3.58-3.28-4.98-1.23-1.22-2.8-2.19-4.71-2.88-1.93-.7-4.37-1.05-7.34-1.05-3.84,0-9.08.96-15.72,2.88-.88.88-1.66,1.74-2.36,2.62-.7.88-1.23,1.48-1.57,1.83-1.05,1.05-2.09,1.57-3.14,1.57-1.22,0-2.36-.48-3.4-1.44-1.05-.95-1.57-2.05-1.57-3.27,0-.88.43-1.92,1.31-3.15,1.92-2.26,6.03-6.37,12.32-12.31,6.29-5.94,13.1-12.75,20.44-20.44l7.08-7.34c-5.77-.53-10.7-1.71-14.8-3.54-4.11-1.84-9.22-2.75-15.33-2.75-2.1,0-3.14,1.05-3.14,3.14,0,1.57.52,3.41,1.57,5.51,1.05,2.09,1.92,3.5,2.62,4.19s1.05,1.4,1.05,2.09c0,.88-.62,1.71-1.84,2.49-1.22.79-2.53,1.18-3.93,1.18-1.57,0-2.8-.43-3.67-1.31-1.4-1.4-2.62-3.44-3.67-6.16-1.05-2.71-1.57-5.37-1.57-7.99,0-3.31.91-6.2,2.75-8.65,1.84-2.44,5.11-3.67,9.83-3.67,4.37,0,8.03.44,11,1.31,2.97.88,5.94,1.84,8.91,2.88s6.46,1.83,10.48,2.36c1.92.18,3.84.13,5.76-.13s3.76-.82,5.51-1.7c2.09-2.1,4.02-3.85,5.77-5.24,1.74-1.4,2.97-2.19,3.67-2.36h1.05c1.4,0,2.44.43,3.14,1.31.7.88,1.05,1.83,1.05,2.88,0,1.57-.52,2.88-1.57,3.93-2.45,3.15-5.24,5.59-8.39,7.34l-35.11,34.59c2.97-.53,5.68-.79,8.12-.79,3.49,0,6.59.49,9.3,1.44,2.71.96,4.94,2.23,6.68,3.8,2.62,2.27,4.49,4.98,5.63,8.13,1.13,3.14,1.7,6.47,1.7,9.96,0,2.97-.35,6.12-1.05,9.43,2.62,0,5.41.44,8.38,1.31,2.1.53,3.14,1.84,3.14,3.93,0,1.4-.57,2.71-1.7,3.93s-2.58,1.57-4.32,1.05c-1.23-.35-2.45-.61-3.67-.78-1.23-.18-2.54-.26-3.93-.26h-.52c-2.62,7.68-6.16,15.76-10.61,24.24-4.45,8.47-9.65,16.73-15.59,24.76-5.94,8.03-12.31,15.33-19.13,21.88s-13.8,11.75-20.96,15.59c-7.16,3.84-14.15,5.76-20.96,5.76ZM1206.07,695.51c0,2.96.96,5.41,2.88,7.34,1.92,1.92,5.33,2.88,10.22,2.88,5.77,0,11.66-1.83,17.69-5.5,6.03-3.67,12.01-8.51,17.95-14.55,5.94-6.02,11.53-12.71,16.77-20.04,5.24-7.34,9.87-14.67,13.89-22.01,4.02-7.34,7.16-14.07,9.43-20.18-9.61,1.22-19.09,3.67-28.43,7.34-9.35,3.67-17.95,8.34-25.81,14.02-7.86,5.68-14.5,12.1-19.91,19.26-1.57,2.09-3.54,4.98-5.9,8.65s-4.41,7.51-6.16,11.53c-1.74,4.01-2.62,7.77-2.62,11.27Z"/>
        </g>
      </g>
    </g>
  </g>
</svg>