<?xml version="1.0" encoding="UTF-8"?>
<svg id="Capa_2" data-name="Capa 2" xmlns="http://www.w3.org/2000/svg" viewBox="0 0 32.37 46.2">
  <g id="_Ñëîé_1" data-name="Ñëîé 1">
    <g>
      <path d="M.96,30.95c-.3,0-.6-.15-.77-.43-.26-.42-.13-.98.29-1.24l9.54-5.91c.42-.26.98-.13,1.24.29.26.42.13.98-.29,1.24L1.44,30.81c-.15.09-.31.13-.47.13Z"/>
      <path d="M31.41,30.95c-.16,0-.33-.04-.47-.13l-9.54-5.91c-.42-.26-.55-.82-.29-1.24.26-.42.82-.55,1.24-.29l9.54,5.91c.42.26.55.82.29,1.24-.17.27-.46.43-.77.43Z"/>
      <path d="M27.7,43.42H4.67c-.5,0-.9-.4-.9-.9v-10.8c0-.5.4-.9.9-.9s.9.4.9.9v9.9h21.23v-9.9c0-.5.4-.9.9-.9s.9.4.9.9v10.8c0,.5-.4.9-.9.9Z"/>
      <path d="M31.47,46.2c-.5,0-.9-.4-.9-.9v-1.88H1.8v1.88c0,.5-.4.9-.9.9s-.9-.4-.9-.9v-2.78c0-.5.4-.9.9-.9h30.57c.5,0,.9.4.9.9v2.78c0,.5-.4.9-.9.9Z"/>
      <path d="M10.5,25.03c-.5,0-.9-.4-.9-.9v-6.44c0-.5.4-.9.9-.9s.9.4.9.9v6.44c0,.5-.4.9-.9.9Z"/>
      <path d="M21.87,25.03c-.5,0-.9-.4-.9-.9v-6.44c0-.5.4-.9.9-.9s.9.4.9.9v6.44c0,.5-.4.9-.9.9Z"/>
      <path d="M7.24,16.77c-.27,0-.54-.12-.71-.35-.3-.39-.23-.96.16-1.26l8.95-6.91c.32-.25.78-.25,1.1,0l8.95,6.91c.39.3.47.87.16,1.26-.3.39-.87.47-1.26.16l-8.4-6.49-8.4,6.49c-.16.13-.36.19-.55.19Z"/>
      <path d="M16.18,9.86c-.5,0-.9-.4-.9-.9V.9c0-.5.4-.9.9-.9s.9.4.9.9v8.06c0,.5-.4.9-.9.9Z"/>
      <path d="M19.12,4.9h-5.88c-.5,0-.9-.4-.9-.9s.4-.9.9-.9h5.88c.5,0,.9.4.9.9s-.4.9-.9.9Z"/>
      <path d="M19.24,43.42h-6.11c-.5,0-.9-.4-.9-.9v-6.28c0-2.18,1.77-3.95,3.95-3.95s3.95,1.77,3.95,3.95v6.28c0,.5-.4.9-.9.9ZM14.03,41.62h4.31v-5.38c0-1.19-.96-2.15-2.15-2.15s-2.15.97-2.15,2.15v5.38Z"/>
      <path d="M16.18,23.88c-.5,0-.9-.4-.9-.9v-2.07c0-.5.4-.9.9-.9s.9.4.9.9v2.07c0,.5-.4.9-.9.9Z"/>
    </g>
  </g>
</svg>