<?xml version="1.0" encoding="UTF-8"?>
<svg id="Capa_2" data-name="Capa 2" xmlns="http://www.w3.org/2000/svg" viewBox="0 0 37.58 41.29">
  <g id="_Ñëîé_1" data-name="Ñëîé 1">
    <g>
      <path d="M31.54,36.07H6.04c-.5,0-.9-.4-.9-.9v-16.61c0-7.53,6.12-13.65,13.65-13.65s13.65,6.12,13.65,13.65v16.61c0,.5-.4.9-.9.9ZM6.94,34.27h23.7v-15.71c0-6.53-5.32-11.85-11.85-11.85s-11.85,5.32-11.85,11.85v15.71Z"/>
      <path d="M23.6,33.46h-9.62c-.5,0-.9-.4-.9-.9s.4-.9.9-.9h9.62c.5,0,.9.4.9.9s-.4.9-.9.9Z"/>
      <path d="M23.6,36.07h-9.62c-.5,0-.9-.4-.9-.9s.4-.9.9-.9h9.62c.5,0,.9.4.9.9s-.4.9-.9.9Z"/>
      <path d="M30.85,41.29H6.73c-.5,0-.9-.4-.9-.9s.4-.9.9-.9h24.12c.5,0,.9.4.9.9s-.4.9-.9.9Z"/>
      <path d="M27.98,38.68H9.6c-.5,0-.9-.4-.9-.9s.4-.9.9-.9h18.37c.5,0,.9.4.9.9s-.4.9-.9.9Z"/>
      <path d="M21.92,25.14h-6.25c-.31,0-.6-.16-.77-.43l-2-3.25c-.17-.28-.18-.63-.02-.91.16-.28.46-.46.79-.46h10.25c.33,0,.63.18.79.46.16.29.15.63-.02.91l-2,3.25c-.16.27-.45.43-.77.43ZM16.17,23.34h5.24l.89-1.45h-7.03l.89,1.45Z"/>
      <path d="M18.79,33.46c-.5,0-.9-.4-.9-.9v-8.31c0-.5.4-.9.9-.9s.9.4.9.9v8.31c0,.5-.4.9-.9.9Z"/>
      <path d="M16.81,6.86c-.41,0-.78-.28-.88-.7-.11-.48.19-.97.67-1.08.75-.18,1.28-.84,1.28-1.62,0-.92-.75-1.66-1.66-1.66s-1.66.75-1.66,1.66c0,.5-.4.9-.9.9s-.9-.4-.9-.9c0-1.91,1.55-3.46,3.46-3.46s3.46,1.55,3.46,3.46c0,1.62-1.1,3-2.67,3.37-.07.02-.14.02-.21.02Z"/>
      <path d="M20.77,6.86c-.07,0-.14,0-.21-.02-1.57-.37-2.67-1.75-2.67-3.37,0-1.91,1.55-3.46,3.46-3.46s3.46,1.55,3.46,3.46c0,.5-.4.9-.9.9s-.9-.4-.9-.9c0-.92-.75-1.66-1.66-1.66s-1.66.75-1.66,1.66c0,.78.53,1.44,1.28,1.62.48.11.78.6.67,1.08-.1.42-.47.7-.87.7Z"/>
      <path d="M5.61,13.18c-.46,0-.91-.07-1.34-.2-1.2-.38-2.44-1.61-2.38-3.15.05-1.16.82-2.49,2.15-2.67,1.05-.14,2.03.24,2.69,1.06.31.39.25.95-.13,1.27-.38.31-.95.25-1.27-.13-.27-.33-.62-.47-1.06-.41-.34.05-.58.6-.6.96-.02.59.56,1.18,1.12,1.36,1.1.35,2.55-.09,3.1-.95.21-.32.17-.98.13-1.62-.07-1.16-.16-2.6,1.1-3.47,1.29-.9,2.49-.5,3.54-.14.84.28,1.63.55,2.61.28.48-.13.98.15,1.1.63.13.48-.15.97-.63,1.1-1.5.41-2.69,0-3.65-.31-1.03-.35-1.44-.44-1.94-.09-.4.28-.39.9-.33,1.88.05.89.11,1.89-.41,2.71-.75,1.17-2.29,1.89-3.82,1.89Z"/>
      <path d="M2.96,35.79c-.59,0-1.19-.16-1.7-.53-.94-.68-1.62-2.05-1.04-3.27.46-.96,1.32-1.56,2.37-1.66.5-.05.94.31.98.81.05.49-.31.93-.81.98-.42.04-.73.26-.92.66-.15.31.18.81.47,1.03.48.35,1.29.18,1.75-.19.68-.55,1.37-1.51.77-2.92-.17-.4-.62-.76-1.11-1.15-.83-.67-1.87-1.51-1.91-2.97-.04-1.57.83-2.33,1.59-3,.59-.52,1.16-1.01,1.51-1.97.45-1.23.16-2.78-.39-3.14-.77-.51-1.8-.29-2.3.47-.24.37-.33.81-.24,1.25.09.43.34.81.71,1.05.41.27.53.83.26,1.25-.27.41-.83.53-1.25.25-.77-.51-1.3-1.29-1.48-2.2-.19-.91,0-1.83.5-2.6,1.05-1.59,3.2-2.03,4.8-.98,1.45.96,1.74,3.5,1.09,5.27-.51,1.39-1.34,2.12-2.01,2.7-.71.62-1,.9-.98,1.6.01.6.48,1,1.24,1.62.61.49,1.29,1.04,1.64,1.86.78,1.85.3,3.73-1.3,5.02-.57.46-1.4.78-2.24.78Z"/>
      <path d="M4.61,17.41c-1.5,0-2.72-1.22-2.72-2.72s1.22-2.72,2.72-2.72,2.72,1.22,2.72,2.72-1.22,2.72-2.72,2.72ZM4.61,13.77c-.51,0-.92.41-.92.92s.41.92.92.92.92-.41.92-.92-.41-.92-.92-.92Z"/>
      <path d="M31.97,13.18c-1.52,0-3.06-.72-3.82-1.89-.52-.82-.46-1.82-.41-2.7.06-.99.07-1.61-.33-1.89-.5-.35-.91-.26-1.94.09-.96.32-2.15.72-3.65.31-.48-.13-.76-.62-.63-1.1.13-.48.63-.76,1.1-.63.98.27,1.77,0,2.61-.28,1.05-.35,2.25-.76,3.54.14,1.26.87,1.17,2.31,1.1,3.47-.04.64-.08,1.3.13,1.62.55.85,1.99,1.29,3.1.95.56-.18,1.15-.76,1.12-1.35-.01-.36-.25-.91-.6-.96-.43-.06-.79.08-1.06.41-.31.38-.88.44-1.27.13-.39-.31-.44-.88-.13-1.27.66-.82,1.65-1.2,2.69-1.06,1.33.18,2.11,1.51,2.15,2.67.06,1.53-1.18,2.76-2.38,3.14-.43.14-.89.2-1.34.2Z"/>
      <path d="M34.63,35.79c-.83,0-1.66-.31-2.23-.78-1.6-1.29-2.08-3.17-1.3-5.02.34-.81,1.03-1.37,1.64-1.86.76-.61,1.22-1.02,1.24-1.62.02-.7-.27-.98-.98-1.6-.67-.59-1.5-1.31-2.01-2.7-.65-1.77-.37-4.31,1.08-5.27,1.59-1.05,3.75-.61,4.8.98.51.77.69,1.7.5,2.6-.19.91-.71,1.69-1.49,2.2-.42.27-.97.16-1.25-.26-.27-.42-.16-.97.26-1.25.37-.25.62-.62.71-1.05.09-.43,0-.88-.24-1.25-.5-.76-1.54-.97-2.3-.47-.55.36-.84,1.91-.39,3.14.35.96.91,1.45,1.51,1.97.76.67,1.63,1.43,1.59,3-.04,1.46-1.07,2.3-1.91,2.97-.48.39-.94.76-1.11,1.15-.6,1.42.09,2.37.78,2.93.46.37,1.27.53,1.75.19.29-.21.62-.72.47-1.03-.19-.39-.5-.61-.92-.66-.5-.05-.86-.49-.81-.98.05-.5.49-.86.98-.81,1.05.1,1.91.71,2.37,1.66.58,1.21-.1,2.59-1.04,3.27-.52.37-1.11.53-1.7.53Z"/>
      <path d="M32.97,17.41c-1.5,0-2.72-1.22-2.72-2.72s1.22-2.72,2.72-2.72,2.72,1.22,2.72,2.72-1.22,2.72-2.72,2.72ZM32.97,13.77c-.51,0-.92.41-.92.92s.41.92.92.92.92-.41.92-.92-.41-.92-.92-.92Z"/>
    </g>
  </g>
</svg>