<?xml version="1.0" encoding="UTF-8"?>
<svg id="Capa_2" data-name="Capa 2" xmlns="http://www.w3.org/2000/svg" viewBox="0 0 50.02 34.05">
  <g id="_Ñëîé_1" data-name="Ñëîé 1">
    <g>
      <g>
        <path d="M13.44,34.05c-7.41,0-13.44-6.03-13.44-13.44S6.03,7.17,13.44,7.17s13.44,6.03,13.44,13.44c0,.58-.04,1.16-.11,1.73-.06.49-.51.84-1.01.78-.49-.06-.84-.51-.78-1.01.06-.49.1-1,.1-1.5,0-6.42-5.22-11.64-11.64-11.64S1.8,14.19,1.8,20.61s5.22,11.64,11.64,11.64c3.09,0,5.99-1.2,8.19-3.37.35-.35.92-.35,1.27,0,.35.35.35.92,0,1.27-2.53,2.51-5.89,3.89-9.45,3.89Z"/>
        <path d="M34.38,31.26c-8.62,0-15.63-7.01-15.63-15.63,0-.46.02-.91.06-1.36.04-.5.48-.87.97-.82.5.04.86.48.82.97-.03.4-.05.8-.05,1.21,0,7.63,6.21,13.83,13.83,13.83s13.83-6.2,13.83-13.83S42.01,1.8,34.38,1.8c-4.38,0-8.41,2.01-11.05,5.51-.3.4-.87.47-1.26.18-.4-.3-.48-.86-.18-1.26,2.98-3.96,7.54-6.22,12.48-6.22,8.62,0,15.63,7.01,15.63,15.63s-7.01,15.63-15.63,15.63Z"/>
        <path d="M14.8,8.97h-2.7c-.3,0-.59-.15-.75-.41l-2.15-3.31c-.23-.35-.18-.81.11-1.11l2.15-2.24c.17-.18.4-.28.65-.28h2.7c.24,0,.48.1.65.28l2.15,2.24c.29.3.33.76.11,1.11l-2.15,3.31c-.17.26-.45.41-.75.41ZM12.58,7.17h1.73l1.5-2.3-1.39-1.44h-1.94l-1.39,1.44,1.5,2.3Z"/>
      </g>
      <path d="M13.44,30.85c-5.65,0-10.24-4.59-10.24-10.24s4.59-10.24,10.24-10.24c1.58,0,3.1.35,4.51,1.04.45.22.63.76.41,1.2-.22.45-.76.63-1.2.41-1.16-.57-2.41-.86-3.72-.86-4.65,0-8.44,3.79-8.44,8.44s3.79,8.44,8.44,8.44c2.39,0,4.68-1.02,6.28-2.8.33-.37.9-.4,1.27-.07.37.33.4.9.07,1.27-1.94,2.16-4.72,3.4-7.62,3.4Z"/>
      <path d="M34.38,28.02c-2.48,0-4.88-.73-6.93-2.12-.41-.28-.52-.84-.24-1.25.28-.41.84-.52,1.25-.24,1.75,1.18,3.8,1.81,5.92,1.81,5.84,0,10.59-4.75,10.59-10.59s-4.75-10.59-10.59-10.59c-3.65,0-7,1.85-8.96,4.94-.26.42-.82.55-1.24.28-.42-.27-.55-.82-.28-1.24,2.29-3.62,6.2-5.78,10.48-5.78,6.83,0,12.39,5.56,12.39,12.39s-5.56,12.39-12.39,12.39Z"/>
    </g>
  </g>
</svg>