<?xml version="1.0" encoding="UTF-8"?>
<svg id="Capa_2" data-name="Capa 2" xmlns="http://www.w3.org/2000/svg" viewBox="0 0 34.37 40.14">
  <g id="_Ñëîé_1" data-name="Ñëîé 1">
    <g>
      <path d="M30.07,12.1H.9C.41,12.1,0,11.7,0,11.2v-7.16C0,3.55.41,3.14.9,3.14h29.17c.5,0,.9.4.9.9v7.16c0,.5-.4.9-.9.9ZM1.8,10.3h27.37v-5.36H1.8v5.36Z"/>
      <path d="M27.4,36.74H3.57C1.6,36.74,0,35.14,0,33.17V14.74c0-.5.4-.9.9-.9s.9.4.9.9v18.43c0,.97.79,1.77,1.77,1.77h23.83c.97,0,1.77-.79,1.77-1.77V14.74c0-.5.4-.9.9-.9s.9.4.9.9v18.43c0,1.97-1.6,3.57-3.57,3.57Z"/>
      <path d="M33.47,12.1c-.5,0-.9-.4-.9-.9v-7.16c0-.5.4-.9.9-.9s.9.4.9.9v7.16c0,.5-.4.9-.9.9Z"/>
      <path d="M27.4,40.14H3.57c-1.07,0-2.11-.24-3.07-.71-.45-.22-.63-.76-.41-1.2.22-.45.76-.63,1.2-.41.71.35,1.48.53,2.27.53h23.83c2.85,0,5.17-2.32,5.17-5.17V14.74c0-.5.4-.9.9-.9s.9.4.9.9v18.43c0,3.84-3.13,6.97-6.97,6.97Z"/>
      <g>
        <path d="M7.05,4.94c-.5,0-.9-.4-.9-.9V.9c0-.5.4-.9.9-.9s.9.4.9.9v3.14c0,.5-.4.9-.9.9Z"/>
        <path d="M12.67,4.94c-.5,0-.9-.4-.9-.9V.9c0-.5.4-.9.9-.9s.9.4.9.9v3.14c0,.5-.4.9-.9.9Z"/>
        <path d="M18.3,4.94c-.5,0-.9-.4-.9-.9V.9c0-.5.4-.9.9-.9s.9.4.9.9v3.14c0,.5-.4.9-.9.9Z"/>
        <path d="M23.92,4.94c-.5,0-.9-.4-.9-.9V.9c0-.5.4-.9.9-.9s.9.4.9.9v3.14c0,.5-.4.9-.9.9Z"/>
      </g>
      <g>
        <g>
          <path d="M7.67,21.97c-1.7,0-3.09-1.38-3.09-3.09s1.38-3.09,3.09-3.09,3.09,1.38,3.09,3.09-1.38,3.09-3.09,3.09ZM7.67,17.59c-.71,0-1.29.58-1.29,1.29s.58,1.29,1.29,1.29,1.29-.58,1.29-1.29-.58-1.29-1.29-1.29Z"/>
          <path d="M15.49,21.97c-1.7,0-3.09-1.38-3.09-3.09s1.38-3.09,3.09-3.09,3.09,1.38,3.09,3.09-1.38,3.09-3.09,3.09ZM15.49,17.59c-.71,0-1.29.58-1.29,1.29s.58,1.29,1.29,1.29,1.29-.58,1.29-1.29-.58-1.29-1.29-1.29Z"/>
          <path d="M23.3,21.97c-1.7,0-3.09-1.38-3.09-3.09s1.39-3.09,3.09-3.09,3.09,1.38,3.09,3.09-1.39,3.09-3.09,3.09ZM23.3,17.59c-.71,0-1.29.58-1.29,1.29s.58,1.29,1.29,1.29,1.29-.58,1.29-1.29-.58-1.29-1.29-1.29Z"/>
        </g>
        <g>
          <path d="M7.67,31.5c-1.7,0-3.09-1.38-3.09-3.09s1.38-3.09,3.09-3.09,3.09,1.38,3.09,3.09-1.38,3.09-3.09,3.09ZM7.67,27.12c-.71,0-1.29.58-1.29,1.29s.58,1.29,1.29,1.29,1.29-.58,1.29-1.29-.58-1.29-1.29-1.29Z"/>
          <path d="M15.49,31.5c-1.7,0-3.09-1.38-3.09-3.09s1.38-3.09,3.09-3.09,3.09,1.38,3.09,3.09-1.38,3.09-3.09,3.09ZM15.49,27.12c-.71,0-1.29.58-1.29,1.29s.58,1.29,1.29,1.29,1.29-.58,1.29-1.29-.58-1.29-1.29-1.29Z"/>
          <path d="M23.3,31.5c-1.7,0-3.09-1.38-3.09-3.09s1.39-3.09,3.09-3.09,3.09,1.38,3.09,3.09-1.39,3.09-3.09,3.09ZM23.3,27.12c-.71,0-1.29.58-1.29,1.29s.58,1.29,1.29,1.29,1.29-.58,1.29-1.29-.58-1.29-1.29-1.29Z"/>
        </g>
      </g>
    </g>
  </g>
</svg>