<svg xmlns="http://www.w3.org/2000/svg" xmlns:xlink="http://www.w3.org/1999/xlink" width="173" height="125.034" viewBox="0 0 173 125.034">
  <defs>
    <clipPath id="clip-path">
      <rect id="Rectángulo_6" data-name="Rectángulo 6" width="117.313" height="125.034" fill="none"/>
    </clipPath>
    <clipPath id="clip-path-2">
      <rect id="Rectángulo_5" data-name="Rectángulo 5" width="117.312" height="125.035" fill="none"/>
    </clipPath>
    <clipPath id="clip-path-3">
      <rect id="Rectángulo_4" data-name="Rectángulo 4" width="117.313" height="125.035" fill="none"/>
    </clipPath>
  </defs>
  <g id="Grupo_15" data-name="Grupo 15" transform="translate(-102.114 -298.448)">
    <g id="Grupo_14" data-name="Grupo 14" transform="translate(127.952 298.448)">
      <g id="Grupo_13" data-name="Grupo 13" clip-path="url(#clip-path)">
        <g id="Grupo_12" data-name="Grupo 12" transform="translate(0 -0.001)">
          <g id="Grupo_11" data-name="Grupo 11" clip-path="url(#clip-path-2)">
            <g id="Grupo_10" data-name="Grupo 10" transform="translate(0 0)" opacity="0.35">
              <g id="Grupo_9" data-name="Grupo 9">
                <g id="Grupo_8" data-name="Grupo 8" clip-path="url(#clip-path-3)">
                  <path id="Trazado_66" data-name="Trazado 66" d="M5.437,11.881C16.616-.291,38.5,5.584,48.094,19.042S58.47,50.117,58.9,66.638c-.768-17.287-1.235-35.79,7.957-50.45S98.878-5.69,110.907,6.748c26.582,27.486-52.162,116.71-52.162,116.71S-20.594,40.225,5.437,11.881" transform="translate(0.152 0.303)" fill="#f9d4ef"/>
                  <path id="Trazado_67" data-name="Trazado 67" d="M5.775,12.356a18.991,18.991,0,0,0-4.027,7.58A26.765,26.765,0,0,0,.92,25.843,43.828,43.828,0,0,0,3.034,39.948a92.459,92.459,0,0,0,5.294,13.4,193.339,193.339,0,0,0,14.684,24.9C28.469,86.2,34.31,93.907,40.4,101.406q4.572,5.62,9.327,11.094l4.8,5.43,2.435,2.68,1.914,2.058,4.265-5.046,4.7-5.75q4.647-5.787,9.113-11.718c5.948-7.91,11.657-16,16.975-24.342a212.014,212.014,0,0,0,14.334-25.905,103.632,103.632,0,0,0,5.207-13.794,49.671,49.671,0,0,0,2.212-14.4c-.059-4.808-1.4-9.661-4.519-13.253a22.243,22.243,0,0,0-2.568-2.453,29.441,29.441,0,0,0-2.948-1.987,21.889,21.889,0,0,0-6.776-2.158A28.5,28.5,0,0,0,84.68,3.549a35.879,35.879,0,0,0-12.211,7.669,34.812,34.812,0,0,0-7.98,12.023A59.429,59.429,0,0,0,60.608,37.35C59.143,47.075,59.475,57.01,59.9,66.9l-1.685.059c-.313-11.16-.679-22.451-3.9-33.1a51.429,51.429,0,0,0-3-7.717A39.865,39.865,0,0,0,47.034,19.1a32.117,32.117,0,0,0-5.775-5.805,35.685,35.685,0,0,0-7.081-4.169A33.288,33.288,0,0,0,24.124,6.434a24.884,24.884,0,0,0-9.429.852,21.442,21.442,0,0,0-6.4,3.063,19.015,19.015,0,0,1-2.523,1.969,10.986,10.986,0,0,1,.967-1.07l.963-.981c.379-.348.856-.65,1.329-1.013a20.757,20.757,0,0,1,6.856-3.268c.7-.132,1.762-.407,2.955-.547a26.472,26.472,0,0,1,3.667-.132,30.166,30.166,0,0,1,9.833,1.9,34.452,34.452,0,0,1,8.873,4.664A33.123,33.123,0,0,1,48.381,18.9a48.178,48.178,0,0,1,4.957,8.723,70.685,70.685,0,0,1,4.957,19.367c.845,6.624,1.083,13.292,1.281,19.935l-1.043.038c-.452-9.881-.825-19.871.624-29.768a60.964,60.964,0,0,1,3.918-14.452c.436-1.177,1.061-2.273,1.585-3.415.581-1.111,1.228-2.191,1.862-3.275.747-1.02,1.408-2.11,2.228-3.07A32.149,32.149,0,0,1,71.315,10.2,37.325,37.325,0,0,1,84.006,2.133,30.006,30.006,0,0,1,98.949.266a23.021,23.021,0,0,1,7.3,2.273,30.979,30.979,0,0,1,3.223,2.1,25.463,25.463,0,0,1,2.8,2.644c3.465,3.9,4.939,9.182,5.03,14.223a50.408,50.408,0,0,1-2.21,14.9,103.966,103.966,0,0,1-5.26,14.034,211.477,211.477,0,0,1-14.441,26.15c-5.353,8.4-11.1,16.533-17.089,24.483q-4.5,5.961-9.181,11.779l-4.733,5.779-2.405,2.859-3.064,3.543-3.241-3.479-2.553-2.825L48.1,113.008q-4.972-5.773-9.749-11.714C32,93.368,25.907,85.207,20.271,76.725a177.1,177.1,0,0,1-13.5-23.8C3.075,44.7.05,36.024,0,27.258a22.957,22.957,0,0,1,1.583-8.541,19.355,19.355,0,0,1,4.192-6.361" transform="translate(0 0)" fill="#f9d4ef"/>
                </g>
              </g>
            </g>
          </g>
        </g>
      </g>
    </g>
    <text id="Diana_Quesada_Johan_Lopez" data-name="Diana Quesada
&amp; Johan Lopez" transform="translate(102.114 347.977)" fill="#707070" font-size="33" font-family="MeowScript-Regular, Meow Script"><tspan x="0" y="0">Diana Quesada</tspan><tspan x="0" y="28">&amp; Johan Lopez</tspan></text>
  </g>
</svg>
