<svg xmlns="http://www.w3.org/2000/svg" xmlns:xlink="http://www.w3.org/1999/xlink" width="75.501" height="70.491" viewBox="0 0 75.501 70.491">
  <defs>
    <clipPath id="clip-path">
      <rect id="Rectángulo_3" data-name="Rectángulo 3" width="75.501" height="70.491" fill="none"/>
    </clipPath>
  </defs>
  <g id="Grupo_40" data-name="Grupo 40" transform="translate(-924 -775)">
    <g id="Grupo_7" data-name="Grupo 7" transform="translate(924 775)">
      <g id="Grupo_6" data-name="Grupo 6" transform="translate(0 0)" clip-path="url(#clip-path)">
        <path id="Trazado_49" data-name="Trazado 49" d="M28.805,8.92c-1.169.139-1.723.278-2.322.311a43.27,43.27,0,0,0-8.08,1.185,17.379,17.379,0,0,0-3.745,1.38A4.85,4.85,0,0,0,13.208,12.9a1.057,1.057,0,0,0-.2,1.265,3.491,3.491,0,0,0,1.265,1.154,11.238,11.238,0,0,0,1.768.821,24.936,24.936,0,0,0,3.888,1.041,48.721,48.721,0,0,0,8.115.782,55.259,55.259,0,0,0,8.153-.437,36.5,36.5,0,0,0,3.988-.742,17.222,17.222,0,0,0,3.724-1.328,4.776,4.776,0,0,0,1.42-1.057.94.94,0,0,0,.2-1.129,3.364,3.364,0,0,0-1.216-1.129,10.954,10.954,0,0,0-1.749-.837,33.018,33.018,0,0,0-7.906-1.7c-1.074-.115-2.283-.178-3.175-.291-.779-.1-1.711-.3-1.645-.423a7.1,7.1,0,0,1,1.912-.345,8.063,8.063,0,0,1,1.044,0,43.168,43.168,0,0,1,7.414.92A20.353,20.353,0,0,1,43.826,10.6a8.587,8.587,0,0,1,1.7.957A3.091,3.091,0,0,1,46.8,13.28a2.349,2.349,0,0,1-.709,2.12,6.343,6.343,0,0,1-1.624,1.19,17.574,17.574,0,0,1-3.578,1.37A40.837,40.837,0,0,1,33.454,19.2a50.79,50.79,0,0,1-15.02-.905A20.854,20.854,0,0,1,14.765,17.1a9.086,9.086,0,0,1-1.757-1,3.48,3.48,0,0,1-1.383-1.851,2.273,2.273,0,0,1,.074-1.339,2.993,2.993,0,0,1,.654-1.017,6.3,6.3,0,0,1,1.7-1.221A17.081,17.081,0,0,1,17.7,9.349a34.02,34.02,0,0,1,8.515-.863,12.165,12.165,0,0,1,2.586.434" transform="translate(7.157 5.253)" fill="#606060"/>
        <path id="Trazado_50" data-name="Trazado 50" d="M15.933,17.929c-1.29.468-1.88.763-2.536.989a18.18,18.18,0,0,0-4.61,2.2,5.026,5.026,0,0,0-1.621,1.715,2.12,2.12,0,0,0-.244,1.012,2.327,2.327,0,0,0,.3,1A5.449,5.449,0,0,0,8.9,26.491a13.519,13.519,0,0,0,2.223,1.192,31.25,31.25,0,0,0,4.906,1.6l.47.118,0,.487v0l-.47-.6A70.64,70.64,0,0,0,29.812,31.07a91.921,91.921,0,0,0,13.925-.491,62.436,62.436,0,0,0,6.849-1.148A31.652,31.652,0,0,0,57.1,27.3a9.42,9.42,0,0,0,2.691-1.812,2.163,2.163,0,0,0,.677-2.432,5.417,5.417,0,0,0-2.176-2.139,18.387,18.387,0,0,0-3.051-1.464c-1.163-.45-2.518-.831-3.51-1.161-.86-.3-1.891-.706-1.788-.816a9.1,9.1,0,0,1,2.251.131,9.509,9.509,0,0,1,1.188.277,29.618,29.618,0,0,1,3.486,1.2A12.821,12.821,0,0,1,60.1,20.952a4.743,4.743,0,0,1,1.256,1.5,2.942,2.942,0,0,1,.282,2.029,3.836,3.836,0,0,1-.991,1.75,8.339,8.339,0,0,1-1.472,1.242,24.581,24.581,0,0,1-6.867,2.845,58.118,58.118,0,0,1-7.233,1.452,87.414,87.414,0,0,1-14.71.738A69.647,69.647,0,0,1,15.7,30.6l-.551-.139v-.573l.551.708a31.038,31.038,0,0,1-5.282-1.813,14.259,14.259,0,0,1-2.487-1.433A5.79,5.79,0,0,1,5.95,25a3.208,3.208,0,0,1,.351-2.97,6.513,6.513,0,0,1,2-1.843,17.95,17.95,0,0,1,4.6-1.9,13.306,13.306,0,0,1,3.028-.353" transform="translate(3.551 10.792)" fill="#606060"/>
        <path id="Trazado_51" data-name="Trazado 51" d="M10,31.838c-1.548.638-2.236,1.059-3.02,1.389a13.97,13.97,0,0,0-4.945,3.31,3.3,3.3,0,0,0-.871,2.479,3.929,3.929,0,0,0,1.308,2.353,10.98,10.98,0,0,0,2.4,1.733,22.177,22.177,0,0,0,2.745,1.3,44.026,44.026,0,0,0,5.86,1.839l.465.115,0,.486v0l-.466-.6a93.737,93.737,0,0,0,17.113,2.332A126.571,126.571,0,0,0,47.9,48.272a78.415,78.415,0,0,0,16.938-3.167,33.035,33.035,0,0,0,3.952-1.584A12.737,12.737,0,0,0,72.2,41.234a4.506,4.506,0,0,0,1.072-1.54l.136-.419.047-.427a2.563,2.563,0,0,0-.1-.853,6.073,6.073,0,0,0-2.511-2.9,27.945,27.945,0,0,0-3.936-2.1c-1-.479-2.21-1.074-2.081-1.164a11.228,11.228,0,0,1,2.685.572,11.76,11.76,0,0,1,1.391.557,14.864,14.864,0,0,1,3.876,2.468,5.8,5.8,0,0,1,1.4,1.915,3.589,3.589,0,0,1,.154,2.432,4.836,4.836,0,0,1-.489,1.125,7.163,7.163,0,0,1-.74.942,10.063,10.063,0,0,1-1.791,1.516,22.03,22.03,0,0,1-4.088,2.123,51.986,51.986,0,0,1-8.757,2.583,90.483,90.483,0,0,1-9,1.417,120.17,120.17,0,0,1-18.211.547,92.173,92.173,0,0,1-18.114-2.471l-.551-.138v-.573l.552.706a44.273,44.273,0,0,1-6.038-1.961,23.044,23.044,0,0,1-2.892-1.414,12.135,12.135,0,0,1-2.641-1.982A4.994,4.994,0,0,1,.019,39.127a4.342,4.342,0,0,1,1.174-3.211A10.086,10.086,0,0,1,3.67,33.96a18.96,18.96,0,0,1,2.709-1.294A16.222,16.222,0,0,1,10,31.838" transform="translate(0 19.696)" fill="#606060"/>
        <path id="Trazado_52" data-name="Trazado 52" d="M12.067,33.441a3.042,3.042,0,0,1-.243-.693c-.232-6.527-.377-13.059-.2-19.6a4.128,4.128,0,0,1,.079-.954c.071-.233.262-.512.387-.492s.269.348.392.562a.852.852,0,0,1,.049.308c.313,5.857.625,11.715.416,17.605a14.333,14.333,0,0,1-.369,2.5c-.068.316-.33.5-.513.759" transform="translate(7.149 7.246)" fill="#606060"/>
        <path id="Trazado_53" data-name="Trazado 53" d="M6.615,21.366c.126,1.673.236,2.477.243,3.339l.083,11.788.037,5.9,0,.737,0,.368,0,.185L7,43.816A2.216,2.216,0,0,0,7.41,44.9a6.575,6.575,0,0,0,2.014,1.744,22.865,22.865,0,0,0,5.3,2.139,50.646,50.646,0,0,0,5.683,1.235A81.836,81.836,0,0,0,32.049,51a89.858,89.858,0,0,0,11.681-.542,51.729,51.729,0,0,0,11.341-2.438,12.816,12.816,0,0,0,4.79-2.725,3.115,3.115,0,0,0,.649-.991,1.89,1.89,0,0,0,.11-.517,2.217,2.217,0,0,0,.013-.321V43.1l.01-2.952.052-11.809c.01-1.558,0-3.3.079-4.594a6.685,6.685,0,0,1,.387-2.37,15.808,15.808,0,0,1,.392,2.709c.037.314.044.968.05,1.48l.115,10.575.057,5.288.013,1.323a11.464,11.464,0,0,1-.026,1.394,4.334,4.334,0,0,1-1.535,2.466,15.693,15.693,0,0,1-4.775,2.617,40.368,40.368,0,0,1-5.149,1.5A71.644,71.644,0,0,1,39.734,52.2a84.687,84.687,0,0,1-21.3-1.112,45.515,45.515,0,0,1-5.225-1.334,20.2,20.2,0,0,1-4.994-2.3,6.585,6.585,0,0,1-2.073-2.118,3.47,3.47,0,0,1-.447-1.6l0-1.342.034-5.317c.029-4.082.194-8.19.369-12.05a29.591,29.591,0,0,1,.513-3.661" transform="translate(3.527 13.229)" fill="#606060"/>
        <path id="Trazado_54" data-name="Trazado 54" d="M33.124,33.872a3.118,3.118,0,0,1-.243-.708c-.232-6.656-.377-13.316-.2-19.986a4.3,4.3,0,0,1,.079-.973c.071-.238.262-.523.387-.5s.269.355.392.573a.877.877,0,0,1,.049.314c.312,5.972.625,11.946.416,17.953a14.866,14.866,0,0,1-.369,2.552c-.068.324-.33.513-.513.776" transform="translate(20.187 7.246)" fill="#606060"/>
        <path id="Trazado_55" data-name="Trazado 55" d="M60.816,30.537A8.307,8.307,0,0,1,59.231,32.9a9.416,9.416,0,0,1-11.694,1.334,4.158,4.158,0,0,1-1.8-1.9,1.835,1.835,0,0,1,.057-1.426,1.446,1.446,0,0,1,1.185-.884,1.659,1.659,0,0,1,1.5,2.152,4.343,4.343,0,0,1-1.53,2.137,8.378,8.378,0,0,1-2.192,1.328,13.048,13.048,0,0,1-4.968.959,12.869,12.869,0,0,1-2.519-.322,10.592,10.592,0,0,1-2.434-.8,4.772,4.772,0,0,1-1.917-1.815,3.438,3.438,0,0,1-.431-1.3,2.389,2.389,0,0,1,.232-1.409,1.7,1.7,0,0,1,.5-.6,1.313,1.313,0,0,1,.81-.241,1.5,1.5,0,0,1,1.244.936,1.923,1.923,0,0,1-.036,1.483,3.515,3.515,0,0,1-.777,1.127,8.152,8.152,0,0,1-4.637,2.149,28.644,28.644,0,0,1-5.029-.029c-.834-.073-1.655-.17-2.485-.29a8.425,8.425,0,0,1-2.422-.908L18.779,34a5.063,5.063,0,0,1-1.065-.8,3.6,3.6,0,0,1-1.13-2.443,2.458,2.458,0,0,1,.376-1.383,1.929,1.929,0,0,1,1.235-.829A1.56,1.56,0,0,1,19.657,29a1.949,1.949,0,0,1,.476,1.4,2.261,2.261,0,0,1-.52,1.339,3.793,3.793,0,0,1-1.04.874,9.412,9.412,0,0,1-2.4.938,10.74,10.74,0,0,1-5.071-.015,9.9,9.9,0,0,1-3.6-1.629,5.073,5.073,0,0,1-1.422-1.457,4.818,4.818,0,0,1,.685.517l.585.418.6.363c.235.12.695.408,1.085.578a10.269,10.269,0,0,0,8.483.215,3.987,3.987,0,0,0,1.708-1.211,1.6,1.6,0,0,0,.092-1.839,1.1,1.1,0,0,0-1.64-.07,1.866,1.866,0,0,0-.439,1.826,3.313,3.313,0,0,0,1.111,1.7,4.62,4.62,0,0,0,.874.583l.984.51a8.456,8.456,0,0,0,2,.779c.693.112,1.452.193,2.176.264a32.527,32.527,0,0,0,4.4.125,8.267,8.267,0,0,0,4.072-1.171,4.965,4.965,0,0,0,1.524-1.386,1.266,1.266,0,0,0,.036-1.622.61.61,0,0,0-.656-.176.967.967,0,0,0-.5.6,2.338,2.338,0,0,0,.261,1.852,3.967,3.967,0,0,0,1.43,1.425,7.408,7.408,0,0,0,1.98.743,11.667,11.667,0,0,0,8.391-.873,6.848,6.848,0,0,0,1.682-1.276,2.465,2.465,0,0,0,.858-1.686c0-.559-.552-1.109-1-.936a1.113,1.113,0,0,0-.538,1.41,3.257,3.257,0,0,0,1.341,1.459,8.7,8.7,0,0,0,1.906.983,9.215,9.215,0,0,0,4.883.415,9.073,9.073,0,0,0,4.309-2.155,11.355,11.355,0,0,0,2.043-2.285" transform="translate(3.761 17.65)" fill="#606060"/>
        <path id="Trazado_56" data-name="Trazado 56" d="M21.551,14.693a2.16,2.16,0,0,1,.034.473,9.817,9.817,0,0,1-1.057,3.091,6.4,6.4,0,0,1-2.293,2.409,4.857,4.857,0,0,1-3.313.674,4.147,4.147,0,0,1-2.8-1.911,1.924,1.924,0,0,1-.261-.631c-.023-.172.021-.382.084-.382s.189.188.3.29a.714.714,0,0,1,.1.17,3.542,3.542,0,0,0,2.05,1.689,3.879,3.879,0,0,0,2.618-.084,6.446,6.446,0,0,0,3.586-3.865l.612-1.485a1.687,1.687,0,0,1,.345-.437" transform="translate(7.341 9.097)" fill="#606060"/>
        <path id="Trazado_57" data-name="Trazado 57" d="M34.892,13.758a4.229,4.229,0,0,1,.2.712,10.184,10.184,0,0,1-.7,5.126,6.493,6.493,0,0,1-3.81,3.561,5.033,5.033,0,0,1-2.706.162,5.259,5.259,0,0,1-2.383-1.281,6.908,6.908,0,0,1-2.11-4.786,4.834,4.834,0,0,1,.021-1.025c.042-.249.164-.536.222-.508s.108.372.164.594a1.742,1.742,0,0,1,.023.316,7.128,7.128,0,0,0,1.365,4.16,4.768,4.768,0,0,0,3.674,1.954A5.37,5.37,0,0,0,32.641,21a7.355,7.355,0,0,0,1.815-3.9,18.834,18.834,0,0,0,.261-2.534,4.007,4.007,0,0,1,.175-.811" transform="translate(14.467 8.519)" fill="#606060"/>
        <path id="Trazado_58" data-name="Trazado 58" d="M28.047,17.618a2.011,2.011,0,0,1,.039.559A5.627,5.627,0,0,1,26.151,21.5a5.392,5.392,0,0,1-3.684,1.242,5.527,5.527,0,0,1-3.619-1.488,5.694,5.694,0,0,1-1.707-3.512,2.792,2.792,0,0,1,0-.772c.044-.189.157-.4.217-.377s.11.28.172.44a.9.9,0,0,1,.026.228,5.1,5.1,0,0,0,3.812,4.624,5.212,5.212,0,0,0,3.086-.173,5.13,5.13,0,0,0,2.395-1.949,7.486,7.486,0,0,0,.853-1.609,3.051,3.051,0,0,1,.342-.533" transform="translate(10.598 10.271)" fill="#606060"/>
        <path id="Trazado_59" data-name="Trazado 59" d="M34.732,20.508c-.107.063-.162.12-.22.121a4.269,4.269,0,0,1-2.944-1.067,4.175,4.175,0,0,1-1.38-2.851.727.727,0,0,1,.021-.316c.034-.078.13-.165.191-.159s.136.108.2.17a.172.172,0,0,1,.029.091,4.168,4.168,0,0,0,1.1,2.243,4.614,4.614,0,0,0,2.087,1.24c.228.065.455.178.69.27.091.037.146.165.23.257" transform="translate(18.688 10.053)" fill="#606060"/>
        <path id="Trazado_60" data-name="Trazado 60" d="M25.932,12.92a10.923,10.923,0,0,1-1.676-.683,27.689,27.689,0,0,1-5.214-4.053,16.586,16.586,0,0,1-2.2-2.552,5.255,5.255,0,0,1-.725-1.673,3.536,3.536,0,0,1,.11-1.932A2.907,2.907,0,0,1,17.475.433a2.707,2.707,0,0,1,2.056-.24,5.532,5.532,0,0,1,1.656.8c.483.33.905.661,1.344,1.012a26.14,26.14,0,0,1,2.455,2.26q.578.6,1.116,1.244l.434.528.021.023.016-.026,0-.008.1-.126.243-.3c.325-.4.664-.787,1.01-1.167a26.032,26.032,0,0,1,2.223-2.149q.585-.505,1.2-.972A8.466,8.466,0,0,1,32.735.42,3.54,3.54,0,0,1,34.563.007a2.666,2.666,0,0,1,1.8.91,3.439,3.439,0,0,1,.779,1.723,3.836,3.836,0,0,1-.173,1.822,8.077,8.077,0,0,1-1.783,2.751,27.488,27.488,0,0,1-4.6,4.095,13.888,13.888,0,0,1-2.128,1.3c-.562.253-1.29.424-1.3.29-.011-.152.656-.661,1.056-1.051a7.074,7.074,0,0,1,.635-.453A27.117,27.117,0,0,0,33.632,7.3a13.564,13.564,0,0,0,1.885-2.432,2.848,2.848,0,0,0,.235-2.63,1.5,1.5,0,0,0-2-.835,9.063,9.063,0,0,0-2.443,1.669,25.017,25.017,0,0,0-2.238,2.166q-.527.573-1.015,1.18l-.243.3-.335.436L26.557,8.4l-.708-.939L25.5,7l-.222-.275c-.248-.306-.505-.6-.767-.9q-.789-.874-1.656-1.679t-1.8-1.52A5.937,5.937,0,0,0,19.208,1.54a1.24,1.24,0,0,0-1.417.4,2.17,2.17,0,0,0-.393,1.7c.238,1.289,1.4,2.494,2.463,3.648A38.6,38.6,0,0,0,24.512,11.5a13.327,13.327,0,0,1,1.42,1.417" transform="translate(9.926 -0.001)" fill="#606060"/>
        <path id="Trazado_61" data-name="Trazado 61" d="M22.456,7.862a4.634,4.634,0,0,1,.121.643l.125,8.564c-.147,0,.481,0,.324-.006l0-3.747L23.059,9.2a6.873,6.873,0,0,1,.04-.884c.036-.217.131-.476.193-.457s.134.322.2.521a1.287,1.287,0,0,1,.024.285l.121,4.375.05,2.188.04,2.528L22,17.775l-.016-3.616q.017-1.635.032-3.271c.016-.787.1-1.577.185-2.322a2.63,2.63,0,0,1,.257-.7" transform="translate(13.611 4.868)" fill="#606060"/>
        <path id="Trazado_62" data-name="Trazado 62" d="M4.807,26.462a1.548,1.548,0,0,1-.154-.366A8.452,8.452,0,0,1,5.837,20.9a8.286,8.286,0,0,1,4.131-3.415,1.979,1.979,0,0,1,.51-.144c.134-.006.308.039.314.1s-.139.186-.227.278a.593.593,0,0,1-.144.078,8.493,8.493,0,0,0-3.538,2.8,9.035,9.035,0,0,0-1.645,4.143c-.068.423-.139.863-.209,1.292a1.34,1.34,0,0,1-.222.426" transform="translate(2.857 10.739)" fill="#606060"/>
        <path id="Trazado_63" data-name="Trazado 63" d="M41.612,33.468a1.461,1.461,0,0,1-.136-.334c-.253-3.182-.46-6.367-.507-9.565a1.9,1.9,0,0,1,.021-.466c.029-.117.12-.256.181-.249s.142.164.207.266a.4.4,0,0,1,.032.149c.277,2.853.555,5.706.573,8.588a6.847,6.847,0,0,1-.131,1.229c-.029.157-.155.253-.241.382" transform="translate(25.365 14.151)" fill="#606060"/>
        <path id="Trazado_64" data-name="Trazado 64" d="M54.477,38.967A5.416,5.416,0,0,1,54,39.5a30,30,0,0,1-18.561,6.857,7.555,7.555,0,0,1-.981-.036c-.241-.036-.525-.133-.5-.194s.358-.134.576-.2a1.819,1.819,0,0,1,.311-.024,33.2,33.2,0,0,0,16.716-5.325l1.086-.677c.366-.215.724-.434,1.065-.659a3.091,3.091,0,0,1,.766-.283" transform="translate(21.024 24.127)" fill="#606060"/>
        <path id="Trazado_65" data-name="Trazado 65" d="M21.716,11.589a2.345,2.345,0,0,1-.427-.151,18.838,18.838,0,0,1-4.752-4.03,7.389,7.389,0,0,1-1.561-6.067,2.169,2.169,0,0,1,.212-.6c.087-.134.24-.269.291-.232s.049.257.062.4a1.089,1.089,0,0,1-.032.188,6.741,6.741,0,0,0,1.038,5.1,16.009,16.009,0,0,0,3.763,3.842,14.353,14.353,0,0,1,1.163,1.065,1.454,1.454,0,0,1,.244.484" transform="translate(9.177 0.311)" fill="#606060"/>
      </g>
    </g>
  </g>
</svg>
